<svg id="visual" viewBox="0 0 900 600" width="900" height="600" xmlns="http://www.w3.org/2000/svg" xmlns:xlink="http://www.w3.org/1999/xlink" version="1.1"><rect x="0" y="0" width="900" height="600" fill="#E9A457"></rect><path d="M572 0L679 75L646 150L560 225L489 300L705 375L548 450L703 525L564 600L0 600L0 525L0 450L0 375L0 300L0 225L0 150L0 75L0 0Z" fill="#579ce9"></path><path d="M441 0L375 75L346 150L434 225L347 300L340 375L563 450L540 525L497 600L0 600L0 525L0 450L0 375L0 300L0 225L0 150L0 75L0 0Z" fill="#568bc5"></path><path d="M378 0L288 75L240 150L361 225L412 300L316 375L372 450L279 525L369 600L0 600L0 525L0 450L0 375L0 300L0 225L0 150L0 75L0 0Z" fill="#5579a2"></path><path d="M160 0L149 75L181 150L217 225L119 300L233 375L255 450L85 525L243 600L0 600L0 525L0 450L0 375L0 300L0 225L0 150L0 75L0 0Z" fill="#536880"></path></svg>