<svg id="visual" viewBox="0 0 900 600" width="900" height="600" xmlns="http://www.w3.org/2000/svg" xmlns:xlink="http://www.w3.org/1999/xlink" version="1.1"><rect x="0" y="0" width="900" height="600" fill="#757399"></rect><path d="M0 297L7.8 288.5C15.7 280 31.3 263 47.2 255.8C63 248.7 79 251.3 94.8 250.2C110.7 249 126.3 244 142 242.8C157.7 241.7 173.3 244.3 189.2 244.8C205 245.3 221 243.7 236.8 241.3C252.7 239 268.3 236 284.2 239C300 242 316 251 331.8 257.7C347.7 264.3 363.3 268.7 379 278.8C394.7 289 410.3 305 426.2 292.2C442 279.3 458 237.7 473.8 220.2C489.7 202.7 505.3 209.3 521 213.5C536.7 217.7 552.3 219.3 568.2 233.8C584 248.3 600 275.7 615.8 281.3C631.7 287 647.3 271 663.2 261.2C679 251.3 695 247.7 710.8 260.7C726.7 273.7 742.3 303.3 758 318.2C773.7 333 789.3 333 805.2 316.3C821 299.7 837 266.3 852.8 254.3C868.7 242.3 884.3 251.7 892.2 256.3L900 261L900 601L892.2 601C884.3 601 868.7 601 852.8 601C837 601 821 601 805.2 601C789.3 601 773.7 601 758 601C742.3 601 726.7 601 710.8 601C695 601 679 601 663.2 601C647.3 601 631.7 601 615.8 601C600 601 584 601 568.2 601C552.3 601 536.7 601 521 601C505.3 601 489.7 601 473.8 601C458 601 442 601 426.2 601C410.3 601 394.7 601 379 601C363.3 601 347.7 601 331.8 601C316 601 300 601 284.2 601C268.3 601 252.7 601 236.8 601C221 601 205 601 189.2 601C173.3 601 157.7 601 142 601C126.3 601 110.7 601 94.8 601C79 601 63 601 47.2 601C31.3 601 15.7 601 7.8 601L0 601Z" fill="#536880"></path><path d="M0 311L7.8 311.8C15.7 312.7 31.3 314.3 47.2 314.2C63 314 79 312 94.8 300.8C110.7 289.7 126.3 269.3 142 262.2C157.7 255 173.3 261 189.2 276.7C205 292.3 221 317.7 236.8 332.2C252.7 346.7 268.3 350.3 284.2 336.7C300 323 316 292 331.8 279.5C347.7 267 363.3 273 379 275.7C394.7 278.3 410.3 277.7 426.2 284C442 290.3 458 303.7 473.8 303.3C489.7 303 505.3 289 521 280.2C536.7 271.3 552.3 267.7 568.2 282.7C584 297.7 600 331.3 615.8 330C631.7 328.7 647.3 292.3 663.2 281.3C679 270.3 695 284.7 710.8 296.7C726.7 308.7 742.3 318.3 758 325.5C773.7 332.7 789.3 337.3 805.2 329.2C821 321 837 300 852.8 288C868.7 276 884.3 273 892.2 271.5L900 270L900 601L892.2 601C884.3 601 868.7 601 852.8 601C837 601 821 601 805.2 601C789.3 601 773.7 601 758 601C742.3 601 726.7 601 710.8 601C695 601 679 601 663.2 601C647.3 601 631.7 601 615.8 601C600 601 584 601 568.2 601C552.3 601 536.7 601 521 601C505.3 601 489.7 601 473.8 601C458 601 442 601 426.2 601C410.3 601 394.7 601 379 601C363.3 601 347.7 601 331.8 601C316 601 300 601 284.2 601C268.3 601 252.7 601 236.8 601C221 601 205 601 189.2 601C173.3 601 157.7 601 142 601C126.3 601 110.7 601 94.8 601C79 601 63 601 47.2 601C31.3 601 15.7 601 7.8 601L0 601Z" fill="#5682b3"></path><path d="M0 414L7.8 397.7C15.7 381.3 31.3 348.7 47.2 348.5C63 348.3 79 380.7 94.8 382C110.7 383.3 126.3 353.7 142 341.3C157.7 329 173.3 334 189.2 338.3C205 342.7 221 346.3 236.8 353.3C252.7 360.3 268.3 370.7 284.2 363.3C300 356 316 331 331.8 326.3C347.7 321.7 363.3 337.3 379 337.5C394.7 337.7 410.3 322.3 426.2 328.3C442 334.3 458 361.7 473.8 378.7C489.7 395.7 505.3 402.3 521 398.5C536.7 394.7 552.3 380.3 568.2 380C584 379.7 600 393.3 615.8 382.5C631.7 371.7 647.3 336.3 663.2 319.3C679 302.3 695 303.7 710.8 318.2C726.7 332.7 742.3 360.3 758 360.7C773.7 361 789.3 334 805.2 324.5C821 315 837 323 852.8 326.8C868.7 330.7 884.3 330.3 892.2 330.2L900 330L900 601L892.2 601C884.3 601 868.7 601 852.8 601C837 601 821 601 805.2 601C789.3 601 773.7 601 758 601C742.3 601 726.7 601 710.8 601C695 601 679 601 663.2 601C647.3 601 631.7 601 615.8 601C600 601 584 601 568.2 601C552.3 601 536.7 601 521 601C505.3 601 489.7 601 473.8 601C458 601 442 601 426.2 601C410.3 601 394.7 601 379 601C363.3 601 347.7 601 331.8 601C316 601 300 601 284.2 601C268.3 601 252.7 601 236.8 601C221 601 205 601 189.2 601C173.3 601 157.7 601 142 601C126.3 601 110.7 601 94.8 601C79 601 63 601 47.2 601C31.3 601 15.7 601 7.8 601L0 601Z" fill="#579ce9"></path><path d="M0 428L7.8 431.8C15.7 435.7 31.3 443.3 47.2 441.8C63 440.3 79 429.7 94.8 422.7C110.7 415.7 126.3 412.3 142 414.2C157.7 416 173.3 423 189.2 415.8C205 408.7 221 387.3 236.8 388.2C252.7 389 268.3 412 284.2 422.8C300 433.7 316 432.3 331.8 423.7C347.7 415 363.3 399 379 388.5C394.7 378 410.3 373 426.2 377.3C442 381.7 458 395.3 473.8 407.7C489.7 420 505.3 431 521 426.2C536.7 421.3 552.3 400.7 568.2 387C584 373.3 600 366.7 615.8 365.8C631.7 365 647.3 370 663.2 385.2C679 400.3 695 425.7 710.8 429.5C726.7 433.3 742.3 415.7 758 399.2C773.7 382.7 789.3 367.3 805.2 360.5C821 353.7 837 355.3 852.8 370.8C868.7 386.3 884.3 415.7 892.2 430.3L900 445L900 601L892.2 601C884.3 601 868.7 601 852.8 601C837 601 821 601 805.2 601C789.3 601 773.7 601 758 601C742.3 601 726.7 601 710.8 601C695 601 679 601 663.2 601C647.3 601 631.7 601 615.8 601C600 601 584 601 568.2 601C552.3 601 536.7 601 521 601C505.3 601 489.7 601 473.8 601C458 601 442 601 426.2 601C410.3 601 394.7 601 379 601C363.3 601 347.7 601 331.8 601C316 601 300 601 284.2 601C268.3 601 252.7 601 236.8 601C221 601 205 601 189.2 601C173.3 601 157.7 601 142 601C126.3 601 110.7 601 94.8 601C79 601 63 601 47.2 601C31.3 601 15.7 601 7.8 601L0 601Z" fill="#58a6ff"></path><path d="M0 430L7.8 434.2C15.7 438.3 31.3 446.7 47.2 451.8C63 457 79 459 94.8 451C110.7 443 126.3 425 142 415.8C157.7 406.7 173.3 406.3 189.2 411.8C205 417.3 221 428.7 236.8 441C252.7 453.3 268.3 466.7 284.2 461.8C300 457 316 434 331.8 435.7C347.7 437.3 363.3 463.7 379 471.3C394.7 479 410.3 468 426.2 455C442 442 458 427 473.8 426C489.7 425 505.3 438 521 440.3C536.7 442.7 552.3 434.3 568.2 436.5C584 438.7 600 451.3 615.8 452.7C631.7 454 647.3 444 663.2 438.5C679 433 695 432 710.8 430C726.7 428 742.3 425 758 427.2C773.7 429.3 789.3 436.7 805.2 436.7C821 436.7 837 429.3 852.8 430C868.7 430.7 884.3 439.3 892.2 443.7L900 448L900 601L892.2 601C884.3 601 868.7 601 852.8 601C837 601 821 601 805.2 601C789.3 601 773.7 601 758 601C742.3 601 726.7 601 710.8 601C695 601 679 601 663.2 601C647.3 601 631.7 601 615.8 601C600 601 584 601 568.2 601C552.3 601 536.7 601 521 601C505.3 601 489.7 601 473.8 601C458 601 442 601 426.2 601C410.3 601 394.7 601 379 601C363.3 601 347.7 601 331.8 601C316 601 300 601 284.2 601C268.3 601 252.7 601 236.8 601C221 601 205 601 189.2 601C173.3 601 157.7 601 142 601C126.3 601 110.7 601 94.8 601C79 601 63 601 47.2 601C31.3 601 15.7 601 7.8 601L0 601Z" fill="#579ce9"></path><path d="M0 484L7.8 491C15.7 498 31.3 512 47.2 511.7C63 511.3 79 496.7 94.8 489.7C110.7 482.7 126.3 483.3 142 485.3C157.7 487.3 173.3 490.7 189.2 494.7C205 498.7 221 503.3 236.8 506.7C252.7 510 268.3 512 284.2 515.2C300 518.3 316 522.7 331.8 522.7C347.7 522.7 363.3 518.3 379 513.3C394.7 508.3 410.3 502.7 426.2 499.2C442 495.7 458 494.3 473.8 497.2C489.7 500 505.3 507 521 504.2C536.7 501.3 552.3 488.7 568.2 483.3C584 478 600 480 615.8 483.2C631.7 486.3 647.3 490.7 663.2 494.3C679 498 695 501 710.8 505.3C726.7 509.7 742.3 515.3 758 515.8C773.7 516.3 789.3 511.7 805.2 503.5C821 495.3 837 483.7 852.8 485.7C868.7 487.7 884.3 503.3 892.2 511.2L900 519L900 601L892.2 601C884.3 601 868.7 601 852.8 601C837 601 821 601 805.2 601C789.3 601 773.7 601 758 601C742.3 601 726.7 601 710.8 601C695 601 679 601 663.2 601C647.3 601 631.7 601 615.8 601C600 601 584 601 568.2 601C552.3 601 536.7 601 521 601C505.3 601 489.7 601 473.8 601C458 601 442 601 426.2 601C410.3 601 394.7 601 379 601C363.3 601 347.7 601 331.8 601C316 601 300 601 284.2 601C268.3 601 252.7 601 236.8 601C221 601 205 601 189.2 601C173.3 601 157.7 601 142 601C126.3 601 110.7 601 94.8 601C79 601 63 601 47.2 601C31.3 601 15.7 601 7.8 601L0 601Z" fill="#5682b3"></path><path d="M0 513L7.8 520.7C15.7 528.3 31.3 543.7 47.2 547.8C63 552 79 545 94.8 541.2C110.7 537.3 126.3 536.7 142 532.5C157.7 528.3 173.3 520.7 189.2 521.2C205 521.7 221 530.3 236.8 538C252.7 545.7 268.3 552.3 284.2 555C300 557.7 316 556.3 331.8 554.3C347.7 552.3 363.3 549.7 379 545.8C394.7 542 410.3 537 426.2 535.7C442 534.3 458 536.7 473.8 533.3C489.7 530 505.3 521 521 520C536.7 519 552.3 526 568.2 534.2C584 542.3 600 551.7 615.8 551.3C631.7 551 647.3 541 663.2 537.7C679 534.3 695 537.7 710.8 540.8C726.7 544 742.3 547 758 546.5C773.7 546 789.3 542 805.2 541C821 540 837 542 852.8 546.7C868.7 551.3 884.3 558.7 892.2 562.3L900 566L900 601L892.2 601C884.3 601 868.7 601 852.8 601C837 601 821 601 805.2 601C789.3 601 773.7 601 758 601C742.3 601 726.7 601 710.8 601C695 601 679 601 663.2 601C647.3 601 631.7 601 615.8 601C600 601 584 601 568.2 601C552.3 601 536.7 601 521 601C505.3 601 489.7 601 473.8 601C458 601 442 601 426.2 601C410.3 601 394.7 601 379 601C363.3 601 347.7 601 331.8 601C316 601 300 601 284.2 601C268.3 601 252.7 601 236.8 601C221 601 205 601 189.2 601C173.3 601 157.7 601 142 601C126.3 601 110.7 601 94.8 601C79 601 63 601 47.2 601C31.3 601 15.7 601 7.8 601L0 601Z" fill="#536880"></path></svg>