<svg id="visual" viewBox="0 0 900 600" width="900" height="600" xmlns="http://www.w3.org/2000/svg" xmlns:xlink="http://www.w3.org/1999/xlink" version="1.1"><path d="M0 115L56 49L113 73L169 97L225 139L281 139L338 55L394 61L450 97L506 103L563 85L619 73L675 127L731 55L788 97L844 121L900 61L900 0L844 0L788 0L731 0L675 0L619 0L563 0L506 0L450 0L394 0L338 0L281 0L225 0L169 0L113 0L56 0L0 0Z" fill="#536880"></path><path d="M0 217L56 319L113 349L169 193L225 289L281 319L338 367L394 223L450 307L506 307L563 295L619 283L675 325L731 307L788 301L844 265L900 337L900 59L844 119L788 95L731 53L675 125L619 71L563 83L506 101L450 95L394 59L338 53L281 137L225 137L169 95L113 71L56 47L0 113Z" fill="#579ce9"></path><path d="M0 451L56 487L113 523L169 481L225 463L281 517L338 529L394 481L450 541L506 427L563 433L619 451L675 541L731 403L788 517L844 463L900 505L900 335L844 263L788 299L731 305L675 323L619 281L563 293L506 305L450 305L394 221L338 365L281 317L225 287L169 191L113 347L56 317L0 215Z" fill="#579ce9"></path><path d="M0 601L56 601L113 601L169 601L225 601L281 601L338 601L394 601L450 601L506 601L563 601L619 601L675 601L731 601L788 601L844 601L900 601L900 503L844 461L788 515L731 401L675 539L619 449L563 431L506 425L450 539L394 479L338 527L281 515L225 461L169 479L113 521L56 485L0 449Z" fill="#536880"></path></svg>