<svg id="visual" viewBox="0 0 960 540" width="960" height="540" xmlns="http://www.w3.org/2000/svg" xmlns:xlink="http://www.w3.org/1999/xlink" version="1.1"><g stroke-width="11" stroke-linejoin="bevel"><path d="M499.1 301.5L497.9 350L564.9 325.5Z" fill="#556763" stroke="#1a574a"></path><path d="M576.8 400.5L597.6 350.5L564.9 325.5Z" fill="#000000" stroke="#1a574a"></path><path d="M592.8 237L552.8 255.5L564.9 325.5Z" fill="#263532" stroke="#1a574a"></path><path d="M564.9 325.5L552.8 255.5L499.1 301.5Z" fill="#556763" stroke="#1a574a"></path><path d="M552.8 255.5L524.9 239.5L499.1 301.5Z" fill="#101f1d" stroke="#1a574a"></path><path d="M497.9 350L576.8 400.5L564.9 325.5Z" fill="#263532" stroke="#1a574a"></path><path d="M422.2 279.5L423.2 300L499.1 301.5Z" fill="#3d4d4a" stroke="#1a574a"></path><path d="M499.1 301.5L423.2 300L497.9 350Z" fill="#6f817d" stroke="#1a574a"></path><path d="M649.6 303L592.8 237L564.9 325.5Z" fill="#1b2a27" stroke="#1a574a"></path><path d="M552.8 255.5L592.8 237L524.9 239.5Z" fill="#1b2a27" stroke="#1a574a"></path><path d="M424.1 249.5L422.2 279.5L499.1 301.5Z" fill="#495a56" stroke="#1a574a"></path><path d="M656.6 398L649.6 303L597.6 350.5Z" fill="#556763" stroke="#1a574a"></path><path d="M597.6 350.5L649.6 303L564.9 325.5Z" fill="#31413e" stroke="#1a574a"></path><path d="M477.9 206L424.1 249.5L499.1 301.5Z" fill="#1b2a27" stroke="#1a574a"></path><path d="M482.1 183L477.9 206L524.9 239.5Z" fill="#101f1d" stroke="#1a574a"></path><path d="M524.9 239.5L477.9 206L499.1 301.5Z" fill="#627470" stroke="#1a574a"></path><path d="M364.2 263.5L391.1 317L422.2 279.5Z" fill="#31413e" stroke="#1a574a"></path><path d="M422.2 279.5L391.1 317L423.2 300Z" fill="#627470" stroke="#1a574a"></path><path d="M423.2 300L381.1 362L497.9 350Z" fill="#263532" stroke="#1a574a"></path><path d="M497.9 350L476.9 460.5L576.8 400.5Z" fill="#263532" stroke="#1a574a"></path><path d="M381.1 362L476.9 460.5L497.9 350Z" fill="#101f1d" stroke="#1a574a"></path><path d="M638.8 437L656.6 398L576.8 400.5Z" fill="#101f1d" stroke="#1a574a"></path><path d="M576.8 400.5L656.6 398L597.6 350.5Z" fill="#1b2a27" stroke="#1a574a"></path><path d="M592.8 237L482.1 183L524.9 239.5Z" fill="#495a56" stroke="#1a574a"></path><path d="M477.9 206L404.2 173L424.1 249.5Z" fill="#101f1d" stroke="#1a574a"></path><path d="M391.1 317L381.1 362L423.2 300Z" fill="#101f1d" stroke="#1a574a"></path><path d="M391.1 317L374.2 351L381.1 362Z" fill="#3d4d4a" stroke="#1a574a"></path><path d="M329.4 341.5L374.2 351L391.1 317Z" fill="#6f817d" stroke="#1a574a"></path><path d="M560.8 503.5L638.8 437L576.8 400.5Z" fill="#000000" stroke="#1a574a"></path><path d="M338.4 211.5L364.2 263.5L424.1 249.5Z" fill="#3d4d4a" stroke="#1a574a"></path><path d="M424.1 249.5L364.2 263.5L422.2 279.5Z" fill="#495a56" stroke="#1a574a"></path><path d="M771.5 384L707.5 327.5L656.6 398Z" fill="#101f1d" stroke="#1a574a"></path><path d="M656.6 398L707.5 327.5L649.6 303Z" fill="#495a56" stroke="#1a574a"></path><path d="M649.6 303L709.6 268.5L592.8 237Z" fill="#1b2a27" stroke="#1a574a"></path><path d="M476.9 460.5L560.8 503.5L576.8 400.5Z" fill="#556763" stroke="#1a574a"></path><path d="M707.5 327.5L709.6 268.5L649.6 303Z" fill="#101f1d" stroke="#1a574a"></path><path d="M592.8 237L497.9 120L482.1 183Z" fill="#000000" stroke="#1a574a"></path><path d="M482.1 183L404.2 173L477.9 206Z" fill="#101f1d" stroke="#1a574a"></path><path d="M326.4 292L329.4 341.5L391.1 317Z" fill="#495a56" stroke="#1a574a"></path><path d="M374.2 351L329.4 341.5L381.1 362Z" fill="#627470" stroke="#1a574a"></path><path d="M395.2 540L497.1 523.5L476.9 460.5Z" fill="#101f1d" stroke="#1a574a"></path><path d="M326.4 292L391.1 317L364.2 263.5Z" fill="#1b2a27" stroke="#1a574a"></path><path d="M348.4 444L476.9 460.5L381.1 362Z" fill="#1b2a27" stroke="#1a574a"></path><path d="M476.9 460.5L497.1 523.5L560.8 503.5Z" fill="#000000" stroke="#1a574a"></path><path d="M338.4 211.5L326.4 292L364.2 263.5Z" fill="#6f817d" stroke="#1a574a"></path><path d="M629.6 125L497.9 120L592.8 237Z" fill="#001512" stroke="#1a574a"></path><path d="M482.1 183L449.1 124.5L404.2 173Z" fill="#3d4d4a" stroke="#1a574a"></path><path d="M709.6 268.5L690.5 188.5L592.8 237Z" fill="#3d4d4a" stroke="#1a574a"></path><path d="M329.4 341.5L348.4 444L381.1 362Z" fill="#101f1d" stroke="#1a574a"></path><path d="M497.9 120L449.1 124.5L482.1 183Z" fill="#556763" stroke="#1a574a"></path><path d="M560.8 503.5L644.6 510.5L638.8 437Z" fill="#263532" stroke="#1a574a"></path><path d="M772.5 433.5L771.5 384L656.6 398Z" fill="#101f1d" stroke="#1a574a"></path><path d="M611.6 540L644.6 510.5L560.8 503.5Z" fill="#001512" stroke="#1a574a"></path><path d="M497.1 523.5L572.9 540L560.8 503.5Z" fill="#000000" stroke="#1a574a"></path><path d="M302.4 101L338.4 211.5L404.2 173Z" fill="#001512" stroke="#1a574a"></path><path d="M404.2 173L338.4 211.5L424.1 249.5Z" fill="#556763" stroke="#1a574a"></path><path d="M690.5 188.5L638.8 130L592.8 237Z" fill="#3d4d4a" stroke="#1a574a"></path><path d="M638.8 130L629.6 125L592.8 237Z" fill="#000000" stroke="#1a574a"></path><path d="M572.9 540L611.6 540L560.8 503.5Z" fill="#000000" stroke="#1a574a"></path><path d="M611.6 540L637.8 540L644.6 510.5Z" fill="#3d4d4a" stroke="#1a574a"></path><path d="M772.5 433.5L656.6 398L638.8 437Z" fill="#001512" stroke="#1a574a"></path><path d="M326.4 292L286.5 343.5L329.4 341.5Z" fill="#627470" stroke="#1a574a"></path><path d="M277.5 422.5L315.4 452.5L348.4 444Z" fill="#495a56" stroke="#1a574a"></path><path d="M230.5 238L286.5 343.5L326.4 292Z" fill="#263532" stroke="#1a574a"></path><path d="M690.5 188.5L737.5 185L638.8 130Z" fill="#001512" stroke="#1a574a"></path><path d="M709.6 268.5L740.5 208L690.5 188.5Z" fill="#3d4d4a" stroke="#1a574a"></path><path d="M792.3 294L740.5 208L709.6 268.5Z" fill="#627470" stroke="#1a574a"></path><path d="M497.9 120L472.9 87.5L449.1 124.5Z" fill="#000000" stroke="#1a574a"></path><path d="M449.1 124.5L388.2 51.5L404.2 173Z" fill="#495a56" stroke="#1a574a"></path><path d="M526.8 0L472.9 87.5L497.9 120Z" fill="#000000" stroke="#1a574a"></path><path d="M277.5 422.5L348.4 444L329.4 341.5Z" fill="#263532" stroke="#1a574a"></path><path d="M348.4 444L395.2 540L476.9 460.5Z" fill="#101f1d" stroke="#1a574a"></path><path d="M772.5 433.5L638.8 437L644.6 510.5Z" fill="#3d4d4a" stroke="#1a574a"></path><path d="M707.5 327.5L792.3 294L709.6 268.5Z" fill="#627470" stroke="#1a574a"></path><path d="M392.1 540L395.2 540L348.4 444Z" fill="#1b2a27" stroke="#1a574a"></path><path d="M497.1 523.5L395.2 540L572.9 540Z" fill="#1b2a27" stroke="#1a574a"></path><path d="M303.2 483.5L392.1 540L348.4 444Z" fill="#31413e" stroke="#1a574a"></path><path d="M838.3 197L737.5 185L740.5 208Z" fill="#31413e" stroke="#1a574a"></path><path d="M740.5 208L737.5 185L690.5 188.5Z" fill="#3d4d4a" stroke="#1a574a"></path><path d="M771.5 384L792.3 294L707.5 327.5Z" fill="#1b2a27" stroke="#1a574a"></path><path d="M732.5 540L772.5 433.5L644.6 510.5Z" fill="#6f817d" stroke="#1a574a"></path><path d="M771.5 384L823.3 380L792.3 294Z" fill="#263532" stroke="#1a574a"></path><path d="M286.5 343.5L277.5 422.5L329.4 341.5Z" fill="#101f1d" stroke="#1a574a"></path><path d="M315.4 452.5L303.2 483.5L348.4 444Z" fill="#001512" stroke="#1a574a"></path><path d="M277.5 422.5L303.2 483.5L315.4 452.5Z" fill="#556763" stroke="#1a574a"></path><path d="M636.6 0L607.6 52.5L730.5 30.5Z" fill="#101f1d" stroke="#1a574a"></path><path d="M638.8 130L607.6 52.5L629.6 125Z" fill="#101f1d" stroke="#1a574a"></path><path d="M629.6 125L607.6 52.5L497.9 120Z" fill="#31413e" stroke="#1a574a"></path><path d="M732.5 540L799.3 439.5L772.5 433.5Z" fill="#6f817d" stroke="#1a574a"></path><path d="M772.5 433.5L799.3 439.5L771.5 384Z" fill="#1b2a27" stroke="#1a574a"></path><path d="M637.8 540L732.5 540L644.6 510.5Z" fill="#6f817d" stroke="#1a574a"></path><path d="M799.3 439.5L823.3 380L771.5 384Z" fill="#1b2a27" stroke="#1a574a"></path><path d="M472.9 87.5L388.2 51.5L449.1 124.5Z" fill="#000000" stroke="#1a574a"></path><path d="M338.4 211.5L230.5 238L326.4 292Z" fill="#000000" stroke="#1a574a"></path><path d="M508.1 0L388.2 51.5L472.9 87.5Z" fill="#6f817d" stroke="#1a574a"></path><path d="M221.5 149L230.5 238L338.4 211.5Z" fill="#000000" stroke="#1a574a"></path><path d="M286.5 343.5L166.7 404.5L277.5 422.5Z" fill="#001512" stroke="#1a574a"></path><path d="M636.6 0L594.8 16.5L607.6 52.5Z" fill="#3d4d4a" stroke="#1a574a"></path><path d="M607.6 52.5L526.8 0L497.9 120Z" fill="#6f817d" stroke="#1a574a"></path><path d="M886.2 416.5L834.2 411L799.3 439.5Z" fill="#000000" stroke="#1a574a"></path><path d="M799.3 439.5L834.2 411L823.3 380Z" fill="#3d4d4a" stroke="#1a574a"></path><path d="M388.2 51.5L302.4 101L404.2 173Z" fill="#001512" stroke="#1a574a"></path><path d="M594.8 16.5L526.8 0L607.6 52.5Z" fill="#1b2a27" stroke="#1a574a"></path><path d="M526.8 0L518.9 0L472.9 87.5Z" fill="#101f1d" stroke="#1a574a"></path><path d="M518.9 0L508.1 0L472.9 87.5Z" fill="#31413e" stroke="#1a574a"></path><path d="M193.5 540L279.4 540L303.2 483.5Z" fill="#101f1d" stroke="#1a574a"></path><path d="M303.2 483.5L279.4 540L392.1 540Z" fill="#263532" stroke="#1a574a"></path><path d="M176.5 446L303.2 483.5L277.5 422.5Z" fill="#101f1d" stroke="#1a574a"></path><path d="M197.7 141.5L204.5 253.5L230.5 238Z" fill="#627470" stroke="#1a574a"></path><path d="M230.5 238L204.5 253.5L286.5 343.5Z" fill="#6f817d" stroke="#1a574a"></path><path d="M864.3 243.5L838.3 197L792.3 294Z" fill="#1b2a27" stroke="#1a574a"></path><path d="M792.3 294L838.3 197L740.5 208Z" fill="#556763" stroke="#1a574a"></path><path d="M730.5 30.5L607.6 52.5L638.8 130Z" fill="#3d4d4a" stroke="#1a574a"></path><path d="M871.2 322L792.3 294L823.3 380Z" fill="#000000" stroke="#1a574a"></path><path d="M886.2 416.5L871.2 322L823.3 380Z" fill="#101f1d" stroke="#1a574a"></path><path d="M730.5 30.5L638.8 130L737.5 185Z" fill="#000000" stroke="#1a574a"></path><path d="M594.8 16.5L636.6 0L526.8 0Z" fill="#31413e" stroke="#1a574a"></path><path d="M871.2 322L864.3 243.5L792.3 294Z" fill="#001512" stroke="#1a574a"></path><path d="M886.2 416.5L874.3 321.5L871.2 322Z" fill="#3d4d4a" stroke="#1a574a"></path><path d="M874.3 321.5L864.3 243.5L871.2 322Z" fill="#495a56" stroke="#1a574a"></path><path d="M145.7 126.5L179.7 275L204.5 253.5Z" fill="#627470" stroke="#1a574a"></path><path d="M204.5 253.5L179.7 275L286.5 343.5Z" fill="#6f817d" stroke="#1a574a"></path><path d="M302.4 101L221.5 149L338.4 211.5Z" fill="#495a56" stroke="#1a574a"></path><path d="M274.5 0L259.5 87.5L302.4 101Z" fill="#495a56" stroke="#1a574a"></path><path d="M302.4 101L259.5 87.5L221.5 149Z" fill="#000000" stroke="#1a574a"></path><path d="M274.5 0L302.4 101L388.2 51.5Z" fill="#495a56" stroke="#1a574a"></path><path d="M830.3 85.5L730.5 30.5L737.5 185Z" fill="#495a56" stroke="#1a574a"></path><path d="M508.1 0L376.2 0L388.2 51.5Z" fill="#263532" stroke="#1a574a"></path><path d="M732.5 540L822.3 540L799.3 439.5Z" fill="#31413e" stroke="#1a574a"></path><path d="M834.2 411L886.2 416.5L823.3 380Z" fill="#263532" stroke="#1a574a"></path><path d="M137.8 330L166.7 404.5L286.5 343.5Z" fill="#3d4d4a" stroke="#1a574a"></path><path d="M822.3 540L886.2 416.5L799.3 439.5Z" fill="#556763" stroke="#1a574a"></path><path d="M166.7 404.5L176.5 446L277.5 422.5Z" fill="#1b2a27" stroke="#1a574a"></path><path d="M864.3 243.5L875.2 197L838.3 197Z" fill="#263532" stroke="#1a574a"></path><path d="M838.3 197L830.3 85.5L737.5 185Z" fill="#556763" stroke="#1a574a"></path><path d="M913.2 182.5L875.2 197L864.3 243.5Z" fill="#263532" stroke="#1a574a"></path><path d="M913.2 182.5L864.3 243.5L960 231Z" fill="#495a56" stroke="#1a574a"></path><path d="M229.4 87.5L197.7 141.5L221.5 149Z" fill="#3d4d4a" stroke="#1a574a"></path><path d="M221.5 149L197.7 141.5L230.5 238Z" fill="#1b2a27" stroke="#1a574a"></path><path d="M257.4 0L229.4 87.5L259.5 87.5Z" fill="#31413e" stroke="#1a574a"></path><path d="M259.5 87.5L229.4 87.5L221.5 149Z" fill="#3d4d4a" stroke="#1a574a"></path><path d="M875.2 197L830.3 85.5L838.3 197Z" fill="#31413e" stroke="#1a574a"></path><path d="M179.7 275L137.8 330L286.5 343.5Z" fill="#627470" stroke="#1a574a"></path><path d="M166.7 404.5L80.7 441.5L176.5 446Z" fill="#556763" stroke="#1a574a"></path><path d="M44.8 223.5L137.8 330L179.7 275Z" fill="#556763" stroke="#1a574a"></path><path d="M833.2 31.5L748.5 0L730.5 30.5Z" fill="#263532" stroke="#1a574a"></path><path d="M730.5 30.5L748.5 0L636.6 0Z" fill="#556763" stroke="#1a574a"></path><path d="M137.8 330L133.7 365L166.7 404.5Z" fill="#627470" stroke="#1a574a"></path><path d="M176.5 446L193.5 540L303.2 483.5Z" fill="#495a56" stroke="#1a574a"></path><path d="M128.7 540L193.5 540L176.5 446Z" fill="#1b2a27" stroke="#1a574a"></path><path d="M960 269.5L864.3 243.5L874.3 321.5Z" fill="#1b2a27" stroke="#1a574a"></path><path d="M875.2 197L913.2 182.5L830.3 85.5Z" fill="#627470" stroke="#1a574a"></path><path d="M139.8 114.5L145.7 126.5L197.7 141.5Z" fill="#263532" stroke="#1a574a"></path><path d="M376.2 0L274.5 0L388.2 51.5Z" fill="#101f1d" stroke="#1a574a"></path><path d="M960 365L943.2 344.5L886.2 416.5Z" fill="#101f1d" stroke="#1a574a"></path><path d="M886.2 416.5L943.2 344.5L874.3 321.5Z" fill="#6f817d" stroke="#1a574a"></path><path d="M274.5 0L257.4 0L259.5 87.5Z" fill="#6f817d" stroke="#1a574a"></path><path d="M866.3 0L833.2 31.5L881.2 0Z" fill="#556763" stroke="#1a574a"></path><path d="M830.3 85.5L833.2 31.5L730.5 30.5Z" fill="#556763" stroke="#1a574a"></path><path d="M139.8 114.5L197.7 141.5L229.4 87.5Z" fill="#556763" stroke="#1a574a"></path><path d="M197.7 141.5L145.7 126.5L204.5 253.5Z" fill="#000000" stroke="#1a574a"></path><path d="M18.8 428L80.7 441.5L0 402Z" fill="#3d4d4a" stroke="#1a574a"></path><path d="M822.3 540L905.2 540L886.2 416.5Z" fill="#101f1d" stroke="#1a574a"></path><path d="M960 500.5L960 365L886.2 416.5Z" fill="#263532" stroke="#1a574a"></path><path d="M943.2 344.5L960 269.5L874.3 321.5Z" fill="#3d4d4a" stroke="#1a574a"></path><path d="M960 365L960 269.5L943.2 344.5Z" fill="#001512" stroke="#1a574a"></path><path d="M913.2 182.5L960 161L830.3 85.5Z" fill="#6f817d" stroke="#1a574a"></path><path d="M170.7 0L139.8 114.5L229.4 87.5Z" fill="#495a56" stroke="#1a574a"></path><path d="M145.7 126.5L44.8 223.5L179.7 275Z" fill="#627470" stroke="#1a574a"></path><path d="M960 269.5L960 231L864.3 243.5Z" fill="#001512" stroke="#1a574a"></path><path d="M80.7 441.5L128.7 540L176.5 446Z" fill="#1b2a27" stroke="#1a574a"></path><path d="M80.7 441.5L166.7 404.5L133.7 365Z" fill="#495a56" stroke="#1a574a"></path><path d="M960 231L960 176.5L913.2 182.5Z" fill="#556763" stroke="#1a574a"></path><path d="M29.8 284.5L133.7 365L137.8 330Z" fill="#001512" stroke="#1a574a"></path><path d="M960 176.5L960 161L913.2 182.5Z" fill="#1b2a27" stroke="#1a574a"></path><path d="M74.8 513.5L113.8 540L128.7 540Z" fill="#101f1d" stroke="#1a574a"></path><path d="M905.2 540L960 500.5L886.2 416.5Z" fill="#3d4d4a" stroke="#1a574a"></path><path d="M881.2 0L833.2 31.5L830.3 85.5Z" fill="#627470" stroke="#1a574a"></path><path d="M833.2 31.5L866.3 0L748.5 0Z" fill="#31413e" stroke="#1a574a"></path><path d="M960 28.5L881.2 0L830.3 85.5Z" fill="#556763" stroke="#1a574a"></path><path d="M0 81.5L84.7 136L45.8 0Z" fill="#263532" stroke="#1a574a"></path><path d="M139.8 114.5L84.7 136L145.7 126.5Z" fill="#3d4d4a" stroke="#1a574a"></path><path d="M905.2 540L960 540L960 500.5Z" fill="#495a56" stroke="#1a574a"></path><path d="M257.4 0L170.7 0L229.4 87.5Z" fill="#627470" stroke="#1a574a"></path><path d="M18.8 428L74.8 513.5L80.7 441.5Z" fill="#263532" stroke="#1a574a"></path><path d="M80.7 441.5L74.8 513.5L128.7 540Z" fill="#001512" stroke="#1a574a"></path><path d="M84.7 136L44.8 223.5L145.7 126.5Z" fill="#263532" stroke="#1a574a"></path><path d="M44.8 223.5L29.8 284.5L137.8 330Z" fill="#6f817d" stroke="#1a574a"></path><path d="M84.7 136L45.8 160L44.8 223.5Z" fill="#001512" stroke="#1a574a"></path><path d="M44.8 223.5L0 287.5L29.8 284.5Z" fill="#1b2a27" stroke="#1a574a"></path><path d="M0 153.5L45.8 160L0 119Z" fill="#6f817d" stroke="#1a574a"></path><path d="M0 402L80.7 441.5L133.7 365Z" fill="#263532" stroke="#1a574a"></path><path d="M960 161L960 28.5L830.3 85.5Z" fill="#001512" stroke="#1a574a"></path><path d="M0 207L0 287.5L44.8 223.5Z" fill="#101f1d" stroke="#1a574a"></path><path d="M29.8 284.5L0 402L133.7 365Z" fill="#1b2a27" stroke="#1a574a"></path><path d="M0 287.5L0 402L29.8 284.5Z" fill="#101f1d" stroke="#1a574a"></path><path d="M18.8 428L0 511.5L74.8 513.5Z" fill="#263532" stroke="#1a574a"></path><path d="M45.8 160L0 207L44.8 223.5Z" fill="#101f1d" stroke="#1a574a"></path><path d="M0 153.5L0 207L45.8 160Z" fill="#6f817d" stroke="#1a574a"></path><path d="M960 28.5L960 0L881.2 0Z" fill="#627470" stroke="#1a574a"></path><path d="M0 119L45.8 160L84.7 136Z" fill="#1b2a27" stroke="#1a574a"></path><path d="M0 402L0 511.5L18.8 428Z" fill="#495a56" stroke="#1a574a"></path><path d="M74.8 513.5L0 540L113.8 540Z" fill="#31413e" stroke="#1a574a"></path><path d="M0 81.5L0 119L84.7 136Z" fill="#31413e" stroke="#1a574a"></path><path d="M0 511.5L0 540L74.8 513.5Z" fill="#556763" stroke="#1a574a"></path><path d="M45.8 0L84.7 136L139.8 114.5Z" fill="#3d4d4a" stroke="#1a574a"></path><path d="M170.7 0L45.8 0L139.8 114.5Z" fill="#101f1d" stroke="#1a574a"></path><path d="M45.8 0L0 0L0 81.5Z" fill="#627470" stroke="#1a574a"></path></g></svg>