<svg id="visual" viewBox="0 0 960 540" width="960" height="540" xmlns="http://www.w3.org/2000/svg" xmlns:xlink="http://www.w3.org/1999/xlink" version="1.1"><path d="M0 71L87 71L87 71L175 71L175 71L262 71L262 44L349 44L349 71L436 71L436 66L524 66L524 93L611 93L611 50L698 50L698 87L785 87L785 109L873 109L873 93L960 93L960 98L960 0L960 0L873 0L873 0L785 0L785 0L698 0L698 0L611 0L611 0L524 0L524 0L436 0L436 0L349 0L349 0L262 0L262 0L175 0L175 0L87 0L87 0L0 0Z" fill="#5aa6bb"></path><path d="M0 179L87 179L87 222L175 222L175 325L262 325L262 217L349 217L349 201L436 201L436 163L524 163L524 282L611 282L611 168L698 168L698 201L785 201L785 179L873 179L873 260L960 260L960 249L960 96L960 91L873 91L873 107L785 107L785 85L698 85L698 48L611 48L611 91L524 91L524 64L436 64L436 69L349 69L349 42L262 42L262 69L175 69L175 69L87 69L87 69L0 69Z" fill="#426170"></path><path d="M0 303L87 303L87 341L175 341L175 395L262 395L262 330L349 330L349 341L436 341L436 228L524 228L524 422L611 422L611 233L698 233L698 309L785 309L785 282L873 282L873 406L960 406L960 374L960 247L960 258L873 258L873 177L785 177L785 199L698 199L698 166L611 166L611 280L524 280L524 161L436 161L436 199L349 199L349 215L262 215L262 323L175 323L175 220L87 220L87 177L0 177Z" fill="#303c44"></path><path d="M0 476L87 476L87 471L175 471L175 503L262 503L262 498L349 498L349 498L436 498L436 492L524 492L524 492L611 492L611 498L698 498L698 503L785 503L785 460L873 460L873 503L960 503L960 471L960 372L960 404L873 404L873 280L785 280L785 307L698 307L698 231L611 231L611 420L524 420L524 226L436 226L436 339L349 339L349 328L262 328L262 393L175 393L175 339L87 339L87 301L0 301Z" fill="#426170"></path><path d="M0 541L87 541L87 541L175 541L175 541L262 541L262 541L349 541L349 541L436 541L436 541L524 541L524 541L611 541L611 541L698 541L698 541L785 541L785 541L873 541L873 541L960 541L960 541L960 469L960 501L873 501L873 458L785 458L785 501L698 501L698 496L611 496L611 490L524 490L524 490L436 490L436 496L349 496L349 496L262 496L262 501L175 501L175 469L87 469L87 474L0 474Z" fill="#5aa6bb"></path></svg>