<svg id="visual" viewBox="0 0 960 540" width="960" height="540" xmlns="http://www.w3.org/2000/svg" xmlns:xlink="http://www.w3.org/1999/xlink" version="1.1"><rect x="0" y="0" width="960" height="540" fill="#233326"></rect><defs><linearGradient id="grad1_0" x1="43.8%" y1="0%" x2="100%" y2="100%"><stop offset="14.444444444444446%" stop-color="#b49bb6" stop-opacity="1"></stop><stop offset="85.55555555555554%" stop-color="#b49bb6" stop-opacity="1"></stop></linearGradient></defs><defs><linearGradient id="grad1_1" x1="43.8%" y1="0%" x2="100%" y2="100%"><stop offset="14.444444444444446%" stop-color="#b49bb6" stop-opacity="1"></stop><stop offset="85.55555555555554%" stop-color="#928dab" stop-opacity="1"></stop></linearGradient></defs><defs><linearGradient id="grad1_2" x1="43.8%" y1="0%" x2="100%" y2="100%"><stop offset="14.444444444444446%" stop-color="#72809b" stop-opacity="1"></stop><stop offset="85.55555555555554%" stop-color="#928dab" stop-opacity="1"></stop></linearGradient></defs><defs><linearGradient id="grad1_3" x1="43.8%" y1="0%" x2="100%" y2="100%"><stop offset="14.444444444444446%" stop-color="#72809b" stop-opacity="1"></stop><stop offset="85.55555555555554%" stop-color="#557285" stop-opacity="1"></stop></linearGradient></defs><defs><linearGradient id="grad1_4" x1="43.8%" y1="0%" x2="100%" y2="100%"><stop offset="14.444444444444446%" stop-color="#3e636d" stop-opacity="1"></stop><stop offset="85.55555555555554%" stop-color="#557285" stop-opacity="1"></stop></linearGradient></defs><defs><linearGradient id="grad1_5" x1="43.8%" y1="0%" x2="100%" y2="100%"><stop offset="14.444444444444446%" stop-color="#3e636d" stop-opacity="1"></stop><stop offset="85.55555555555554%" stop-color="#305454" stop-opacity="1"></stop></linearGradient></defs><defs><linearGradient id="grad1_6" x1="43.8%" y1="0%" x2="100%" y2="100%"><stop offset="14.444444444444446%" stop-color="#28433c" stop-opacity="1"></stop><stop offset="85.55555555555554%" stop-color="#305454" stop-opacity="1"></stop></linearGradient></defs><defs><linearGradient id="grad1_7" x1="43.8%" y1="0%" x2="100%" y2="100%"><stop offset="14.444444444444446%" stop-color="#28433c" stop-opacity="1"></stop><stop offset="85.55555555555554%" stop-color="#233326" stop-opacity="1"></stop></linearGradient></defs><defs><linearGradient id="grad2_0" x1="0%" y1="0%" x2="56.3%" y2="100%"><stop offset="14.444444444444446%" stop-color="#b49bb6" stop-opacity="1"></stop><stop offset="85.55555555555554%" stop-color="#b49bb6" stop-opacity="1"></stop></linearGradient></defs><defs><linearGradient id="grad2_1" x1="0%" y1="0%" x2="56.3%" y2="100%"><stop offset="14.444444444444446%" stop-color="#928dab" stop-opacity="1"></stop><stop offset="85.55555555555554%" stop-color="#b49bb6" stop-opacity="1"></stop></linearGradient></defs><defs><linearGradient id="grad2_2" x1="0%" y1="0%" x2="56.3%" y2="100%"><stop offset="14.444444444444446%" stop-color="#928dab" stop-opacity="1"></stop><stop offset="85.55555555555554%" stop-color="#72809b" stop-opacity="1"></stop></linearGradient></defs><defs><linearGradient id="grad2_3" x1="0%" y1="0%" x2="56.3%" y2="100%"><stop offset="14.444444444444446%" stop-color="#557285" stop-opacity="1"></stop><stop offset="85.55555555555554%" stop-color="#72809b" stop-opacity="1"></stop></linearGradient></defs><defs><linearGradient id="grad2_4" x1="0%" y1="0%" x2="56.3%" y2="100%"><stop offset="14.444444444444446%" stop-color="#557285" stop-opacity="1"></stop><stop offset="85.55555555555554%" stop-color="#3e636d" stop-opacity="1"></stop></linearGradient></defs><defs><linearGradient id="grad2_5" x1="0%" y1="0%" x2="56.3%" y2="100%"><stop offset="14.444444444444446%" stop-color="#305454" stop-opacity="1"></stop><stop offset="85.55555555555554%" stop-color="#3e636d" stop-opacity="1"></stop></linearGradient></defs><defs><linearGradient id="grad2_6" x1="0%" y1="0%" x2="56.3%" y2="100%"><stop offset="14.444444444444446%" stop-color="#305454" stop-opacity="1"></stop><stop offset="85.55555555555554%" stop-color="#28433c" stop-opacity="1"></stop></linearGradient></defs><defs><linearGradient id="grad2_7" x1="0%" y1="0%" x2="56.3%" y2="100%"><stop offset="14.444444444444446%" stop-color="#233326" stop-opacity="1"></stop><stop offset="85.55555555555554%" stop-color="#28433c" stop-opacity="1"></stop></linearGradient></defs><g transform="translate(960, 0)"><path d="M0 486C-45.7 488.1 -91.4 490.2 -125.8 469.4C-160.1 448.7 -183.1 405 -221 382.8C-258.9 360.6 -311.7 359.9 -328.1 328.1C-344.5 296.3 -324.5 233.3 -337.7 195C-351 156.7 -397.6 143 -427.9 114.7C-458.2 86.3 -472.1 43.1 -486 0L0 0Z" fill="#263b30"></path><path d="M0 425.3C-40 427.1 -80 428.9 -110.1 410.8C-140.1 392.6 -160.2 354.3 -193.4 334.9C-226.5 315.5 -272.7 314.9 -287.1 287.1C-301.4 259.2 -283.9 204.1 -295.5 170.6C-307.2 137.1 -347.9 125.2 -374.4 100.3C-400.9 75.5 -413.1 37.7 -425.2 0L0 0Z" fill="#2c4c47"></path><path d="M0 364.5C-34.3 366.1 -68.6 367.7 -94.3 352.1C-120.1 336.5 -137.3 303.7 -165.7 287.1C-194.2 270.5 -233.8 269.9 -246.1 246.1C-258.4 222.2 -243.3 175 -253.3 146.3C-263.3 117.5 -298.2 107.3 -320.9 86C-343.6 64.7 -354.1 32.4 -364.5 0L0 0Z" fill="#365c61"></path><path d="M0 303.8C-28.6 305.1 -57.1 306.4 -78.6 293.4C-100.1 280.4 -114.4 253.1 -138.1 239.2C-161.8 225.4 -194.8 225 -205.1 205.1C-215.3 185.2 -202.8 145.8 -211.1 121.9C-219.4 97.9 -248.5 89.4 -267.4 71.7C-286.4 53.9 -295.1 27 -303.7 0L0 0Z" fill="#486b7a"></path><path d="M0 243C-22.9 244.1 -45.7 245.1 -62.9 234.7C-80.1 224.3 -91.6 202.5 -110.5 191.4C-129.4 180.3 -155.9 180 -164 164C-172.2 148.1 -162.2 116.7 -168.9 97.5C-175.5 78.3 -198.8 71.5 -214 57.3C-229.1 43.1 -236 21.6 -243 0L0 0Z" fill="#627991"></path><path d="M0 182.3C-17.1 183 -34.3 183.8 -47.2 176C-60 168.2 -68.7 151.9 -82.9 143.5C-97.1 135.2 -116.9 135 -123 123C-129.2 111.1 -121.7 87.5 -126.7 73.1C-131.6 58.8 -149.1 53.6 -160.5 43C-171.8 32.4 -177 16.2 -182.2 0L0 0Z" fill="#8287a3"></path><path d="M0 121.5C-11.4 122 -22.9 122.6 -31.4 117.4C-40 112.2 -45.8 101.2 -55.2 95.7C-64.7 90.2 -77.9 90 -82 82C-86.1 74.1 -81.1 58.3 -84.4 48.8C-87.8 39.2 -99.4 35.8 -107 28.7C-114.5 21.6 -118 10.8 -121.5 0L0 0Z" fill="#a394b1"></path><path d="M0 60.8C-5.7 61 -11.4 61.3 -15.7 58.7C-20 56.1 -22.9 50.6 -27.6 47.8C-32.4 45.1 -39 45 -41 41C-43.1 37 -40.6 29.2 -42.2 24.4C-43.9 19.6 -49.7 17.9 -53.5 14.3C-57.3 10.8 -59 5.4 -60.7 0L0 0Z" fill="#b49bb6"></path></g><g transform="translate(0, 540)"><path d="M0 -486C44.3 -486.2 88.6 -486.5 125.8 -469.4C163 -452.4 193.2 -418 228 -394.9C262.8 -371.8 302.3 -359.9 334.5 -334.5C366.6 -309.1 391.4 -270.1 397.5 -229.5C403.6 -188.9 391.1 -146.5 402.8 -107.9C414.4 -69.4 450.2 -34.7 486 0L0 0Z" fill="#263b30"></path><path d="M0 -425.2C38.7 -425.5 77.5 -425.7 110.1 -410.8C142.6 -395.8 169 -365.8 199.5 -345.5C230 -325.3 264.5 -314.9 292.7 -292.7C320.8 -270.4 342.4 -236.4 347.8 -200.8C353.2 -165.2 342.3 -128.2 352.4 -94.4C362.6 -60.7 393.9 -30.4 425.3 0L0 0Z" fill="#2c4c47"></path><path d="M0 -364.5C33.2 -364.7 66.4 -364.9 94.3 -352.1C122.3 -339.3 144.9 -313.5 171 -296.2C197.1 -278.8 226.7 -269.9 250.8 -250.8C274.9 -231.8 293.5 -202.6 298.1 -172.1C302.7 -141.6 293.4 -109.9 302.1 -80.9C310.8 -52 337.7 -26 364.5 0L0 0Z" fill="#365c61"></path><path d="M0 -303.7C27.7 -303.9 55.4 -304.1 78.6 -293.4C101.9 -282.7 120.7 -261.3 142.5 -246.8C164.3 -232.4 189 -224.9 209 -209C229.1 -193.2 244.6 -168.8 248.4 -143.4C252.3 -118 244.5 -91.5 251.7 -67.5C259 -43.4 281.4 -21.7 303.8 0L0 0Z" fill="#486b7a"></path><path d="M0 -243C22.1 -243.1 44.3 -243.2 62.9 -234.7C81.5 -226.2 96.6 -209 114 -197.5C131.4 -185.9 151.2 -179.9 167.2 -167.2C183.3 -154.5 195.7 -135.1 198.8 -114.8C201.8 -94.4 195.6 -73.2 201.4 -54C207.2 -34.7 225.1 -17.3 243 0L0 0Z" fill="#627991"></path><path d="M0 -182.2C16.6 -182.3 33.2 -182.4 47.2 -176C61.1 -169.6 72.4 -156.8 85.5 -148.1C98.6 -139.4 113.4 -135 125.4 -125.4C137.5 -115.9 146.8 -101.3 149.1 -86.1C151.4 -70.8 146.7 -54.9 151 -40.5C155.4 -26 168.8 -13 182.3 0L0 0Z" fill="#8287a3"></path><path d="M0 -121.5C11.1 -121.6 22.1 -121.6 31.4 -117.4C40.8 -113.1 48.3 -104.5 57 -98.7C65.7 -92.9 75.6 -90 83.6 -83.6C91.6 -77.3 97.8 -67.5 99.4 -57.4C100.9 -47.2 97.8 -36.6 100.7 -27C103.6 -17.3 112.6 -8.7 121.5 0L0 0Z" fill="#a394b1"></path><path d="M0 -60.7C5.5 -60.8 11.1 -60.8 15.7 -58.7C20.4 -56.5 24.1 -52.3 28.5 -49.4C32.9 -46.5 37.8 -45 41.8 -41.8C45.8 -38.6 48.9 -33.8 49.7 -28.7C50.5 -23.6 48.9 -18.3 50.3 -13.5C51.8 -8.7 56.3 -4.3 60.8 0L0 0Z" fill="#b49bb6"></path></g></svg>