<svg id="visual" viewBox="0 0 960 540" width="960" height="540" xmlns="http://www.w3.org/2000/svg" xmlns:xlink="http://www.w3.org/1999/xlink" version="1.1"><rect x="0" y="0" width="960" height="540" fill="#e6e6e6"></rect><g transform="translate(506.95112701868925 290.754192483152)"><path d="M148.8 -204.5C185.6 -178.1 203.1 -124.9 223.8 -70.5C244.4 -16.2 268.2 39.3 248 74.1C227.7 108.8 163.5 122.6 114.8 141.5C66.1 160.4 33.1 184.2 -0.4 184.7C-33.9 185.3 -67.8 162.6 -121.3 145.4C-174.8 128.1 -247.9 116.2 -283.6 75.8C-319.2 35.3 -317.5 -33.6 -282.8 -76.9C-248.1 -120.2 -180.5 -137.8 -127.9 -159C-75.2 -180.2 -37.6 -205.1 9.2 -217.8C56 -230.5 112.1 -230.9 148.8 -204.5" fill="#191919"></path></g></svg>