<svg id="visual" viewBox="0 0 960 540" width="960" height="540" xmlns="http://www.w3.org/2000/svg" xmlns:xlink="http://www.w3.org/1999/xlink" version="1.1"><rect x="0" y="0" width="960" height="540" fill="#e6e6e6"></rect><path d="M0 448L13.3 442.8C26.7 437.7 53.3 427.3 80 421.8C106.7 416.3 133.3 415.7 160 402.2C186.7 388.7 213.3 362.3 240 368.7C266.7 375 293.3 414 320 437.3C346.7 460.7 373.3 468.3 400 461C426.7 453.7 453.3 431.3 480 430.8C506.7 430.3 533.3 451.7 560 444.8C586.7 438 613.3 403 640 394.8C666.7 386.7 693.3 405.3 720 421.5C746.7 437.7 773.3 451.3 800 446.5C826.7 441.7 853.3 418.3 880 407C906.7 395.7 933.3 396.3 946.7 396.7L960 397L960 541L946.7 541C933.3 541 906.7 541 880 541C853.3 541 826.7 541 800 541C773.3 541 746.7 541 720 541C693.3 541 666.7 541 640 541C613.3 541 586.7 541 560 541C533.3 541 506.7 541 480 541C453.3 541 426.7 541 400 541C373.3 541 346.7 541 320 541C293.3 541 266.7 541 240 541C213.3 541 186.7 541 160 541C133.3 541 106.7 541 80 541C53.3 541 26.7 541 13.3 541L0 541Z" fill="#B49BB6" stroke-linecap="round" stroke-linejoin="miter"></path></svg>