<?xml version="1.0" standalone="no"?><svg xmlns="http://www.w3.org/2000/svg" viewBox="0 0 1440 320"><path fill="#9DB69B" fill-opacity="1" d="M0,0L9.2,21.3C18.5,43,37,85,55,117.3C73.8,149,92,171,111,186.7C129.2,203,148,213,166,224C184.6,235,203,245,222,256C240,267,258,277,277,261.3C295.4,245,314,203,332,197.3C350.8,192,369,224,388,224C406.2,224,425,192,443,176C461.5,160,480,160,498,170.7C516.9,181,535,203,554,197.3C572.3,192,591,160,609,144C627.7,128,646,128,665,149.3C683.1,171,702,213,720,234.7C738.5,256,757,256,775,218.7C793.8,181,812,107,831,112C849.2,117,868,203,886,234.7C904.6,267,923,245,942,245.3C960,245,978,267,997,245.3C1015.4,224,1034,160,1052,149.3C1070.8,139,1089,181,1108,176C1126.2,171,1145,117,1163,96C1181.5,75,1200,85,1218,106.7C1236.9,128,1255,160,1274,186.7C1292.3,213,1311,235,1329,213.3C1347.7,192,1366,128,1385,117.3C1403.1,107,1422,149,1431,170.7L1440,192L1440,320L1430.8,320C1421.5,320,1403,320,1385,320C1366.2,320,1348,320,1329,320C1310.8,320,1292,320,1274,320C1255.4,320,1237,320,1218,320C1200,320,1182,320,1163,320C1144.6,320,1126,320,1108,320C1089.2,320,1071,320,1052,320C1033.8,320,1015,320,997,320C978.5,320,960,320,942,320C923.1,320,905,320,886,320C867.7,320,849,320,831,320C812.3,320,794,320,775,320C756.9,320,738,320,720,320C701.5,320,683,320,665,320C646.2,320,628,320,609,320C590.8,320,572,320,554,320C535.4,320,517,320,498,320C480,320,462,320,443,320C424.6,320,406,320,388,320C369.2,320,351,320,332,320C313.8,320,295,320,277,320C258.5,320,240,320,222,320C203.1,320,185,320,166,320C147.7,320,129,320,111,320C92.3,320,74,320,55,320C36.9,320,18,320,9,320L0,320Z"></path></svg>