<svg id="visual" viewBox="0 0 900 600" width="900" height="600" xmlns="http://www.w3.org/2000/svg" xmlns:xlink="http://www.w3.org/1999/xlink" version="1.1"><rect x="0" y="0" width="900" height="600" fill="#e6e6e6"></rect><path d="M0 385L129 397L257 438L386 363L514 389L643 427L771 394L900 400L900 601L771 601L643 601L514 601L386 601L257 601L129 601L0 601Z" fill="#ffffff"></path><path d="M0 473L129 406L257 453L386 474L514 438L643 477L771 407L900 444L900 601L771 601L643 601L514 601L386 601L257 601L129 601L0 601Z" fill="#a4c5ec"></path><path d="M0 506L129 500L257 456L386 458L514 452L643 460L771 486L900 469L900 601L771 601L643 601L514 601L386 601L257 601L129 601L0 601Z" fill="#65a4e0"></path><path d="M0 539L129 486L257 496L386 537L514 503L643 489L771 509L900 541L900 601L771 601L643 601L514 601L386 601L257 601L129 601L0 601Z" fill="#a4c5ec"></path><path d="M0 543L129 554L257 556L386 534L514 565L643 540L771 543L900 531L900 601L771 601L643 601L514 601L386 601L257 601L129 601L0 601Z" fill="#ffffff"></path></svg>