<svg id="visual" viewBox="0 0 960 540" width="960" height="540" xmlns="http://www.w3.org/2000/svg" xmlns:xlink="http://www.w3.org/1999/xlink" version="1.1"><rect x="0" y="0" width="960" height="540" fill="#e6e6e6"></rect><path d="M0 110L137 88L274 133L411 124L549 94L686 93L823 95L960 86L960 0L823 0L686 0L549 0L411 0L274 0L137 0L0 0Z" fill="#6e936c"></path><path d="M0 78L137 102L274 107L411 80L549 78L686 102L823 98L960 78L960 0L823 0L686 0L549 0L411 0L274 0L137 0L0 0Z" fill="#85a483"></path><path d="M0 85L137 97L274 97L411 64L549 96L686 98L823 86L960 64L960 0L823 0L686 0L549 0L411 0L274 0L137 0L0 0Z" fill="#9db69b"></path><path d="M0 66L137 64L274 59L411 60L549 71L686 73L823 67L960 59L960 0L823 0L686 0L549 0L411 0L274 0L137 0L0 0Z" fill="#b5c8b3"></path><path d="M0 45L137 49L274 60L411 47L549 41L686 49L823 38L960 64L960 0L823 0L686 0L549 0L411 0L274 0L137 0L0 0Z" fill="#cddacc"></path><path d="M0 24L137 40L274 29L411 34L549 37L686 43L823 27L960 39L960 0L823 0L686 0L549 0L411 0L274 0L137 0L0 0Z" fill="#e6ece5"></path><path d="M0 23L137 18L274 15L411 25L549 29L686 19L823 28L960 13L960 0L823 0L686 0L549 0L411 0L274 0L137 0L0 0Z" fill="#ffffff"></path></svg>