<?xml version="1.0" encoding="utf-8"?>
<svg viewBox="144.6 264.785 969.266 543.533" xmlns="http://www.w3.org/2000/svg">
  <rect y="264.785" width="968.77" height="543.297" fill="#e6e6e6" x="144.6"/>
  <path fill="#9DB69B" fill-opacity="1" d="M 144.607 665.06 L 158.069 671.048 C 171.53 676.811 198.454 689.123 225.378 706.862 C 252.302 724.938 279.226 748.441 306.149 760.585 C 333.074 772.504 359.998 772.504 386.922 760.585 C 413.844 748.441 440.769 724.938 467.693 730.701 C 494.617 736.689 521.541 772.504 548.464 775.47 C 575.39 778.658 602.312 748.441 629.236 742.676 C 656.16 736.689 683.084 754.595 710.008 766.516 C 736.932 778.658 763.856 784.255 790.778 784.423 C 817.704 784.255 844.627 778.658 871.551 772.504 C 898.474 766.349 925.398 760.752 952.323 763.551 C 979.246 766.349 1006.17 778.658 1033.093 784.423 C 1060.019 790.412 1086.941 790.412 1100.404 790.412 L 1113.866 790.412 L 1113.866 808.318 L 1100.404 808.318 C 1086.941 808.318 1060.019 808.318 1033.093 808.318 C 1006.17 808.318 979.246 808.318 952.323 808.318 C 925.398 808.318 898.474 808.318 871.551 808.318 C 844.627 808.318 817.704 808.318 790.778 808.318 C 763.856 808.318 736.932 808.318 710.008 808.318 C 683.084 808.318 656.16 808.318 629.236 808.318 C 602.312 808.318 575.39 808.318 548.464 808.318 C 521.541 808.318 494.617 808.318 467.693 808.318 C 440.769 808.318 413.844 808.318 386.922 808.318 C 359.998 808.318 333.074 808.318 306.149 808.318 C 279.226 808.318 252.302 808.318 225.378 808.318 C 198.454 808.318 171.53 808.318 158.069 808.318 L 144.607 808.318 L 144.607 665.06 Z" style=""/>
  <path fill="#9DB69B" fill-opacity="1" d="M 144.607 346.797 L 153.088 350.192 C 161.636 353.844 178.935 360.252 195.762 350.192 C 212.657 339.749 229.417 312.839 246.918 322.898 C 263.611 333.342 280.573 380.754 297.4 404.91 C 314.631 428.808 331.728 428.808 348.555 415.161 C 365.652 401.258 382.883 374.347 399.711 370.695 C 416.673 367.299 433.365 387.802 450.866 398.054 C 467.693 408.306 484.521 408.306 502.021 411.701 C 518.714 415.353 535.676 421.76 552.504 404.91 C 569.735 387.802 586.832 346.797 603.659 353.652 C 620.756 360.252 637.987 415.353 654.814 425.413 C 671.776 435.856 688.469 401.258 705.97 391.198 C 722.73 380.754 739.624 394.851 756.452 391.198 C 773.75 387.802 790.78 367.299 807.607 377.551 C 824.771 387.802 841.935 428.808 858.763 418.556 C 875.792 408.306 893.091 346.797 909.918 329.69 C 926.813 312.839 943.573 339.749 961.073 363.904 C 977.833 387.802 994.728 408.306 1011.556 401.449 C 1028.854 394.851 1045.883 360.252 1062.711 339.941 C 1079.875 319.246 1097.039 312.839 1105.116 309.187 L 1113.866 305.791 L 1113.866 264.785 L 1105.385 264.785 C 1096.837 264.785 1079.538 264.785 1062.711 264.785 C 1045.816 264.785 1029.056 264.785 1011.556 264.785 C 994.863 264.785 977.901 264.785 961.073 264.785 C 943.842 264.785 926.745 264.785 909.918 264.785 C 892.821 264.785 875.59 264.785 858.763 264.785 C 841.801 264.785 825.108 264.785 807.607 264.785 C 790.78 264.785 773.952 264.785 756.452 264.785 C 739.759 264.785 722.797 264.785 705.97 264.785 C 688.738 264.785 671.642 264.785 654.814 264.785 C 637.718 264.785 620.486 264.785 603.659 264.785 C 586.697 264.785 570.004 264.785 552.504 264.785 C 535.743 264.785 518.849 264.785 502.021 264.785 C 484.723 264.785 467.693 264.785 450.866 264.785 C 433.702 264.785 416.538 264.785 399.711 264.785 C 382.681 264.785 365.383 264.785 348.555 264.785 C 331.661 264.785 314.9 264.785 297.4 264.785 C 280.64 264.785 263.745 264.785 246.918 264.785 C 229.619 264.785 212.59 264.785 195.762 264.785 C 178.598 264.785 161.434 264.785 153.357 264.785 L 144.607 264.785 L 144.607 346.797 Z" style=""/>
</svg>