<?xml version="1.0" encoding="utf-8"?>
<svg viewBox="0 -39.817 969.266 539.817" xmlns="http://www.w3.org/2000/svg">
  <rect y="-43.114" width="968.77" height="543.297" fill="#e6e6e6"/>
  <path fill="#9DB69B" fill-opacity="1" d="M 0.007 357.161 L 13.469 363.149 C 26.93 368.912 53.854 381.224 80.778 398.963 C 107.702 417.039 134.626 440.542 161.549 452.686 C 188.474 464.605 215.398 464.605 242.322 452.686 C 269.244 440.542 296.169 417.039 323.093 422.802 C 350.017 428.79 376.941 464.605 403.864 467.571 C 430.79 470.759 457.712 440.542 484.636 434.777 C 511.56 428.79 538.484 446.696 565.408 458.617 C 592.332 470.759 619.256 476.356 646.178 476.524 C 673.104 476.356 700.027 470.759 726.951 464.605 C 753.874 458.45 780.798 452.853 807.723 455.652 C 834.646 458.45 861.57 470.759 888.493 476.524 C 915.419 482.513 942.341 482.513 955.804 482.513 L 969.266 482.513 L 969.266 500.419 L 955.804 500.419 C 942.341 500.419 915.419 500.419 888.493 500.419 C 861.57 500.419 834.646 500.419 807.723 500.419 C 780.798 500.419 753.874 500.419 726.951 500.419 C 700.027 500.419 673.104 500.419 646.178 500.419 C 619.256 500.419 592.332 500.419 565.408 500.419 C 538.484 500.419 511.56 500.419 484.636 500.419 C 457.712 500.419 430.79 500.419 403.864 500.419 C 376.941 500.419 350.017 500.419 323.093 500.419 C 296.169 500.419 269.244 500.419 242.322 500.419 C 215.398 500.419 188.474 500.419 161.549 500.419 C 134.626 500.419 107.702 500.419 80.778 500.419 C 53.854 500.419 26.93 500.419 13.469 500.419 L 0.007 500.419 L 0.007 357.161 Z" style=""/>
  <path fill="#9DB69B" fill-opacity="1" d="M 0.007 -18.767 L 23.094 -12.68 C 46.181 -6.593 92.221 5.581 138.665 5.581 C 184.637 5.581 230.879 -6.593 276.65 1.51 C 323.093 9.766 369.537 37.918 415.308 50.206 C 461.549 62.265 507.522 58.461 553.966 50.206 C 600.005 42.102 646.18 29.929 692.623 21.825 C 738.461 13.57 784.838 9.766 830.608 9.651 C 876.985 9.766 922.823 13.57 946.381 15.738 L 969.266 17.755 L 969.266 -43.114 L 946.179 -43.114 C 923.092 -43.114 877.052 -43.114 830.608 -43.114 C 784.636 -43.114 738.394 -43.114 692.623 -43.114 C 646.18 -43.114 599.736 -43.114 553.966 -43.114 C 507.724 -43.114 461.751 -43.114 415.308 -43.114 C 369.268 -43.114 323.093 -43.114 276.65 -43.114 C 230.812 -43.114 184.435 -43.114 138.665 -43.114 C 92.289 -43.114 46.451 -43.114 22.892 -43.114 L 0.007 -43.114 L 0.007 -18.767 Z" style=""/>
</svg>