<?xml version="1.0"?>
<svg xmlns:rdf="http://www.w3.org/1999/02/22-rdf-syntax-ns#" xmlns="http://www.w3.org/2000/svg" xmlns:cc="http://creativecommons.org/ns#" xmlns:dc="http://purl.org/dc/elements/1.1/" xmlns:svg="http://www.w3.org/2000/svg" id="svg2" viewBox="0 0 599.3 444.55" version="1.1">
  <defs id="defs4">
    <filter id="filter3941" height="2.0712" width="1.5293" y="-.53558" x="-.26467" color-interpolation-filters="sRGB">
      <feGaussianBlur id="feGaussianBlur3943" stdDeviation="37.993704"/>
    </filter>
  </defs>
  <g id="layer1" transform="translate(-95.653 -192.76)">
    <path id="path3052" d="m416.15 193.29c-23.429 0.74724-46.801 3.8534-69.573 9.4352-34.668 8.5152-67.661 23.572-97.047 43.812-31.738 21.77-59.031 49.621-81.777 80.576-17.447 23.738-32.201 49.384-44.701 76.042-7.3707 15.987-15.204 31.775-21.894 48.067-3.1242 7.6533-5.3124 15.846-4.9768 24.175 0.09352 8.877 1.3785 17.684 2.29 26.499 2.1207 15.71 5.6567 31.586 13.619 45.457 7.0413 11.814 18.019 20.535 29.031 28.453 12.609 9.1285 25.763 17.568 39.77 24.4 20.222 10.086 41.512 17.933 63.205 24.201 23.21 6.534 47.198 10.37 71.308 11.095 21.58 0.8977 43.18 1.241 64.777 1.2979 13.898-0.14175 27.872-0.80102 41.505-3.6976 21.475-4.1256 42.205-11.337 62.586-19.133 25.653-9.9446 50.34-22.591 72.771-38.577 20.165-14.055 38.893-30.283 55.088-48.8 10.427-12.183 19.092-25.736 27.215-39.527 11.424-19.213 22.05-38.887 32.649-58.563 9.0185-17.539 16.594-36.141 19.29-55.796 3.338-21.652 5.5652-65.47-1.5798-86.309-6.1622-18.048-11.226-16.238-22.119-31.775-7.5928-10.589-24.429-17.786-35.937-24.238-10.348-5.8607-21.868-9.0854-32.8-13.626-9.5453-3.7891-19.283-7.2092-29.372-9.2314-16.912-3.8029-34.101-6.1637-51.227-8.7624-14.374-2.1165-28.847-3.652-43.364-4.3138-11.785-0.50299-23.587-0.33213-35.374-0.8134-7.7857-0.22703-15.575-0.43683-23.364-0.34655z" stroke="#000" stroke-width="1px" fill="#784421"/>
    <path id="path3869" d="m652.97 272.46-19.004-3.2935s-39.681-59.272-123.02-70.384c68.571-1.0218 104.53 30.581 142.02 73.678z" stroke="#000" stroke-width="1px" fill="#fff"/>
    <path id="path3822" d="m102.92 523.87s341.36-305.68 582.97-247.33" stroke="#000" stroke-width="2.0136" fill="none"/>
    <path id="path3824" d="m104.87 528.09s330.58 174.51 526.55-28.529" stroke="#000" stroke-width="1px" fill="none"/>
    <path id="path3828" d="m265.67 580.3 68.69 13.838c13.805-68.863 16.499-152.55-37.376-212.52l-64.65 39.538s55.558 88.961 33.335 159.14z" stroke="#000" stroke-width=".9892px" fill="#fff"/>
    <path id="path3830" d="m138.19 372.1 89.758 45.195 63.224-40.723c-26.13-32.98-61.1-57.69-122.15-51.98" stroke="#000" stroke-width="1.0031px" fill="#fff"/>
    <path id="path3842" d="m348.05 329.83c-1.8782 2.372 15.816 32.737 17.864 31.92 87.573-69.496 227.41-87.437 238.12-82.571l-16.904-23.719s-38.426-7.2304-138.57 31.803c-100.06 38.998-100.51 42.567-100.51 42.567z" stroke="#000" stroke-width="1.079px" fill="#fff"/>
    <path id="path3847" d="m363.54 304.72c-2.4939 0.95864-4.3158 3.0318-6.5909 4.3703-1.303 0.91825-2.6061 1.8365-3.9091 2.7547 11.136 13.518 22.351 27.021 32.192 41.53 0.93255 1.4824 1.7462 3.0462 2.2771 4.7199 2.7523-2.2455 5.9447-3.8627 8.8458-5.9016 1.2701-0.82447 2.5403-1.649 3.8104-2.4734-5.176-7.484-10.08-15.185-15.856-22.23-1.5199-1.9063-3.2538-3.616-5.1751-5.1142-1.5279-1.1858-1.704-3.2175-2.752-4.7389-2.6434-4.6216-6.2208-8.7004-10.319-12.08-0.72961-0.50166-1.6082-0.96708-2.5225-0.83749z" stroke="#000" stroke-width="1px" fill="#fff"/>
    <path id="path3849" d="m378.36 297.51s36.429 43.571 34.286 46.429c0.71429 0 0.71429-0.71429 0.71429-0.71429l12.143-7.8571s-31.429-47.143-36.429-45h-0.71428z" stroke="#000" stroke-width="1px" fill="#fff"/>
    <path id="path3851" d="m413.36 283.22s36.429 43.571 34.286 46.429c0.71429 0 0.71429-0.71429 0.71429-0.71429l12.143-7.8571s-31.429-47.143-36.429-45h-0.71428z" stroke="#000" stroke-width="1px" fill="#fff"/>
    <path id="path3853" d="m413.36 283.22s36.429 43.571 34.286 46.429c0.71429 0 0.71429-0.71429 0.71429-0.71429l12.143-7.8571s-31.429-47.143-36.429-45h-0.71428z" stroke="#000" stroke-width="1px" fill="#fff"/>
    <path id="path3855" d="m446.18 271.29s33.723 40.727 31.739 43.398c0.66123 0 0.66123-0.66767 0.66123-0.66767l11.241-7.3442s-29.094-44.065-33.723-42.063h-0.66123z" stroke="#000" stroke-width=".93021px" fill="#fff"/>
    <path id="path3857" d="m477.01 259.5s33.679 42.704 30.858 44.948c0.79281 0.0875 0.90353-0.53933 0.90353-0.53933l14.696-5.4073s-27.576-45.225-33.458-43.957c-0.7928-0.0876-0.7928-0.0876-0.7928-0.0876z" stroke="#000" stroke-width=".99654px" fill="#fff"/>
    <path id="path3859" d="m510.53 254.03s30.123 39.124 27.6 41.181c0.70909 0.0802 0.80812-0.49412 0.80812-0.49412l13.144-4.954s-24.664-41.434-29.925-40.273c-0.70909-0.0803-0.70909-0.0803-0.70909-0.0803z" stroke="#000" stroke-width=".90209px" fill="#fff"/>
    <path id="path3861" d="m542.67 249.34s30.123 35.725 27.6 37.602c0.70909 0.0732 0.80812-0.45119 0.80812-0.45119l13.144-4.5236s-24.664-37.834-29.925-36.773c-0.70909-0.0733-0.70909-0.0733-0.70909-0.0733z" stroke="#000" stroke-width=".86201px" fill="#fff"/>
    <path id="path3863" d="m576.89 250.56s26.086 28.528 23.9 30.028c0.61405 0.0585 0.69981-0.36029 0.69981-0.36029l11.382-3.6123s-21.358-30.212-25.914-29.365l-0.61405-0.0585z" stroke="#000" stroke-width=".71683px" fill="#fff"/>
    <path id="path3867" d="m637.27 274.31s54.686 86.098 33.978 155.29c14.181-29.903 14.382-27.918 16.668-42.426-5.0814-39.645-4.6802-84.773-34.483-110.34 2.0816 0.50508 0.50508 0.50508 0.50508 0.50508z" stroke="#000" stroke-width="1px" fill="#fff"/>
    <path id="path3923" opacity=".71123" filter="url(#filter3941)" d="m302.04 125.04c0 19.526-80.955 35.355-180.82 35.355-99.863 0-180.82-15.829-180.82-35.355s80.955-35.355 180.82-35.355c99.863 0 180.82 15.829 180.82 35.355z" transform="matrix(1.5796 -.56850 .61042 1.1629 123.12 358.66)"/>
  </g>
  <metadata>
    <rdf:RDF>
      <cc:Work>
        <dc:format>image/svg+xml</dc:format>
        <dc:type rdf:resource="http://purl.org/dc/dcmitype/StillImage"/>
        <cc:license rdf:resource="http://creativecommons.org/licenses/publicdomain/"/>
        <dc:publisher>
          <cc:Agent rdf:about="http://openclipart.org/">
            <dc:title>Openclipart</dc:title>
          </cc:Agent>
        </dc:publisher>
        <dc:title>Football</dc:title>
        <dc:date>2010-10-15T21:27:50</dc:date>
        <dc:description>Regular old football.</dc:description>
        <dc:source>http://openclipart.org/detail/91027/-by-feraliminal</dc:source>
        <dc:creator>
          <cc:Agent>
            <dc:title>feraliminal</dc:title>
          </cc:Agent>
        </dc:creator>
        <dc:subject>
          <rdf:Bag>
            <rdf:li>ball</rdf:li>
            <rdf:li>clip art</rdf:li>
            <rdf:li>clipart</rdf:li>
            <rdf:li>football</rdf:li>
            <rdf:li>sports</rdf:li>
          </rdf:Bag>
        </dc:subject>
      </cc:Work>
      <cc:License rdf:about="http://creativecommons.org/licenses/publicdomain/">
        <cc:permits rdf:resource="http://creativecommons.org/ns#Reproduction"/>
        <cc:permits rdf:resource="http://creativecommons.org/ns#Distribution"/>
        <cc:permits rdf:resource="http://creativecommons.org/ns#DerivativeWorks"/>
      </cc:License>
    </rdf:RDF>
  </metadata>
</svg>
