<svg id="visual" viewBox="0 0 900 600" width="900" height="600" xmlns="http://www.w3.org/2000/svg" xmlns:xlink="http://www.w3.org/1999/xlink" version="1.1"><g stroke-width="10" stroke-linejoin="bevel"><path d="M425 241L513.5 345L495 251Z" fill="#f7f7f7" stroke="#ffffff"></path><path d="M513.5 345L609.5 229L495 251Z" fill="#f5f5f5" stroke="#ffffff"></path><path d="M425 241L406 441L513.5 345Z" fill="#e8e8e8" stroke="#ffffff"></path><path d="M513.5 345L406 441L523.5 352Z" fill="#ffffff" stroke="#ffffff"></path><path d="M437 91L348.5 213L425 241Z" fill="#f0f0f0" stroke="#ffffff"></path><path d="M425 241L291.5 377L406 441Z" fill="#e8e8e8" stroke="#ffffff"></path><path d="M348.5 213L308.5 269L425 241Z" fill="#fcfcfc" stroke="#ffffff"></path><path d="M308.5 269L291.5 377L425 241Z" fill="#e8e8e8" stroke="#ffffff"></path><path d="M523.5 352L609.5 229L513.5 345Z" fill="#e6e6e6" stroke="#ffffff"></path><path d="M495 251L437 91L425 241Z" fill="#e8e8e8" stroke="#ffffff"></path><path d="M406 441L572.5 460L523.5 352Z" fill="#ebebeb" stroke="#ffffff"></path><path d="M523.5 352L671 285L609.5 229Z" fill="#e6e6e6" stroke="#ffffff"></path><path d="M302.5 487L414 502L406 441Z" fill="#e8e8e8" stroke="#ffffff"></path><path d="M406 441L414 502L572.5 460Z" fill="#f0f0f0" stroke="#ffffff"></path><path d="M234 142L249 287L308.5 269Z" fill="#f0f0f0" stroke="#ffffff"></path><path d="M308.5 269L249 287L291.5 377Z" fill="#f0f0f0" stroke="#ffffff"></path><path d="M572.5 460L664 350L523.5 352Z" fill="#e8e8e8" stroke="#ffffff"></path><path d="M535.5 93L437 91L495 251Z" fill="#ebebeb" stroke="#ffffff"></path><path d="M348.5 213L234 142L308.5 269Z" fill="#ededed" stroke="#ffffff"></path><path d="M664 350L671 285L523.5 352Z" fill="#f0f0f0" stroke="#ffffff"></path><path d="M718 82L535.5 93L609.5 229Z" fill="#fcfcfc" stroke="#ffffff"></path><path d="M609.5 229L535.5 93L495 251Z" fill="#fafafa" stroke="#ffffff"></path><path d="M291.5 377L302.5 487L406 441Z" fill="#ffffff" stroke="#ffffff"></path><path d="M253 461L302.5 487L291.5 377Z" fill="#ebebeb" stroke="#ffffff"></path><path d="M202 433L253 461L291.5 377Z" fill="#f0f0f0" stroke="#ffffff"></path><path d="M411 0L365.5 66L437 91Z" fill="#e6e6e6" stroke="#ffffff"></path><path d="M437 91L365.5 66L348.5 213Z" fill="#f2f2f2" stroke="#ffffff"></path><path d="M365.5 66L234 142L348.5 213Z" fill="#fafafa" stroke="#ffffff"></path><path d="M249 287L202 433L291.5 377Z" fill="#f0f0f0" stroke="#ffffff"></path><path d="M95.5 315L202 433L249 287Z" fill="#e8e8e8" stroke="#ffffff"></path><path d="M763.5 269L718 197L671 285Z" fill="#ededed" stroke="#ffffff"></path><path d="M671 285L718 197L609.5 229Z" fill="#f2f2f2" stroke="#ffffff"></path><path d="M572.5 460L675 495L664 350Z" fill="#f2f2f2" stroke="#ffffff"></path><path d="M664 350L763.5 269L671 285Z" fill="#f7f7f7" stroke="#ffffff"></path><path d="M581.5 600L675 495L572.5 460Z" fill="#e8e8e8" stroke="#ffffff"></path><path d="M309.5 600L464 600L414 502Z" fill="#f0f0f0" stroke="#ffffff"></path><path d="M414 502L464 600L572.5 460Z" fill="#f7f7f7" stroke="#ffffff"></path><path d="M309.5 600L414 502L302.5 487Z" fill="#ededed" stroke="#ffffff"></path><path d="M309.5 600L302.5 487L179 600Z" fill="#ffffff" stroke="#ffffff"></path><path d="M178 163L158.5 245L249 287Z" fill="#fafafa" stroke="#ffffff"></path><path d="M113.5 111L178 163L234 142Z" fill="#e8e8e8" stroke="#ffffff"></path><path d="M234 142L178 163L249 287Z" fill="#ededed" stroke="#ffffff"></path><path d="M535.5 93L411 0L437 91Z" fill="#f0f0f0" stroke="#ffffff"></path><path d="M365.5 66L295.5 0L234 142Z" fill="#e6e6e6" stroke="#ffffff"></path><path d="M574.5 0L411 0L535.5 93Z" fill="#fcfcfc" stroke="#ffffff"></path><path d="M790.5 402L763.5 269L664 350Z" fill="#fcfcfc" stroke="#ffffff"></path><path d="M464 600L581.5 600L572.5 460Z" fill="#f0f0f0" stroke="#ffffff"></path><path d="M179 600L302.5 487L253 461Z" fill="#ededed" stroke="#ffffff"></path><path d="M637 0L574.5 0L535.5 93Z" fill="#fafafa" stroke="#ffffff"></path><path d="M837.5 197L746.5 139L718 197Z" fill="#fcfcfc" stroke="#ffffff"></path><path d="M718 197L718 82L609.5 229Z" fill="#ffffff" stroke="#ffffff"></path><path d="M411 0L295.5 0L365.5 66Z" fill="#fcfcfc" stroke="#ffffff"></path><path d="M746.5 139L718 82L718 197Z" fill="#ebebeb" stroke="#ffffff"></path><path d="M765.5 516L790.5 402L675 495Z" fill="#f5f5f5" stroke="#ffffff"></path><path d="M675 495L790.5 402L664 350Z" fill="#ededed" stroke="#ffffff"></path><path d="M763.5 269L837.5 197L718 197Z" fill="#fcfcfc" stroke="#ffffff"></path><path d="M158.5 245L95.5 315L249 287Z" fill="#ebebeb" stroke="#ffffff"></path><path d="M202 433L179 600L253 461Z" fill="#e6e6e6" stroke="#ffffff"></path><path d="M0 205L95.5 315L158.5 245Z" fill="#ebebeb" stroke="#ffffff"></path><path d="M718 82L637 0L535.5 93Z" fill="#f0f0f0" stroke="#ffffff"></path><path d="M95.5 315L107.5 418L202 433Z" fill="#e6e6e6" stroke="#ffffff"></path><path d="M707 600L765.5 516L675 495Z" fill="#ebebeb" stroke="#ffffff"></path><path d="M581.5 600L707 600L675 495Z" fill="#f0f0f0" stroke="#ffffff"></path><path d="M191 0L113.5 111L234 142Z" fill="#f7f7f7" stroke="#ffffff"></path><path d="M178 163L113.5 111L158.5 245Z" fill="#fafafa" stroke="#ffffff"></path><path d="M0 447L85.5 465L107.5 418Z" fill="#ebebeb" stroke="#ffffff"></path><path d="M107.5 418L85.5 465L202 433Z" fill="#ebebeb" stroke="#ffffff"></path><path d="M85.5 465L179 600L202 433Z" fill="#f2f2f2" stroke="#ffffff"></path><path d="M746.5 139L806.5 0L718 82Z" fill="#fcfcfc" stroke="#ffffff"></path><path d="M718 82L806.5 0L637 0Z" fill="#ffffff" stroke="#ffffff"></path><path d="M900 226L837.5 197L763.5 269Z" fill="#ebebeb" stroke="#ffffff"></path><path d="M900 338L763.5 269L790.5 402Z" fill="#e8e8e8" stroke="#ffffff"></path><path d="M295.5 0L191 0L234 142Z" fill="#e6e6e6" stroke="#ffffff"></path><path d="M707 600L776.5 600L765.5 516Z" fill="#ebebeb" stroke="#ffffff"></path><path d="M900 397L900 338L790.5 402Z" fill="#fafafa" stroke="#ffffff"></path><path d="M900 397L790.5 402L900 471Z" fill="#f7f7f7" stroke="#ffffff"></path><path d="M95.5 315L0 340L107.5 418Z" fill="#e6e6e6" stroke="#ffffff"></path><path d="M0 205L0 340L95.5 315Z" fill="#fafafa" stroke="#ffffff"></path><path d="M900 338L900 226L763.5 269Z" fill="#f7f7f7" stroke="#ffffff"></path><path d="M900 130L806.5 0L746.5 139Z" fill="#e8e8e8" stroke="#ffffff"></path><path d="M900 471L790.5 402L765.5 516Z" fill="#f2f2f2" stroke="#ffffff"></path><path d="M0 80L0 205L113.5 111Z" fill="#f2f2f2" stroke="#ffffff"></path><path d="M113.5 111L0 205L158.5 245Z" fill="#f5f5f5" stroke="#ffffff"></path><path d="M191 0L98.5 0L113.5 111Z" fill="#f0f0f0" stroke="#ffffff"></path><path d="M900 130L746.5 139L837.5 197Z" fill="#f0f0f0" stroke="#ffffff"></path><path d="M0 527L80.5 600L85.5 465Z" fill="#fafafa" stroke="#ffffff"></path><path d="M85.5 465L80.5 600L179 600Z" fill="#e6e6e6" stroke="#ffffff"></path><path d="M0 340L0 447L107.5 418Z" fill="#ffffff" stroke="#ffffff"></path><path d="M900 600L900 471L765.5 516Z" fill="#e8e8e8" stroke="#ffffff"></path><path d="M900 226L900 130L837.5 197Z" fill="#ededed" stroke="#ffffff"></path><path d="M0 447L0 527L85.5 465Z" fill="#f2f2f2" stroke="#ffffff"></path><path d="M98.5 0L0 80L113.5 111Z" fill="#e8e8e8" stroke="#ffffff"></path><path d="M776.5 600L900 600L765.5 516Z" fill="#f7f7f7" stroke="#ffffff"></path><path d="M0 527L0 600L80.5 600Z" fill="#e6e6e6" stroke="#ffffff"></path><path d="M900 130L900 0L806.5 0Z" fill="#f0f0f0" stroke="#ffffff"></path><path d="M98.5 0L0 0L0 80Z" fill="#f2f2f2" stroke="#ffffff"></path></g></svg>