<svg id="visual" viewBox="0 0 960 540" width="960" height="540" xmlns="http://www.w3.org/2000/svg" xmlns:xlink="http://www.w3.org/1999/xlink" version="1.1"><rect x="0" y="0" width="960" height="540" fill="#e6e6e6"></rect><defs><linearGradient id="grad1_0" x1="43.8%" y1="0%" x2="100%" y2="100%"><stop offset="14.444444444444446%" stop-color="#e6e6e6" stop-opacity="1"></stop><stop offset="85.55555555555554%" stop-color="#e6e6e6" stop-opacity="1"></stop></linearGradient></defs><defs><linearGradient id="grad2_0" x1="0%" y1="0%" x2="56.3%" y2="100%"><stop offset="14.444444444444446%" stop-color="#e6e6e6" stop-opacity="1"></stop><stop offset="85.55555555555554%" stop-color="#e6e6e6" stop-opacity="1"></stop></linearGradient></defs><g transform="translate(960, 0)"><path d="M0 351C-50.4 346.7 -100.8 342.3 -129.7 313.2C-158.7 284.1 -166.1 230.2 -200.1 200.1C-234.1 170 -294.7 163.7 -324.3 134.3C-353.9 104.9 -352.4 52.5 -351 0L0 0Z" fill="#2885C7"></path></g><g transform="translate(0, 540)"><path d="M0 -351C51.9 -351.9 103.7 -352.8 134.3 -324.3C164.9 -295.8 174.2 -237.9 203.6 -203.6C233 -169.3 282.5 -158.6 310.4 -128.6C338.3 -98.6 344.7 -49.3 351 0L0 0Z" fill="#2885C7"></path></g></svg>