<svg id="visual" viewBox="0 0 900 600" width="900" height="600" xmlns="http://www.w3.org/2000/svg" xmlns:xlink="http://www.w3.org/1999/xlink" version="1.1"><g stroke-width="1" stroke-linejoin="bevel"><path d="M410 338L301 291L379 362Z" fill="#246688" stroke="#246688"></path><path d="M301 291L332 417L379 362Z" fill="#277297" stroke="#277297"></path><path d="M429 466L488 361L410 338Z" fill="#205a7a" stroke="#205a7a"></path><path d="M429 466L410 338L379 362Z" fill="#081a28" stroke="#081a28"></path><path d="M410 338L421 166L301 291Z" fill="#1d4e6b" stroke="#1d4e6b"></path><path d="M475 173L421 166L410 338Z" fill="#15384f" stroke="#15384f"></path><path d="M271 160L199 284L301 291Z" fill="#246688" stroke="#246688"></path><path d="M301 291L198 364L332 417Z" fill="#112e42" stroke="#112e42"></path><path d="M421 166L271 160L301 291Z" fill="#246688" stroke="#246688"></path><path d="M199 284L198 364L301 291Z" fill="#112e42" stroke="#112e42"></path><path d="M488 361L529 260L410 338Z" fill="#205a7a" stroke="#205a7a"></path><path d="M529 260L475 173L410 338Z" fill="#246688" stroke="#246688"></path><path d="M332 525L429 466L332 417Z" fill="#246688" stroke="#246688"></path><path d="M332 417L429 466L379 362Z" fill="#277297" stroke="#277297"></path><path d="M421 166L292 135L271 160Z" fill="#19435d" stroke="#19435d"></path><path d="M410 99L292 135L421 166Z" fill="#0c2435" stroke="#0c2435"></path><path d="M475 173L410 99L421 166Z" fill="#277297" stroke="#277297"></path><path d="M271 160L161 226L199 284Z" fill="#246688" stroke="#246688"></path><path d="M199 284L134 323L198 364Z" fill="#081a28" stroke="#081a28"></path><path d="M217 137L161 226L271 160Z" fill="#277297" stroke="#277297"></path><path d="M529 260L566 232L475 173Z" fill="#00101c" stroke="#00101c"></path><path d="M475 173L515 99L410 99Z" fill="#246688" stroke="#246688"></path><path d="M607 267L566 232L529 260Z" fill="#297ea6" stroke="#297ea6"></path><path d="M591 395L529 260L488 361Z" fill="#1d4e6b" stroke="#1d4e6b"></path><path d="M237 0L217 137L292 135Z" fill="#0c2435" stroke="#0c2435"></path><path d="M292 135L217 137L271 160Z" fill="#081a28" stroke="#081a28"></path><path d="M170 511L332 525L332 417Z" fill="#277297" stroke="#277297"></path><path d="M161 226L134 323L199 284Z" fill="#112e42" stroke="#112e42"></path><path d="M198 364L170 511L332 417Z" fill="#1d4e6b" stroke="#1d4e6b"></path><path d="M536 485L488 361L429 466Z" fill="#19435d" stroke="#19435d"></path><path d="M536 485L591 395L488 361Z" fill="#00101c" stroke="#00101c"></path><path d="M591 395L607 267L529 260Z" fill="#112e42" stroke="#112e42"></path><path d="M509 600L536 485L429 466Z" fill="#081a28" stroke="#081a28"></path><path d="M613 89L515 99L566 232Z" fill="#081a28" stroke="#081a28"></path><path d="M566 232L515 99L475 173Z" fill="#1d4e6b" stroke="#1d4e6b"></path><path d="M134 323L125 427L198 364Z" fill="#246688" stroke="#246688"></path><path d="M217 137L119 169L161 226Z" fill="#0c2435" stroke="#0c2435"></path><path d="M161 226L0 206L134 323Z" fill="#112e42" stroke="#112e42"></path><path d="M0 439L111 486L125 427Z" fill="#00101c" stroke="#00101c"></path><path d="M125 427L170 511L198 364Z" fill="#205a7a" stroke="#205a7a"></path><path d="M265 600L415 600L332 525Z" fill="#1d4e6b" stroke="#1d4e6b"></path><path d="M332 525L415 600L429 466Z" fill="#15384f" stroke="#15384f"></path><path d="M509 600L597 498L536 485Z" fill="#297ea6" stroke="#297ea6"></path><path d="M536 485L597 498L591 395Z" fill="#205a7a" stroke="#205a7a"></path><path d="M591 395L672 276L607 267Z" fill="#205a7a" stroke="#205a7a"></path><path d="M0 332L125 427L134 323Z" fill="#205a7a" stroke="#205a7a"></path><path d="M125 427L111 486L170 511Z" fill="#0c2435" stroke="#0c2435"></path><path d="M198 600L265 600L170 511Z" fill="#205a7a" stroke="#205a7a"></path><path d="M170 511L265 600L332 525Z" fill="#205a7a" stroke="#205a7a"></path><path d="M495 0L427 0L410 99Z" fill="#246688" stroke="#246688"></path><path d="M410 99L292 0L292 135Z" fill="#19435d" stroke="#19435d"></path><path d="M217 137L93 101L119 169Z" fill="#15384f" stroke="#15384f"></path><path d="M427 0L292 0L410 99Z" fill="#112e42" stroke="#112e42"></path><path d="M687 389L672 276L591 395Z" fill="#00101c" stroke="#00101c"></path><path d="M706 205L613 89L566 232Z" fill="#1d4e6b" stroke="#1d4e6b"></path><path d="M292 0L237 0L292 135Z" fill="#0c2435" stroke="#0c2435"></path><path d="M415 600L509 600L429 466Z" fill="#112e42" stroke="#112e42"></path><path d="M706 205L566 232L607 267Z" fill="#277297" stroke="#277297"></path><path d="M515 99L495 0L410 99Z" fill="#277297" stroke="#277297"></path><path d="M592 0L495 0L515 99Z" fill="#277297" stroke="#277297"></path><path d="M117 0L93 101L217 137Z" fill="#1d4e6b" stroke="#1d4e6b"></path><path d="M0 206L0 332L134 323Z" fill="#1d4e6b" stroke="#1d4e6b"></path><path d="M102 600L198 600L170 511Z" fill="#1d4e6b" stroke="#1d4e6b"></path><path d="M709 461L687 389L591 395Z" fill="#0c2435" stroke="#0c2435"></path><path d="M672 276L706 205L607 267Z" fill="#112e42" stroke="#112e42"></path><path d="M809 228L706 205L672 276Z" fill="#297ea6" stroke="#297ea6"></path><path d="M0 206L161 226L119 169Z" fill="#246688" stroke="#246688"></path><path d="M93 101L0 206L119 169Z" fill="#081a28" stroke="#081a28"></path><path d="M681 600L709 461L597 498Z" fill="#297ea6" stroke="#297ea6"></path><path d="M597 498L709 461L591 395Z" fill="#277297" stroke="#277297"></path><path d="M687 389L784 406L672 276Z" fill="#19435d" stroke="#19435d"></path><path d="M683 0L592 0L613 89Z" fill="#0c2435" stroke="#0c2435"></path><path d="M613 89L592 0L515 99Z" fill="#1d4e6b" stroke="#1d4e6b"></path><path d="M0 332L0 439L125 427Z" fill="#0c2435" stroke="#0c2435"></path><path d="M111 486L102 600L170 511Z" fill="#15384f" stroke="#15384f"></path><path d="M237 0L117 0L217 137Z" fill="#297ea6" stroke="#297ea6"></path><path d="M93 101L0 76L0 206Z" fill="#081a28" stroke="#081a28"></path><path d="M0 499L102 600L111 486Z" fill="#112e42" stroke="#112e42"></path><path d="M509 600L620 600L597 498Z" fill="#246688" stroke="#246688"></path><path d="M0 439L0 499L111 486Z" fill="#246688" stroke="#246688"></path><path d="M117 0L0 76L93 101Z" fill="#0c2435" stroke="#0c2435"></path><path d="M768 512L784 406L709 461Z" fill="#15384f" stroke="#15384f"></path><path d="M709 461L784 406L687 389Z" fill="#246688" stroke="#246688"></path><path d="M620 600L681 600L597 498Z" fill="#297ea6" stroke="#297ea6"></path><path d="M809 228L733 78L706 205Z" fill="#19435d" stroke="#19435d"></path><path d="M706 205L733 78L613 89Z" fill="#246688" stroke="#246688"></path><path d="M733 78L683 0L613 89Z" fill="#1d4e6b" stroke="#1d4e6b"></path><path d="M829 271L809 228L672 276Z" fill="#246688" stroke="#246688"></path><path d="M681 600L768 512L709 461Z" fill="#081a28" stroke="#081a28"></path><path d="M0 499L0 600L102 600Z" fill="#205a7a" stroke="#205a7a"></path><path d="M900 260L829 271L900 414Z" fill="#297ea6" stroke="#297ea6"></path><path d="M784 406L829 271L672 276Z" fill="#1d4e6b" stroke="#1d4e6b"></path><path d="M117 0L0 0L0 76Z" fill="#246688" stroke="#246688"></path><path d="M809 228L839 98L733 78Z" fill="#246688" stroke="#246688"></path><path d="M733 78L804 0L683 0Z" fill="#00101c" stroke="#00101c"></path><path d="M900 136L839 98L809 228Z" fill="#205a7a" stroke="#205a7a"></path><path d="M839 98L804 0L733 78Z" fill="#00101c" stroke="#00101c"></path><path d="M900 414L829 271L784 406Z" fill="#081a28" stroke="#081a28"></path><path d="M829 271L900 230L809 228Z" fill="#00101c" stroke="#00101c"></path><path d="M839 98L900 0L804 0Z" fill="#19435d" stroke="#19435d"></path><path d="M681 600L815 600L768 512Z" fill="#081a28" stroke="#081a28"></path><path d="M900 482L900 414L784 406Z" fill="#112e42" stroke="#112e42"></path><path d="M900 260L900 230L829 271Z" fill="#0c2435" stroke="#0c2435"></path><path d="M900 482L784 406L768 512Z" fill="#277297" stroke="#277297"></path><path d="M900 230L900 136L809 228Z" fill="#081a28" stroke="#081a28"></path><path d="M815 600L900 482L768 512Z" fill="#112e42" stroke="#112e42"></path><path d="M815 600L900 600L900 482Z" fill="#0c2435" stroke="#0c2435"></path><path d="M900 136L900 0L839 98Z" fill="#081a28" stroke="#081a28"></path></g></svg>