<svg id="visual" viewBox="0 0 960 540" width="960" height="540" xmlns="http://www.w3.org/2000/svg" xmlns:xlink="http://www.w3.org/1999/xlink" version="1.1"><g stroke-width="40" stroke-linejoin="bevel"><path d="M493 286L502 384L656 290Z" fill="#e3a3aa" stroke="#495b70"></path><path d="M502 384L661 413L656 290Z" fill="#83a2f9" stroke="#495b70"></path><path d="M631 116L467 154L493 286Z" fill="#a19ef1" stroke="#495b70"></path><path d="M493 286L342 282L502 384Z" fill="#a19ef1" stroke="#495b70"></path><path d="M502 384L620 540L661 413Z" fill="#e49fb1" stroke="#495b70"></path><path d="M656 290L631 116L493 286Z" fill="#e3a3aa" stroke="#495b70"></path><path d="M802 540L797 392L661 413Z" fill="#e49fb1" stroke="#495b70"></path><path d="M661 413L797 392L656 290Z" fill="#83a2f9" stroke="#495b70"></path><path d="M656 290L802 257L631 116Z" fill="#d599cf" stroke="#495b70"></path><path d="M467 154L342 282L493 286Z" fill="#e0a8a6" stroke="#495b70"></path><path d="M502 384L458 540L620 540Z" fill="#dd9ac4" stroke="#495b70"></path><path d="M797 392L802 257L656 290Z" fill="#c999db" stroke="#495b70"></path><path d="M307 404L458 540L502 384Z" fill="#c999db" stroke="#495b70"></path><path d="M342 282L307 404L502 384Z" fill="#a19ef1" stroke="#495b70"></path><path d="M467 154L339 132L342 282Z" fill="#e29cba" stroke="#495b70"></path><path d="M342 282L165 251L307 404Z" fill="#a19ef1" stroke="#495b70"></path><path d="M343 0L339 132L467 154Z" fill="#58a6ff" stroke="#495b70"></path><path d="M960 273L823 148L802 257Z" fill="#e3a3aa" stroke="#495b70"></path><path d="M802 257L823 148L631 116Z" fill="#a19ef1" stroke="#495b70"></path><path d="M620 540L802 540L661 413Z" fill="#58a6ff" stroke="#495b70"></path><path d="M797 392L960 273L802 257Z" fill="#d599cf" stroke="#495b70"></path><path d="M307 404L336 540L458 540Z" fill="#b89be6" stroke="#495b70"></path><path d="M816 0L641 0L631 116Z" fill="#c999db" stroke="#495b70"></path><path d="M631 116L490 0L467 154Z" fill="#b89be6" stroke="#495b70"></path><path d="M641 0L490 0L631 116Z" fill="#e3a3aa" stroke="#495b70"></path><path d="M960 394L960 273L797 392Z" fill="#e29cba" stroke="#495b70"></path><path d="M802 540L960 394L797 392Z" fill="#d599cf" stroke="#495b70"></path><path d="M490 0L343 0L467 154Z" fill="#e0a8a6" stroke="#495b70"></path><path d="M339 132L165 251L342 282Z" fill="#b89be6" stroke="#495b70"></path><path d="M960 140L816 0L823 148Z" fill="#a19ef1" stroke="#495b70"></path><path d="M823 148L816 0L631 116Z" fill="#c999db" stroke="#495b70"></path><path d="M172 124L165 251L339 132Z" fill="#e0a8a6" stroke="#495b70"></path><path d="M307 404L166 540L336 540Z" fill="#e29cba" stroke="#495b70"></path><path d="M960 273L960 140L823 148Z" fill="#b89be6" stroke="#495b70"></path><path d="M802 540L960 540L960 394Z" fill="#a19ef1" stroke="#495b70"></path><path d="M165 251L139 413L307 404Z" fill="#e49fb1" stroke="#495b70"></path><path d="M343 0L172 124L339 132Z" fill="#e0a8a6" stroke="#495b70"></path><path d="M165 251L0 267L139 413Z" fill="#b89be6" stroke="#495b70"></path><path d="M139 413L166 540L307 404Z" fill="#58a6ff" stroke="#495b70"></path><path d="M960 140L960 0L816 0Z" fill="#e49fb1" stroke="#495b70"></path><path d="M343 0L141 0L172 124Z" fill="#b89be6" stroke="#495b70"></path><path d="M0 148L0 267L165 251Z" fill="#e3a3aa" stroke="#495b70"></path><path d="M0 148L165 251L172 124Z" fill="#c999db" stroke="#495b70"></path><path d="M139 413L0 540L166 540Z" fill="#e3a3aa" stroke="#495b70"></path><path d="M0 267L0 420L139 413Z" fill="#83a2f9" stroke="#495b70"></path><path d="M141 0L0 148L172 124Z" fill="#58a6ff" stroke="#495b70"></path><path d="M0 420L0 540L139 413Z" fill="#e29cba" stroke="#495b70"></path><path d="M141 0L0 0L0 148Z" fill="#dd9ac4" stroke="#495b70"></path></g></svg>