<svg id="visual" viewBox="0 0 900 600" width="900" height="600" xmlns="http://www.w3.org/2000/svg" xmlns:xlink="http://www.w3.org/1999/xlink" version="1.1"><rect x="0" y="0" width="900" height="600" fill="#536880"></rect><path d="M0 532L6.3 463.7C12.7 395.3 25.3 258.7 37.8 222.7C50.3 186.7 62.7 251.3 75.2 266.3C87.7 281.3 100.3 246.7 112.8 236.7C125.3 226.7 137.7 241.3 150.2 254.3C162.7 267.3 175.3 278.7 187.8 329.7C200.3 380.7 212.7 471.3 225.2 494.5C237.7 517.7 250.3 473.3 262.8 417.2C275.3 361 287.7 293 300.2 245.8C312.7 198.7 325.3 172.3 337.8 158C350.3 143.7 362.7 141.3 375.2 164.2C387.7 187 400.3 235 412.8 249C425.3 263 437.7 243 450 289C462.3 335 474.7 447 487.2 491C499.7 535 512.3 511 525 447.5C537.7 384 550.3 281 562.8 281.8C575.3 282.7 587.7 387.3 600.2 437.7C612.7 488 625.3 484 637.8 422.3C650.3 360.7 662.7 241.3 675.2 205.3C687.7 169.3 700.3 216.7 712.8 268.2C725.3 319.7 737.7 375.3 750.2 370.3C762.7 365.3 775.3 299.7 787.8 247C800.3 194.3 812.7 154.7 825.2 183.2C837.7 211.7 850.3 308.3 862.8 374.3C875.3 440.3 887.7 475.7 893.8 493.3L900 511L900 601L893.8 601C887.7 601 875.3 601 862.8 601C850.3 601 837.7 601 825.2 601C812.7 601 800.3 601 787.8 601C775.3 601 762.7 601 750.2 601C737.7 601 725.3 601 712.8 601C700.3 601 687.7 601 675.2 601C662.7 601 650.3 601 637.8 601C625.3 601 612.7 601 600.2 601C587.7 601 575.3 601 562.8 601C550.3 601 537.7 601 525 601C512.3 601 499.7 601 487.2 601C474.7 601 462.3 601 450 601C437.7 601 425.3 601 412.8 601C400.3 601 387.7 601 375.2 601C362.7 601 350.3 601 337.8 601C325.3 601 312.7 601 300.2 601C287.7 601 275.3 601 262.8 601C250.3 601 237.7 601 225.2 601C212.7 601 200.3 601 187.8 601C175.3 601 162.7 601 150.2 601C137.7 601 125.3 601 112.8 601C100.3 601 87.7 601 75.2 601C62.7 601 50.3 601 37.8 601C25.3 601 12.7 601 6.3 601L0 601Z" fill="#58A6FF" stroke-linecap="round" stroke-linejoin="miter"></path></svg>