<svg id="visual" viewBox="0 0 900 600" width="900" height="600" xmlns="http://www.w3.org/2000/svg" xmlns:xlink="http://www.w3.org/1999/xlink" version="1.1"><rect x="0" y="0" width="900" height="600" fill="#536880"></rect><path d="M0 261L6.3 272C12.7 283 25.3 305 37.8 324.7C50.3 344.3 62.7 361.7 75.2 344.2C87.7 326.7 100.3 274.3 112.8 279.8C125.3 285.3 137.7 348.7 150.2 368.7C162.7 388.7 175.3 365.3 187.8 334.5C200.3 303.7 212.7 265.3 225.2 256.5C237.7 247.7 250.3 268.3 262.8 274.8C275.3 281.3 287.7 273.7 300.2 289C312.7 304.3 325.3 342.7 337.8 336.8C350.3 331 362.7 281 375.2 290.3C387.7 299.7 400.3 368.3 412.8 393.8C425.3 419.3 437.7 401.7 450 396.3C462.3 391 474.7 398 487.2 386.7C499.7 375.3 512.3 345.7 525 341.8C537.7 338 550.3 360 562.8 345.8C575.3 331.7 587.7 281.3 600.2 251.3C612.7 221.3 625.3 211.7 637.8 212.5C650.3 213.3 662.7 224.7 675.2 242.5C687.7 260.3 700.3 284.7 712.8 310.5C725.3 336.3 737.7 363.7 750.2 348.2C762.7 332.7 775.3 274.3 787.8 257.3C800.3 240.3 812.7 264.7 825.2 262.5C837.7 260.3 850.3 231.7 862.8 218.7C875.3 205.7 887.7 208.3 893.8 209.7L900 211L900 601L893.8 601C887.7 601 875.3 601 862.8 601C850.3 601 837.7 601 825.2 601C812.7 601 800.3 601 787.8 601C775.3 601 762.7 601 750.2 601C737.7 601 725.3 601 712.8 601C700.3 601 687.7 601 675.2 601C662.7 601 650.3 601 637.8 601C625.3 601 612.7 601 600.2 601C587.7 601 575.3 601 562.8 601C550.3 601 537.7 601 525 601C512.3 601 499.7 601 487.2 601C474.7 601 462.3 601 450 601C437.7 601 425.3 601 412.8 601C400.3 601 387.7 601 375.2 601C362.7 601 350.3 601 337.8 601C325.3 601 312.7 601 300.2 601C287.7 601 275.3 601 262.8 601C250.3 601 237.7 601 225.2 601C212.7 601 200.3 601 187.8 601C175.3 601 162.7 601 150.2 601C137.7 601 125.3 601 112.8 601C100.3 601 87.7 601 75.2 601C62.7 601 50.3 601 37.8 601C25.3 601 12.7 601 6.3 601L0 601Z" fill="#58A6FF" stroke-linecap="round" stroke-linejoin="miter"></path></svg>