<?xml version="1.0" standalone="no"?><svg xmlns="http://www.w3.org/2000/svg" viewBox="0 0 1440 320"><path fill="#0099ff" fill-opacity="1" d="M0,0L10,21.3C20,43,40,85,60,85.3C80,85,100,43,120,69.3C140,96,160,192,180,213.3C200,235,220,181,240,186.7C260,192,280,256,300,250.7C320,245,340,171,360,122.7C380,75,400,53,420,69.3C440,85,460,139,480,170.7C500,203,520,213,540,224C560,235,580,245,600,245.3C620,245,640,235,660,218.7C680,203,700,181,720,186.7C740,192,760,224,780,218.7C800,213,820,171,840,144C860,117,880,107,900,112C920,117,940,139,960,122.7C980,107,1000,53,1020,69.3C1040,85,1060,171,1080,170.7C1100,171,1120,85,1140,53.3C1160,21,1180,43,1200,80C1220,117,1240,171,1260,197.3C1280,224,1300,224,1320,218.7C1340,213,1360,203,1380,165.3C1400,128,1420,64,1430,32L1440,0L1440,320L1430,320C1420,320,1400,320,1380,320C1360,320,1340,320,1320,320C1300,320,1280,320,1260,320C1240,320,1220,320,1200,320C1180,320,1160,320,1140,320C1120,320,1100,320,1080,320C1060,320,1040,320,1020,320C1000,320,980,320,960,320C940,320,920,320,900,320C880,320,860,320,840,320C820,320,800,320,780,320C760,320,740,320,720,320C700,320,680,320,660,320C640,320,620,320,600,320C580,320,560,320,540,320C520,320,500,320,480,320C460,320,440,320,420,320C400,320,380,320,360,320C340,320,320,320,300,320C280,320,260,320,240,320C220,320,200,320,180,320C160,320,140,320,120,320C100,320,80,320,60,320C40,320,20,320,10,320L0,320Z"></path></svg>