<svg id="visual" viewBox="0 0 960 540" width="960" height="540" xmlns="http://www.w3.org/2000/svg" xmlns:xlink="http://www.w3.org/1999/xlink" version="1.1"><g stroke-width="17" stroke-linejoin="bevel"><path d="M455.7 276L458.7 327L567.3 292Z" fill="#98b396" stroke="#e6e6e6"></path><path d="M458.7 327L544.3 371L567.3 292Z" fill="#6e936c" stroke="#e6e6e6"></path><path d="M567.3 292L507.3 217L455.7 276Z" fill="#a7bda4" stroke="#e6e6e6"></path><path d="M336 324L455.7 414L458.7 327Z" fill="#a7bda4" stroke="#e6e6e6"></path><path d="M458.7 327L455.7 414L544.3 371Z" fill="#e1e9e0" stroke="#e6e6e6"></path><path d="M627 457L631 367L544.3 371Z" fill="#a7bda4" stroke="#e6e6e6"></path><path d="M544.3 371L631 367L567.3 292Z" fill="#f0f4ef" stroke="#e6e6e6"></path><path d="M567.3 292L621 209L507.3 217Z" fill="#98b396" stroke="#e6e6e6"></path><path d="M663 266L621 209L567.3 292Z" fill="#ffffff" stroke="#e6e6e6"></path><path d="M631 367L663 266L567.3 292Z" fill="#c4d3c2" stroke="#e6e6e6"></path><path d="M329 250L336 324L455.7 276Z" fill="#ffffff" stroke="#e6e6e6"></path><path d="M455.7 276L336 324L458.7 327Z" fill="#a7bda4" stroke="#e6e6e6"></path><path d="M455.7 414L552.3 474L544.3 371Z" fill="#e1e9e0" stroke="#e6e6e6"></path><path d="M432.7 99L405.7 146L507.3 217Z" fill="#6e936c" stroke="#e6e6e6"></path><path d="M507.3 217L405.7 146L455.7 276Z" fill="#6e936c" stroke="#e6e6e6"></path><path d="M325 217L329 250L455.7 276Z" fill="#e1e9e0" stroke="#e6e6e6"></path><path d="M552.3 474L627 457L544.3 371Z" fill="#7c9d7a" stroke="#e6e6e6"></path><path d="M763.7 331L731.7 245L663 266Z" fill="#8aa888" stroke="#e6e6e6"></path><path d="M405.7 146L325 217L455.7 276Z" fill="#98b396" stroke="#e6e6e6"></path><path d="M235.3 325L300 431L336 324Z" fill="#6e936c" stroke="#e6e6e6"></path><path d="M739.7 118L618 124L621 209Z" fill="#ffffff" stroke="#e6e6e6"></path><path d="M621 209L618 124L507.3 217Z" fill="#ffffff" stroke="#e6e6e6"></path><path d="M496.3 64L432.7 99L507.3 217Z" fill="#6e936c" stroke="#e6e6e6"></path><path d="M189.3 150L226.3 240L325 217Z" fill="#f0f4ef" stroke="#e6e6e6"></path><path d="M763.7 331L663 266L631 367Z" fill="#e1e9e0" stroke="#e6e6e6"></path><path d="M663 266L731.7 245L621 209Z" fill="#f0f4ef" stroke="#e6e6e6"></path><path d="M618 124L496.3 64L507.3 217Z" fill="#7c9d7a" stroke="#e6e6e6"></path><path d="M426.7 540L534.3 540L552.3 474Z" fill="#a7bda4" stroke="#e6e6e6"></path><path d="M552.3 474L637 540L627 457Z" fill="#6e936c" stroke="#e6e6e6"></path><path d="M426.7 540L552.3 474L455.7 414Z" fill="#7c9d7a" stroke="#e6e6e6"></path><path d="M235.3 325L336 324L329 250Z" fill="#b5c8b3" stroke="#e6e6e6"></path><path d="M336 324L300 431L455.7 414Z" fill="#e1e9e0" stroke="#e6e6e6"></path><path d="M637 540L727.7 418L627 457Z" fill="#f0f4ef" stroke="#e6e6e6"></path><path d="M627 457L727.7 418L631 367Z" fill="#c4d3c2" stroke="#e6e6e6"></path><path d="M300 431L426.7 540L455.7 414Z" fill="#a7bda4" stroke="#e6e6e6"></path><path d="M727.7 418L763.7 331L631 367Z" fill="#d2ded1" stroke="#e6e6e6"></path><path d="M534.3 540L637 540L552.3 474Z" fill="#d2ded1" stroke="#e6e6e6"></path><path d="M226.3 240L235.3 325L329 250Z" fill="#d2ded1" stroke="#e6e6e6"></path><path d="M283 55L325 217L405.7 146Z" fill="#8aa888" stroke="#e6e6e6"></path><path d="M325 217L226.3 240L329 250Z" fill="#f0f4ef" stroke="#e6e6e6"></path><path d="M731.7 245L739.7 118L621 209Z" fill="#7c9d7a" stroke="#e6e6e6"></path><path d="M763.7 331L785.7 208L731.7 245Z" fill="#6e936c" stroke="#e6e6e6"></path><path d="M785.7 208L739.7 118L731.7 245Z" fill="#ffffff" stroke="#e6e6e6"></path><path d="M606 0L530.3 0L496.3 64Z" fill="#98b396" stroke="#e6e6e6"></path><path d="M606 0L496.3 64L618 124Z" fill="#6e936c" stroke="#e6e6e6"></path><path d="M496.3 64L418.7 0L432.7 99Z" fill="#c4d3c2" stroke="#e6e6e6"></path><path d="M432.7 99L283 55L405.7 146Z" fill="#b5c8b3" stroke="#e6e6e6"></path><path d="M300 431L326 540L426.7 540Z" fill="#98b396" stroke="#e6e6e6"></path><path d="M209.3 540L326 540L300 431Z" fill="#a7bda4" stroke="#e6e6e6"></path><path d="M727.7 418L815.3 342L763.7 331Z" fill="#d2ded1" stroke="#e6e6e6"></path><path d="M763.7 331L864.3 303L785.7 208Z" fill="#d2ded1" stroke="#e6e6e6"></path><path d="M881.3 432L815.3 342L727.7 418Z" fill="#d2ded1" stroke="#e6e6e6"></path><path d="M530.3 0L418.7 0L496.3 64Z" fill="#d2ded1" stroke="#e6e6e6"></path><path d="M734.7 0L606 0L618 124Z" fill="#b5c8b3" stroke="#e6e6e6"></path><path d="M323 0L283 55L432.7 99Z" fill="#f0f4ef" stroke="#e6e6e6"></path><path d="M124.7 375L196.3 441L235.3 325Z" fill="#f0f4ef" stroke="#e6e6e6"></path><path d="M235.3 325L196.3 441L300 431Z" fill="#98b396" stroke="#e6e6e6"></path><path d="M418.7 0L323 0L432.7 99Z" fill="#f0f4ef" stroke="#e6e6e6"></path><path d="M283 55L189.3 150L325 217Z" fill="#f0f4ef" stroke="#e6e6e6"></path><path d="M72.7 295L124.7 375L235.3 325Z" fill="#98b396" stroke="#e6e6e6"></path><path d="M175.3 101L189.3 150L283 55Z" fill="#c4d3c2" stroke="#e6e6e6"></path><path d="M881.3 432L864.3 303L815.3 342Z" fill="#a7bda4" stroke="#e6e6e6"></path><path d="M815.3 342L864.3 303L763.7 331Z" fill="#b5c8b3" stroke="#e6e6e6"></path><path d="M828.3 86L734.7 0L739.7 118Z" fill="#a7bda4" stroke="#e6e6e6"></path><path d="M637 540L771.7 540L727.7 418Z" fill="#e1e9e0" stroke="#e6e6e6"></path><path d="M828.3 86L739.7 118L785.7 208Z" fill="#7c9d7a" stroke="#e6e6e6"></path><path d="M739.7 118L734.7 0L618 124Z" fill="#b5c8b3" stroke="#e6e6e6"></path><path d="M890.3 207L828.3 86L785.7 208Z" fill="#a7bda4" stroke="#e6e6e6"></path><path d="M196.3 441L209.3 540L300 431Z" fill="#e1e9e0" stroke="#e6e6e6"></path><path d="M244.3 0L175.3 101L283 55Z" fill="#e1e9e0" stroke="#e6e6e6"></path><path d="M72.7 295L235.3 325L226.3 240Z" fill="#b5c8b3" stroke="#e6e6e6"></path><path d="M864.3 303L890.3 207L785.7 208Z" fill="#7c9d7a" stroke="#e6e6e6"></path><path d="M72.7 295L226.3 240L69.7 193Z" fill="#d2ded1" stroke="#e6e6e6"></path><path d="M196.3 441L144.7 452L209.3 540Z" fill="#7c9d7a" stroke="#e6e6e6"></path><path d="M771.7 540L881.3 432L727.7 418Z" fill="#6e936c" stroke="#e6e6e6"></path><path d="M864.3 303L960 279L890.3 207Z" fill="#c4d3c2" stroke="#e6e6e6"></path><path d="M124.7 375L144.7 452L196.3 441Z" fill="#d2ded1" stroke="#e6e6e6"></path><path d="M323 0L244.3 0L283 55Z" fill="#ffffff" stroke="#e6e6e6"></path><path d="M771.7 540L857.3 540L881.3 432Z" fill="#ffffff" stroke="#e6e6e6"></path><path d="M69.7 193L226.3 240L189.3 150Z" fill="#b5c8b3" stroke="#e6e6e6"></path><path d="M0 439L72.7 540L144.7 452Z" fill="#d2ded1" stroke="#e6e6e6"></path><path d="M960 388L864.3 303L881.3 432Z" fill="#7c9d7a" stroke="#e6e6e6"></path><path d="M960 388L960 279L864.3 303Z" fill="#98b396" stroke="#e6e6e6"></path><path d="M890.3 207L960 159L828.3 86Z" fill="#7c9d7a" stroke="#e6e6e6"></path><path d="M68.7 102L189.3 150L175.3 101Z" fill="#7c9d7a" stroke="#e6e6e6"></path><path d="M68.7 102L69.7 193L189.3 150Z" fill="#e1e9e0" stroke="#e6e6e6"></path><path d="M960 486L960 388L881.3 432Z" fill="#6e936c" stroke="#e6e6e6"></path><path d="M960 279L960 159L890.3 207Z" fill="#8aa888" stroke="#e6e6e6"></path><path d="M828.3 86L885.3 0L734.7 0Z" fill="#98b396" stroke="#e6e6e6"></path><path d="M960 78L885.3 0L828.3 86Z" fill="#7c9d7a" stroke="#e6e6e6"></path><path d="M111.7 0L68.7 102L175.3 101Z" fill="#d2ded1" stroke="#e6e6e6"></path><path d="M857.3 540L960 486L881.3 432Z" fill="#b5c8b3" stroke="#e6e6e6"></path><path d="M244.3 0L111.7 0L175.3 101Z" fill="#e1e9e0" stroke="#e6e6e6"></path><path d="M0 345L72.7 295L0 239Z" fill="#b5c8b3" stroke="#e6e6e6"></path><path d="M0 345L124.7 375L72.7 295Z" fill="#d2ded1" stroke="#e6e6e6"></path><path d="M0 439L144.7 452L124.7 375Z" fill="#7c9d7a" stroke="#e6e6e6"></path><path d="M144.7 452L72.7 540L209.3 540Z" fill="#d2ded1" stroke="#e6e6e6"></path><path d="M960 159L960 78L828.3 86Z" fill="#98b396" stroke="#e6e6e6"></path><path d="M857.3 540L960 540L960 486Z" fill="#f0f4ef" stroke="#e6e6e6"></path><path d="M0 239L72.7 295L69.7 193Z" fill="#ffffff" stroke="#e6e6e6"></path><path d="M0 197L69.7 193L68.7 102Z" fill="#c4d3c2" stroke="#e6e6e6"></path><path d="M0 197L0 239L69.7 193Z" fill="#6e936c" stroke="#e6e6e6"></path><path d="M0 52L0 197L68.7 102Z" fill="#e1e9e0" stroke="#e6e6e6"></path><path d="M0 345L0 439L124.7 375Z" fill="#e1e9e0" stroke="#e6e6e6"></path><path d="M960 78L960 0L885.3 0Z" fill="#8aa888" stroke="#e6e6e6"></path><path d="M0 439L0 540L72.7 540Z" fill="#8aa888" stroke="#e6e6e6"></path><path d="M111.7 0L0 52L68.7 102Z" fill="#98b396" stroke="#e6e6e6"></path><path d="M111.7 0L0 0L0 52Z" fill="#ffffff" stroke="#e6e6e6"></path></g></svg>