<svg xmlns="http://www.w3.org/2000/svg" xmlns:xlink="http://www.w3.org/1999/xlink" version="1.1" width="595.92pt" height="842.88pt" viewBox="0 0 595.92 842.88">
<defs>
<clipPath id="clip_0">
<path transform="matrix(.24,0,0,.24,0,0)" d="M0 0H2484V3512.5H0Z" fill-rule="evenodd"/>
</clipPath>
<clipPath id="clip_1">
<path transform="matrix(.24,0,0,.24,0,0)" d="M0 115.625H2483.8126V3372.125H0Z" fill-rule="evenodd"/>
</clipPath>
</defs>
<g clip-path="url(#clip_0)">
<path transform="matrix(.75,0,0,.75,0,0)" d="M0 0H794V37H0Z" fill="#ffffff"/>
<path transform="matrix(.75,0,0,.75,0,0)" d="M0 1080H794V1124H0Z" fill="#ffffff"/>
</g>
<g clip-path="url(#clip_1)">
<path transform="matrix(.585,0,0,.585,0,27.75)" d="M0 0H1019V1336H0Z" fill="#ffffff"/>
<path transform="matrix(.585,0,0,.585,0,27.75)" d="M0 0H1019V1330H0Z" fill="#ffffff"/>
<path transform="matrix(.585,0,0,.585,0,27.75)" d="M49 170H970V171H49Z"/>
<path transform="matrix(.585,0,0,.585,0,27.75)" d="M49 165H970V169H49Z"/>
<path transform="matrix(.585,0,0,.585,0,27.75)" d="M361 78H362V91H361Z"/>
<path transform="matrix(.585,0,0,.585,0,27.75)" d="M588 78H589V91H588Z"/>
<text fill="#428bca" xml:space="preserve" transform="matrix(.585 0 0 .585 0 27.75)" font-size="14" font-family="Unnamed"><tspan y="89" x="602.9531 615.1877 627.42227 639.254 642.22207 651.68606 660.14199 669.60598 675.1117 678.8777 686.9099 699.2159 702.9819 711.43789 720.90188 729.3578 734.8318 737.5912 745.349 754.12698 768.9809">www.henrikwiener.com/</tspan></text>
<path transform="matrix(.585,0,0,.585,0,27.75)" d="M309 118H310V131H309Z"/>
<text fill="#428bca" xml:space="preserve" transform="matrix(.585 0 0 .585 0 27.75)" font-size="14" font-family="Unnamed"><tspan y="129" x="324.375 328.141 331.90699 341.37095 349.48905 357.945 367.43696 371.20295 380.6669 383.42628 391.1841 399.9621 414.81605 419.57743 423.3434 432.80738 437.49739 446.96134 455.4173 464.88127 470.38697 474.15296 482.18519 494.49116 498.25715 506.7131 516.17709 524.63308 529.687">linkedin.com/in/henrikwiener/</tspan></text>
<path transform="matrix(.585,0,0,.585,0,27.75)" d="M548 118H549V131H548Z"/>
<text fill="#428bca" xml:space="preserve" transform="matrix(.585 0 0 .585 0 27.75)" font-size="14" font-family="Unnamed"><tspan y="129" x="563.3906 572.9806 576.7466 582.43057 591.89456 601.3025 610.5858 613.3452 621.103 629.881 644.7349 648.4767 657.9686 666.2286 675.55258 687.8585 691.6245 700.08047 709.54446 718.00039">github.com/danwiener</tspan></text>
<text xml:space="preserve" transform="matrix(.585 0 0 .585 0 27.75)" font-size="28" font-family="Unnamed"><tspan y="30" x="410.21876 432.0254 446.70899 464.6875 476.85157 485.86134 503.77149 510.6621 540.5488 549.5586 564.2422 582.0689 596.7525">Henrik Wiener</tspan></text>
<text xml:space="preserve" transform="matrix(.585 0 0 .585 0 27.75)" font-size="17.5" font-family="Unnamed"><tspan y="57" x="432.9375 443.24269 452.84718 459.04225 465.28004 480.85743 490.53028 497.65675 506.7058 511.05519 522.21487 533.6052 543.4917 549.063 560.41067 569.71609 578.76516">Software Engineer</tspan></text>
<text xml:space="preserve" transform="matrix(.585 0 0 .585 0 27.75)" font-size="14" font-family="Unnamed"><tspan y="89" x="245.3125 249.91849 258.30445 263.35844 271.8844 276.4904 280.1584 288.05436 297.32234 306.25428 311.7105 320.93415 328.8581 338.25209">(719) 308-4548</tspan></text>
<text xml:space="preserve" transform="matrix(.585 0 0 .585 0 27.75)" font-size="14" font-family="Unnamed"><tspan y="89" x="376.1875 385.65147 394.10743 403.57139 409.0771 412.84309 421.39704 423.89088 436.19685 439.96284 448.4188 457.88276 466.3387 471.58824 486.05018 494.82814 504.23609 509.92005 513.68606 522.464 531.24197 539.7959 542.5553 550.3131 559.09109">henrik.wiener@outlook.com</tspan></text>
<text xml:space="preserve" transform="matrix(.585 0 0 .585 0 27.75)" font-size="14" font-family="Unnamed"><tspan y="237" x="49.125 62.49495 66.54094 74.67491 80.41174 89.44171 96.65169 105.681659 110.84764 116.643619 122.1736 128.10958 133.3867 141.88468 145.93067 155.53873 164.24669 173.86466 177.72864 186.43347 195.96744 200.01343 204.05942 209.23627 218.04224 223.97821 232.49428 240.55512 249.45908 253.32306 262.12904 271.159 276.32499 282.12098 294.74348 303.24147 308.97828 317.68623 321.5502 330.93019 340.53825 350.2542 354.3002 363.90827 372.6162 381.32417">Microsoft-trained Full-Stack Software Engineer</tspan></text>
<text xml:space="preserve" transform="matrix(.585 0 0 .585 0 27.75)" font-size="14" font-family="Unnamed"><tspan y="237" x="387.21876 390.88673 403.1927 406.95869 412.64265 422.1066 425.7746 433.67057 437.33857 444.71653 452.96247 461.2224 466.80604 473.638 477.30598 486.08393 490.8299 494.49787 506.5938 515.37179 520.8775 529.2915 533.0575 542.5215 552.11148 555.7794 568.0854 571.8514 577.53536 586.99929 590.66726 593.63528 605.0172 614.3832 621.9833 624.9513 628.61929 638.68527 648.4292 651.3972 655.0652 662.07919 670.1991 677.56118 685.8211 688.78909 692.45706 699.471 707.59097 714.953 723.21298 731.82296 739.7049 745.21066 748.9766 758.46859 764.29257 767.2605 770.92849 782.3104 790.3464 803.7163 812.38229 815.3502 819.0182 829.05386 837.6638 846.5538 849.5217 853.1897 861.7997 873.54568 882.14028 887.25027 894.8345 899.9342 908.5442 920.29019 928.88479 933.29476 941.9047 953.6507"> with 3 years of working with .NET, C#, Java, JavaScript, HTML, CSS, SQL/T-SQL/SQL</tspan></text>
<text xml:space="preserve" transform="matrix(.585 0 0 .585 0 27.75)" font-size="14" font-family="Unnamed"><tspan y="258" x="49.125 59.176958 62.942949 72.35091 79.18288 82.15086 85.81885 95.76254 103.56052 109.24449 118.70845 127.48642 136.95038 139.91837 143.58635 151.84632 161.31027 170.80223 174.47022 182.71619 186.48218 195.94614 205.3541 212.83007 215.79805 219.46604 228.6234 236.09937 245.59133 254.04729 259.553 263.319 271.77497 281.23893 288.99678 297.45274 306.9447 310.61268 322.91865 326.68464 332.3686 341.83256 345.50056 353.2584 362.03639 371.50035 378.3323 387.1103 390.87629 399.33226 402.30024 405.9682 410.71418 416.1499 424.92787 434.3918 439.9358 445.42378 453.87974 463.3437 472.83564 475.80363 479.47163 488.916 497.17597 504.94969 513.0519 518.53988 526.99588 536.45986 545.9518 548.9198 552.58779 561.95376 565.6217 577.71768 586.1736 595.6655 599.3335 607.59347 617.0854 626.57736 630.3433 634.1093 641.9913 650.2512 655.9352 659.7012 668.4791 677.9431 684.7751 688.44308 692.20907 701.673 709.44668 713.21267 722.6206 732.11257 735.87857 745.3425 754.9325 758.60049 764.0203 772.4763 780.25 789.714 799.178 807.95596 811.7219 820.4999 830.08987 833.85586 842.31179 849.14376 852.8117 859.6437 869.05166 876.8253 886.2893 889.9573 898.2172 905.0492 908.71719 918.8391 927.0851 935.34506 943.31289">Plus, Python, and Linux. Experienced with console, front-end, back-end, &#x0026; web applications including technologies such as React</tspan></text>
<text xml:space="preserve" transform="matrix(.585 0 0 .585 0 27.75)" font-size="14" font-family="Unnamed"><tspan y="279" x="49.125 57.384965 66.84892 76.34088 80.008869 94.86281 104.27077 108.06615 113.75012 117.51611 123.20009 132.66405 138.09976 146.34572 154.60569 164.09764 167.86363 177.32759 186.91756 189.88555 193.55353 198.60752 207.86148 217.12944 220.79743 228.6794 234.11511 242.57108 252.06304 255.82903 261.513 265.18098 274.64494 283.4229 292.83088 298.4145 305.24647 308.91444 314.3343 322.90226 334.98234 343.2423 348.67805 358.16999 361.83796 372.39393 380.65388 388.42759 397.89155 406.3475 410.1135 418.89149 424.50547 428.17347 436.95143 441.6974 445.36537 453.97535 461.74906 465.51506 473.971 483.43498 491.1928 499.64878 503.31678 507.08277 516.54678 520.2147 527.0467 535.82467 540.5706 546.1146 558.1947 566.4547 571.89047 580.3464 584.01437 592.4703 601.93429 611.52426 615.2902 624.7542 633.21017 641.6661 647.1718 650.9378 660.4018 669.99179 672.9598 676.62777 687.59158 690.6995 699.5895 702.55746 706.2254 719.59536 727.8553 733.361 737.127 746.591 755.04696 758.7149 768.4626 777.24057 782.7463 792.2382 799.0702 802.73818 810.11618 818.5721 823.99197 832.44796 837.40158 845.6615 855.1254">and multithreading. 140 credit hours toward Bachelor of Science in software engineering. U.S. Marine Corps veteran.</tspan></text>
<text xml:space="preserve" transform="matrix(.585 0 0 .585 0 27.75)" font-size="17.5" font-family="Unnamed"><tspan y="204" x="468.46876 478.77394 489.41236 506.30567 523.199 532.8718 540.323">Summary</tspan></text>
<path transform="matrix(.585,0,0,.585,0,27.75)" d="M49 335H970V337H49Z"/>
<path transform="matrix(.585,0,0,.585,0,27.75)" d="M49 329H970V333H49Z"/>
<text xml:space="preserve" transform="matrix(.585 0 0 .585 0 27.75)" font-size="14" font-family="Unnamed"><tspan y="363" x="49.125 58.860094 64.29581 73.07378 82.66374 87.617389 95.87735 110.73129 125.585239 129.35123 138.81519 148.40515 152.07314 160.3191 168.57907 178.04303 187.633 197.04096 205.30092 214.89089 223.34685 230.17882 233.1468 236.81479 240.48278 244.15076 247.81874 257.76246 265.56044 271.2444 280.70835 289.48634 298.9503 301.91828 305.58625 315.65223 325.39619 328.36418 332.03218 343.41413 351.45008 364.82 373.06599 380.98994 383.95793 387.62593 397.66154 406.27149 415.16145 418.12944">Programming Languages:&#x00a0; &#x00a0; Python, C#, HTML5, CSS, </tspan></text>
<text xml:space="preserve" transform="matrix(.585 0 0 .585 0 27.75)" font-size="14" font-family="Unnamed"><tspan y="363" x="421.8125 428.82649 436.94645 444.30854 452.56849 455.53648 459.20448 466.21846 474.3384 481.7005 489.96046 498.57044 506.4524 511.95814 515.7241 525.21609 530.9 534.568 539.17398 549.2959 557.5419 565.8018 573.76968 579.5936 582.56167 586.2296 597.6116 606.3895 615.8815 624.3374 627.3054 630.9734 641.0253 650.4333 659.92526 669.4172 677.87319 683.29299 691.7489 700.20486 705.6643">Java, JavaScript (React, Node, Puppeteer)</tspan></text>
<text xml:space="preserve" transform="matrix(.585 0 0 .585 0 27.75)" font-size="14" font-family="Unnamed"><tspan y="405" x="49.125 56.39096 64.846927 72.620639 82.084598 91.54855 95.314548 103.19652 111.45648 115.22247 118.89046 127.50043 135.9144 139.68039 143.44638 147.21237 154.04434 157.01233 160.68032 164.3483 168.01628 171.68427 175.35225 179.02024 182.68822 186.3562 190.02419 193.69217 197.36016 201.02814 204.69612 208.3641 212.03209 215.70008 219.36806 223.03604 226.70403 230.37201 234.04 237.70798 241.37596 245.04395 248.71193 258.65565 266.4536 272.13758 281.60154 290.37953 299.84349 303.51148 311.75746 315.52345 325.0154 329.96907 338.22904 343.73478 347.50077 355.95674 362.7887 367.39469 378.77665 388.1846 403.03855 412.98225 420.09608 423.06407 426.73204 440.10197 448.3619 454.04588 463.5378 467.3038 476.08177 481.76573 485.5317 489.2977 498.58106 501.54905 505.217 515.1607 522.6404 533.46237 541.4983 551.4523 556.0582 559.02627 562.6942 576.06417 585.6121 593.6481 601.89407 611.932 622.488 625.45596 629.1239 637.3699 641.13589 650.59988 660.0078 667.48379 670.4518 674.11978 683.1217 691.57766 697.16128 703.9932 707.7592 716.5372 726.0011 729.66909 739.41677 748.1947 757.6587 763.34268 768.7784 777.55636 781.3223 785.92837 796.7503 800.5163 806.3403 809.3082 812.9762 823.79818 827.56417 833.2481 841.4941 849.754 859.03738 862.0054 865.67337 875.7393 879.9673 884.37728 894.44326 906.2158 910.8218 913.7898 917.45779 921.12576 924.7937 928.4617 932.12966 935.7976 939.4656 943.13357 946.8015 950.4695 954.13748 957.8054 961.4734 965.14138">Technical Skills:&#x00a0; &#x00a0; &#x00a0; &#x00a0; &#x00a0; &#x00a0; &#x00a0; &#x00a0; &#x00a0; &#x00a0; &#x00a0; &#x00a0; &#x00a0;Python Libraries(NumPy, Matplotlib, PyGTK), MATLAB, Linux, Version Control(Git, GitLab, CI/CD),&#x00a0; &#x00a0; &#x00a0; &#x00a0; &#x00a0; &#x00a0; &#x00a0; &#x00a0;</tspan></text>
<text xml:space="preserve" transform="matrix(.585 0 0 .585 0 27.75)" font-size="14" font-family="Unnamed"><tspan y="426" x="49.125 52.792985 56.460969 60.128953 63.796937 67.46492 71.132907 74.80089 78.46887 82.136859 85.80484 89.472827 93.14081 96.80879 100.476779 104.14476 107.812747 111.48073 115.14871 118.816699 122.48468 126.152667 129.82065 133.48863 137.15662 140.8246 144.49259 148.16057 151.82855 155.49654 159.16452 162.8325 166.50049 170.16847 173.83646 177.50444 181.17243 184.84041 188.50839 192.17638 195.84436 199.51235 203.18033 206.84832 210.5163 214.18428 217.85227 221.52025 225.18824 228.85622 232.5242 236.19219 239.86017 243.52816 247.19614 257.1641 266.75407 270.52006 274.28605 282.742 287.15199 295.76197 303.64393 309.25794 318.6659 333.51985 336.48783 340.15583 349.6809 353.4469 360.27888 369.68684 377.94679 381.71278 385.38075 393.99073 399.67469 409.08265 418.5746 422.34059 430.90995 433.87794 437.5459 447.10786 455.71784 465.4655 474.24348 483.7354 492.19139 495.15937 498.82734 506.0933 514.54928 521.3812 527.0652 530.8312 540.29519 549.88516 552.85317 556.5211 568.2671 577.75906 583.443 587.209 602.0629 605.8289 612.9829 621.24288 626.9268 630.6928 639.47079 648.93478 651.9028 655.57077 668.9407 678.34866 682.144 687.82797 691.59396 697.2779 706.7419 712.1776 720.4236 728.68356 738.1755 746.6314 756.12338 759.7913 769.5264 774.96218 783.7401 793.3301 798.28378 806.5437 821.39767 836.2516 840.0176 849.4815 859.0715">&#x00a0; &#x00a0; &#x00a0; &#x00a0; &#x00a0; &#x00a0; &#x00a0; &#x00a0; &#x00a0; &#x00a0; &#x00a0; &#x00a0; &#x00a0; &#x00a0; &#x00a0; &#x00a0; &#x00a0; &#x00a0; &#x00a0; &#x00a0; &#x00a0; &#x00a0; &#x00a0; &#x00a0; &#x00a0; &#x00a0; &#x00a0; Agile/Scrum, Visual Studio, VSCode, Testing, Optimization, Multithreaded Programming,</tspan></text>
<text xml:space="preserve" transform="matrix(.585 0 0 .585 0 27.75)" font-size="14" font-family="Unnamed"><tspan y="447" x="247.20313 257.2691 261.0351 269.81306 279.221 288.71296 293.31895 303.3569 310.51087 319.91883 325.35456 333.81053 338.4165 341.3845 345.0525 348.02049 359.40245 368.7684 376.80439 380.47236 389.19435 394.14799 402.40797 417.2619 425.57789 437.67384 446.45179 451.95753 460.14564 466.9776 471.5836 480.94956 490.4135 496.09748 499.86347 505.40748 512.9954 516.6634 525.3854 530.339 538.599 553.45297 561.7689 573.86489 582.6428 588.14859 596.7025 599.67056 603.3385 606.3065 617.6885 627.05447 635.09048 638.7584 653.54238 661.9983 671.49026 675.1582 685.19619 695.10818 699.3362 702.3042 705.97219 714.21817 718.4461 729.82809 741.294 744.26199 747.92996 750.89797 762.2799 771.6459 779.6818 783.3498 796.7197 806.54769 817.6356 821.8636 824.83157 828.4995 832.1675 835.83547 839.5034 843.1714 846.83938 850.5073 854.1753 857.84329 861.5112 865.1792 868.84719 872.51516 876.1831 879.8511 883.51907 887.187 890.855 894.52297 898.1909 901.8589 905.52688 909.1948 912.8628 916.53079 920.1987 923.8667 927.53469 931.20266 934.8706 938.5386 942.20657 945.8745 949.5425 953.21047 956.8784 960.5464 964.21438">Cloud(Azure), .NET Frameworks(Entity Framework, .NET Web API, LINQ, .NET MAUI,&#x00a0; &#x00a0; &#x00a0; &#x00a0; &#x00a0; &#x00a0; &#x00a0; &#x00a0; &#x00a0; &#x00a0; &#x00a0; &#x00a0; &#x00a0; &#x00a0; &#x00a0; &#x00a0; &#x00a0; &#x00a0; &#x00a0; &#x00a0;</tspan></text>
<text xml:space="preserve" transform="matrix(.585 0 0 .585 0 27.75)" font-size="14" font-family="Unnamed"><tspan y="468" x="49.125 52.792985 56.460969 60.128953 63.796937 67.46492 71.132907 74.80089 78.46887 82.136859 85.80484 89.472827 93.14081 96.80879 100.476779 104.14476 107.812747 111.48073 115.14871 118.816699 122.48468 126.152667 129.82065 133.48863 137.15662 140.8246 144.49259 148.16057 151.82855 155.49654 159.16452 162.8325 166.50049 170.16847 173.83646 177.50444 181.17243 184.84041 188.50839 192.17638 195.84436 199.51235 203.18033 206.84832 210.5163 214.18428 217.85227 221.52025 225.18824 228.85622 232.5242 236.19219 239.86017 243.52816 247.19614 257.2341 265.84407 275.49189 278.45988 289.84184 299.2078 307.24378 310.91175 320.65943 329.43739 334.8731 343.32908 346.29707 349.96504 360.003 368.61299 378.2608 381.2288 392.61076 401.9767 410.0127 413.68067 426.94236 436.41847 446.48445 451.09043 454.0584 457.72639 467.84834 477.2143 485.68428 493.28437 496.25236 499.92036 511.3023 519.4783 527.5142 537.16207 540.13 543.798 553.6698 562.44778 569.2797 574.9637 589.8176 598.0776 607.54159 610.5096 614.17758 622.78756 634.5335 642.7795 647.38546 655.9954 667.7414 675.98739 679.65536 689.7073 693.47329 702.8812 709.7132 712.6812 716.3492 723.9334 729.03317 737.6431 749.3891 758.05508 761.023 764.691 773.30099 785.04696 793.2929 796.9609 805.57089 814.0268 819.85079 827.2287 835.68466 841.1586 844.12667 847.7946 856.4046 865.0146 878.3845 886.9945 891.6005 894.56857 898.2365 901.9045 905.57247 909.2404 912.9084 916.57638 920.2443 923.9123 927.58029 931.2482 934.9162 938.58419 942.25216 945.9201 949.5881 953.25607 956.924 960.592">&#x00a0; &#x00a0; &#x00a0; &#x00a0; &#x00a0; &#x00a0; &#x00a0; &#x00a0; &#x00a0; &#x00a0; &#x00a0; &#x00a0; &#x00a0; &#x00a0; &#x00a0; &#x00a0; &#x00a0; &#x00a0; &#x00a0; &#x00a0; &#x00a0; &#x00a0; &#x00a0; &#x00a0; &#x00a0; &#x00a0; &#x00a0; ASP.NET Core, ASP.NET MVC), REST, HTTP, Postman, SQL(SQL Plus, T-SQL, SQL Server, SSMS),&#x00a0; &#x00a0; &#x00a0; &#x00a0; &#x00a0; &#x00a0; &#x00a0; &#x00a0; &#x00a0; &#x00a0;</tspan></text>
<text xml:space="preserve" transform="matrix(.585 0 0 .585 0 27.75)" font-size="14" font-family="Unnamed"><tspan y="489" x="49.125 52.792985 56.460969 60.128953 63.796937 67.46492 71.132907 74.80089 78.46887 82.136859 85.80484 89.472827 93.14081 96.80879 100.476779 104.14476 107.812747 111.48073 115.14871 118.816699 122.48468 126.152667 129.82065 133.48863 137.15662 140.8246 144.49259 148.16057 151.82855 155.49654 159.16452 162.8325 166.50049 170.16847 173.83646 177.50444 181.17243 184.84041 188.50839 192.17638 195.84436 199.51235 203.18033 206.84832 210.5163 214.18428 217.85227 221.52025 225.18824 228.85622 232.5242 236.19219 239.86017 243.52816 247.19614 254.21012 262.33009 269.69218 277.95216 286.56587 295.74983 298.7178 302.3858 312.42143 321.0314 329.6414 333.30937 342.03135 346.985 355.24497 370.0989 378.4149 390.51084 399.2888 404.79454 412.98265 419.8146 424.4206 434.97654 443.7545 452.53245 458.2164 465.04838 470.73234 475.68598 483.94596 493.2293 496.1973 499.86528 508.47898 517.25698 526.72097 532.4049 536.0729 545.745 557.84097 566.2969 573.12887 581.9068 596.76077 605.21676">&#x00a0; &#x00a0; &#x00a0; &#x00a0; &#x00a0; &#x00a0; &#x00a0; &#x00a0; &#x00a0; &#x00a0; &#x00a0; &#x00a0; &#x00a0; &#x00a0; &#x00a0; &#x00a0; &#x00a0; &#x00a0; &#x00a0; &#x00a0; &#x00a0; &#x00a0; &#x00a0; &#x00a0; &#x00a0; &#x00a0; &#x00a0; JavaFX, CSS Frameworks(Bootstrap, Font Awesome)</tspan></text>
<text xml:space="preserve" transform="matrix(.585 0 0 .585 0 27.75)" font-size="14" font-family="Unnamed"><tspan y="531" x="49.125 57.73497 66.51294 71.25893 76.9429 80.610889 89.220859 97.63483 101.40082 105.16681 108.9328 115.76477 119.432758 127.69272 137.15668 146.64864 150.31662 160.28458 165.77442 171.45839 176.96411 180.7301 190.22206 199.63002 205.04987 213.50583 220.3378 223.30579 226.97377 230.64176 234.30974 237.97772 241.6457 245.31369 248.98168 258.72938 267.50733 282.36128 297.2152 306.62318 316.08714 319.85313 325.3971 332.98506 336.653 348.399 357.80696 363.4909 368.92665 377.1726 385.43257 393.20628 402.67024 406.3382 414.4759 422.72187 430.9818 440.47377 448.92973 454.51338 461.34535 470.8093 474.5753 483.85865 486.82664 490.49464 497.7606 506.00654 514.2665 529.1204 532.7884 540.9261 549.17208 557.432 566.92398 575.3799 580.9635 587.7955 597.2594 601.0254 610.3087 613.27676 616.9447 627.76669 633.2024 641.7704 654.2864 659.97036 669.4343 673.1023 687.95626 691.7222 701.18618 710.6781 717.5101 725.96609 731.79006 734.75808 738.426 748.1737 756.95169 760.71768 764.48367 772.7436 782.23556 791.0135 795.96719 804.2271 809.9111 813.67709 822.455 831.91897 834.88699 838.55496 842.2229 845.89089 849.55886 853.2268 856.8948 860.56277 864.2307 867.8987 871.56668 875.2346 878.9026 882.57058 886.2385 889.9065 893.57449 897.24246 900.9104 904.57839 908.24636 911.9143 915.5823 919.25027 922.9182 926.5862 930.25418 933.9221 937.5901 941.25808 944.926 948.594 952.26199 955.92996 959.5979">Soft Skills and Attributes:&#x00a0; &#x00a0; &#x00a0; &#x00a0;Community Outreach Leadership, Team Leadership, Growth mindset, Collaboration,&#x00a0; &#x00a0; &#x00a0; &#x00a0; &#x00a0; &#x00a0; &#x00a0; &#x00a0; &#x00a0; &#x00a0; &#x00a0; &#x00a0; &#x00a0; &#x00a0; &#x00a0; &#x00a0; &#x00a0; &#x00a0;</tspan></text>
<text xml:space="preserve" transform="matrix(.585 0 0 .585 0 27.75)" font-size="14" font-family="Unnamed"><tspan y="552" x="49.125 52.792985 56.460969 60.128953 63.796937 67.46492 71.132907 74.80089 78.46887 82.136859 85.80484 89.472827 93.14081 96.80879 100.476779 104.14476 107.812747 111.48073 115.14871 118.816699 122.48468 126.152667 129.82065 133.48863 137.15662 140.8246 144.49259 148.16057 151.82855 155.49654 159.16452 162.8325 166.50049 170.16847 173.83646 177.50444 181.17243 184.84041 188.50839 192.17638 195.84436 199.51235 203.18033 206.84832 210.5163 214.18428 217.85227 221.52025 225.18824 228.85622 232.5242 236.19219 239.86017 243.52816 247.19614 250.86412 255.0921 264.55607 274.02003 282.58799 289.95008 298.21003 303.89399 307.65998 316.43797 325.90193 328.8699 332.53788 342.50584 350.26368 358.0215 366.79948 376.20744 385.6714 391.35539 399.61534 409.10728 412.87327 416.63926 420.40525 425.94923 433.06306 436.03105 439.699 449.82096 458.27693 465.1089 474.60087 483.05683 491.0247 496.84867 499.81666 503.48466 507.71263 517.1766 522.59646 531.05239 540.64236 546.1481 549.91409 555.458">&#x00a0; &#x00a0; &#x00a0; &#x00a0; &#x00a0; &#x00a0; &#x00a0; &#x00a0; &#x00a0; &#x00a0; &#x00a0; &#x00a0; &#x00a0; &#x00a0; &#x00a0; &#x00a0; &#x00a0; &#x00a0; &#x00a0; &#x00a0; &#x00a0; &#x00a0; &#x00a0; &#x00a0; &#x00a0; &#x00a0; &#x00a0; &#x00a0;Innovation, Accountability, Respect, Integrity</tspan></text>
<text xml:space="preserve" transform="matrix(.585 0 0 .585 0 27.75)" font-size="17.5" font-family="Unnamed"><tspan y="322" x="49.125 59.430177 70.42749 75.99878 81.57861 87.15845">Skills</tspan></text>
<path transform="matrix(.585,0,0,.585,0,27.75)" d="M49 608H970V610H49Z"/>
<path transform="matrix(.585,0,0,.585,0,27.75)" d="M49 602H970V606H49Z"/>
<path transform="matrix(.585,0,0,.585,0,27.75)" d="M49 784H970V785H49Z"/>
<text xml:space="preserve" transform="matrix(.585 0 0 .585 0 27.75)" font-size="14.7" font-family="Unnamed"><tspan y="637" x="897.5156 901.5694 907.2241"> - </tspan></text>
<path transform="matrix(.585,0,0,.585,0,27.75)" d="M59 678.5C58.999998 678.8314 58.93656 679.15029 58.809694 679.4566 58.682828 679.7629 58.502183 680.03329 58.26776 680.2677 58.033338 680.50216 57.762987 680.68276 57.4567 680.80966 57.150415 680.93649 56.831518 680.99996 56.5 681 56.168474 680.99996 55.849569 680.93649 55.54328 680.80966 55.236997 680.68276 54.966646 680.50216 54.732229 680.2677 54.497804 680.03329 54.317159 679.7629 54.190294 679.4566 54.063428 679.15029 53.999998 678.8314 54 678.5 53.999998 678.1684 54.063428 677.8495 54.190294 677.5432 54.317159 677.2369 54.497804 676.96658 54.732229 676.7322 54.966646 676.49777 55.237 676.31716 55.543287 676.19027 55.849569 676.0634 56.168474 676 56.5 676 56.831518 676 57.150415 676.0634 57.4567 676.19027 57.762987 676.31716 58.033338 676.49777 58.26776 676.7322 58.502183 676.96658 58.682828 677.2369 58.809694 677.5432 58.93656 677.8495 58.999998 678.1684 59 678.5Z"/>
<text xml:space="preserve" transform="matrix(.585 0 0 .585 0 27.75)" font-size="14" font-family="Unnamed"><tspan y="683" x="70.125 83.49495 92.27292 101.76488 110.22084 115.72656 125.19052 128.95652 135.98636 144.44232 153.93428 157.60227 170.97222 180.52017 188.55614 196.80211 206.84008 217.39603 221.06401 231.88597 242.97393 247.2019 250.86989 259.12986 268.62184 278.11378 281.87977 285.64576 293.5277 301.78767 307.47163 311.2376 320.01557 329.47953 336.3115 339.9795 348.23945 357.7034 367.19538 370.86335 377.6953 385.57728 391.083 394.849 404.34095 410.0249 416.85688 420.52485 429.8068 437.39479 441.06275 455.9167 459.68269 469.27265 474.2263 482.48628 488.17024 491.93623 501.40019 510.99015 514.65817 520.3421 529.806 538.26199 553.1159 556.7839 562.20376 570.9817 574.64968 584.5934 592.39138 598.0753 607.5393 616.31729 625.78128 628.74929 632.41726 636.1832 644.4992 651.8772 660.3331 665.28677 673.5467 683.13668 686.90267 696.3666 705.95657 709.6245 719.56826 727.048 737.86996 745.9059 755.85989 758.8279 762.49588 773.8778 783.28579 798.1397 808.0834 815.1972 818.16519 821.8331 830.0931 839.557 849.04898 852.7169 866.08688 874.3468 880.03079 889.5227 893.2887 902.06668 907.7506 911.5166 915.2826 924.5659">Modernized MATLAB GUI applications and scripts by migrating them to Python, leveraging PyGTK, NumPy, and Matplotlib.</tspan></text>
<path transform="matrix(.585,0,0,.585,0,27.75)" d="M59 699.5C58.999998 699.8315 58.93656 700.1504 58.809694 700.4566 58.682828 700.7628 58.502183 701.0332 58.26776 701.2677 58.033338 701.5021 57.762987 701.68276 57.4567 701.80966 57.150415 701.9365 56.831518 701.99996 56.5 702 56.168474 701.99996 55.849569 701.9365 55.54328 701.80966 55.236997 701.68276 54.966646 701.5021 54.732229 701.2677 54.497804 701.0332 54.317159 700.7628 54.190294 700.4566 54.063428 700.1504 53.999998 699.8315 54 699.5 53.999998 699.1684 54.063428 698.8495 54.190294 698.5432 54.317159 698.2369 54.497804 697.96658 54.732229 697.7322 54.966646 697.49777 55.237 697.3171 55.543287 697.1902 55.849569 697.0634 56.168474 697 56.5 697 56.831518 697 57.150415 697.0634 57.4567 697.1902 57.762987 697.3171 58.033338 697.49777 58.26776 697.7322 58.502183 697.96658 58.682828 698.2369 58.809694 698.5432 58.93656 698.8495 58.999998 699.1684 59 699.5Z"/>
<text xml:space="preserve" transform="matrix(.585 0 0 .585 0 27.75)" font-size="14" font-family="Unnamed"><tspan y="704" x="70.125 74.35298 89.206928 98.69888 104.1346 112.70256 120.08052 128.53649 138.02845 141.69643 151.18839 159.64435 165.25833 169.88019 178.65816 184.16388 199.01782 207.27779 216.74175 224.49959 232.95555 236.62354 245.4015 250.14749 253.81548 262.07545 271.56739 281.05934 284.82533 288.5913 296.47328 304.73323 310.41719 314.18318 322.96113 332.42509 339.25706 342.92503 352.20698 359.79496 363.46293 372.24089 381.73283 387.41679 391.18278 406.0367 409.8027 416.9567 420.7227 430.18666 439.7766 443.4446 448.0506 457.33256 464.9205 468.58848 477.0062 485.25218 496.85813 500.5261 504.29209 513.75607 517.4241 526.202 535.666 544.12197 547.7899 555.6719 563.9318 570.7638 579.2197 582.85977 587.46578">Improved performance of applications by optimizing (by 97% in one case!).</tspan></text>
<path transform="matrix(.585,0,0,.585,0,27.75)" d="M59 720.5C58.999998 720.8315 58.93656 721.1503 58.809694 721.45657 58.682828 721.7629 58.502183 722.03329 58.26776 722.2677 58.033338 722.5021 57.762987 722.6827 57.4567 722.8096 57.150415 722.93649 56.831518 722.99996 56.5 723 56.168474 722.99996 55.849569 722.93649 55.54328 722.8096 55.236997 722.6827 54.966646 722.5021 54.732229 722.2677 54.497804 722.03329 54.317159 721.76296 54.190294 721.4566 54.063428 721.1503 53.999998 720.8315 54 720.5 53.999998 720.1684 54.063428 719.8495 54.190294 719.5432 54.317159 719.2369 54.497804 718.96658 54.732229 718.7322 54.966646 718.49777 55.237 718.3171 55.543287 718.19027 55.849569 718.0634 56.168474 718 56.5 718 56.831518 718 57.150415 718.0634 57.4567 718.19027 57.762987 718.3171 58.033338 718.49777 58.26776 718.7322 58.502183 718.96658 58.682828 719.2369 58.809694 719.5432 58.93656 719.8495 58.999998 720.1684 59 720.5Z"/>
<text xml:space="preserve" transform="matrix(.585 0 0 .585 0 27.75)" font-size="14" font-family="Unnamed"><tspan y="725" x="70.125 74.35298 89.206928 98.69888 102.464878 110.92084 125.77478 134.23075 143.6947 149.11455 157.57051 167.06247 170.73046 178.50417 182.27016 190.51612 198.77608 208.24004 211.90802 219.66587 228.44384 237.93579 246.39176 250.05974 259.5517 264.50535 272.76533 280.73316 286.4171 290.1831 297.94096 306.3969 313.22889 316.89686 325.1568 334.62074 344.11268 347.78065 353.4646 362.92857 371.70655 377.14228 385.92024 395.3282 404.91816 414.3821 418.0501 427.45808 436.92204 440.68803 446.372 450.03999 455.45985 463.9158 470.74778 476.43177 480.19776 489.6617 499.25169 502.91969 507.54154 516.3195 521.9335 525.60147 534.0574 543.52139 552.98538 561.24539 570.70938 578.46719 586.92318 596.4151 600.08309 605.5188 613.9748 617.7408 621.5068 629.7667 639.25869 643.02468 646.79067 650.55667 656.10067 663.2145">Implemented clean code practices and thorough unit testing for enhanced reliability.</tspan></text>
<path transform="matrix(.585,0,0,.585,0,27.75)" d="M59 741.5C58.999998 741.8315 58.93656 742.1504 58.809694 742.4566 58.682828 742.7629 58.502183 743.03329 58.26776 743.2677 58.033338 743.5021 57.762987 743.68276 57.4567 743.80966 57.150415 743.9365 56.831518 743.99996 56.5 744 56.168474 743.99996 55.849569 743.9365 55.54328 743.80966 55.236997 743.68276 54.966646 743.5021 54.732229 743.2677 54.497804 743.03329 54.317159 742.7629 54.190294 742.4566 54.063428 742.1504 53.999998 741.8315 54 741.5 53.999998 741.1684 54.063428 740.8495 54.190294 740.54318 54.317159 740.2369 54.497804 739.96658 54.732229 739.7322 54.966646 739.49777 55.237 739.3171 55.543287 739.1902 55.849569 739.0634 56.168474 739 56.5 739 56.831518 739 57.150415 739.0634 57.4567 739.19027 57.762987 739.31716 58.033338 739.49777 58.26776 739.7322 58.502183 739.96658 58.682828 740.2369 58.809694 740.5432 58.93656 740.8495 58.999998 741.1684 59 741.5Z"/>
<text xml:space="preserve" transform="matrix(.585 0 0 .585 0 27.75)" font-size="14" font-family="Unnamed"><tspan y="746" x="70.125 80.09296 89.584918 99.07687 107.53284 117.024799 120.69278 130.73075 140.6427 144.87068 148.53867 158.03063 166.8086 174.69057 184.09853 198.95247 207.40843 216.87239 222.55637 230.81633 236.5003 240.2663 249.04427 258.50825 262.1762 267.59608 276.37403 280.042 292.13795 300.5939 310.08589 316.91786 320.68385 326.1037 334.55964 338.2276 347.63557 354.46754 358.23353 367.69749 377.28746 380.95545 390.9934 399.6034 409.25123 412.2192 423.60118 432.96714 441.0031 444.67109 457.93278 467.40888 477.47486 481.14283 489.40278 498.86674 508.3587 512.0267 523.4086 531.4446 544.8145 553.0605 560.98446">Added API documentation to website using ASP.NET MVC and HTML5.</tspan></text>
<path transform="matrix(.585,0,0,.585,0,27.75)" d="M59 762.5C58.999998 762.8315 58.93656 763.1503 58.809694 763.4566 58.682828 763.76296 58.502183 764.0333 58.26776 764.26779 58.033338 764.50216 57.762987 764.68276 57.4567 764.80966 57.150415 764.9365 56.831518 764.99996 56.5 765 56.168474 764.99996 55.849569 764.9365 55.54328 764.80966 55.236997 764.68276 54.966646 764.50216 54.732229 764.26779 54.497804 764.0333 54.317159 763.76296 54.190294 763.4566 54.063428 763.1503 53.999998 762.8315 54 762.5 53.999998 762.16848 54.063428 761.84957 54.190294 761.5432 54.317159 761.23696 54.497804 760.9666 54.732229 760.7322 54.966646 760.49777 55.237 760.3171 55.543287 760.1903 55.849569 760.0634 56.168474 760 56.5 760 56.831518 760 57.150415 760.0634 57.4567 760.19027 57.762987 760.3171 58.033338 760.49777 58.26776 760.7322 58.502183 760.9666 58.682828 761.23696 58.809694 761.54318 58.93656 761.8495 58.999998 762.16848 59 762.5Z"/>
<text xml:space="preserve" transform="matrix(.585 0 0 .585 0 27.75)" font-size="14" font-family="Unnamed"><tspan y="767" x="70.125 79.872699 88.650669 97.428638 102.86435 112.35631 116.1223 125.58626 133.84622 139.26607 147.72203 157.21399 160.88198 168.63982 177.41779 192.27173 207.12567 216.53363 225.99759 229.76358 235.30756 242.89553 246.5635 255.34148 264.74946 270.4334 275.86915 284.1151 292.37507 300.14878 309.61274 313.2807 321.73667 326.513 331.13487 339.91285 345.73683 351.42079 358.25276 361.92073 370.18067 379.64463 389.1366 392.80458 401.26054 408.0925 413.7765 422.03645 431.52839 435.29438 439.06037 445.89234 455.3563 463.81227 473.3042 476.97218 486.41654 494.6765 500.5005 506.18446 515.64846 524.1044 529.688 536.51998 545.9839 549.7499 559.2418 566.0738 569.74179 582.0477 585.8137 591.4977 600.9616 604.6296 614.7515 623.5295 632.99349 641.2534 645.0194 654.51138 658.1793 671.54928 679.4312 690.9952 699.77316 709.2371 717.4971 721.26309 730.755 734.423 745.80496 754.5829 763.99087 770.8228 779.27877 782.9467 793.0127 802.4766 810.7366 816.2423 820.0083 825.69229 829.45828 837.91427 844.7462">Coordinated community outreach efforts and established partnerships with Ronald McDonald House Charities.</tspan></text>
<text xml:space="preserve" transform="matrix(.585 0 0 .585 0 27.75)" font-size="14.7" font-family="Unnamed"><tspan y="811" x="848.2344 852.28817 857.9429"> - </tspan></text>
<path transform="matrix(.585,0,0,.585,0,27.75)" d="M59 852.5C58.999998 852.8315 58.93656 853.1503 58.809694 853.45657 58.682828 853.7629 58.502183 854.03329 58.26776 854.2677 58.033338 854.5021 57.762987 854.6827 57.4567 854.8096 57.150415 854.93649 56.831518 854.99996 56.5 855 56.168474 854.99996 55.849569 854.93649 55.54328 854.8096 55.236997 854.6827 54.966646 854.5021 54.732229 854.2677 54.497804 854.03329 54.317159 853.7629 54.190294 853.45657 54.063428 853.1503 53.999998 852.8315 54 852.5 53.999998 852.16848 54.063428 851.84957 54.190294 851.5432 54.317159 851.23696 54.497804 850.9666 54.732229 850.7322 54.966646 850.49777 55.237 850.3171 55.543287 850.1902 55.849569 850.0634 56.168474 850 56.5 850 56.831518 850 57.150415 850.0634 57.4567 850.1902 57.762987 850.3171 58.033338 850.49777 58.26776 850.7322 58.502183 850.9666 58.682828 851.23696 58.809694 851.54318 58.93656 851.8495 58.999998 852.16848 59 852.5Z"/>
<text xml:space="preserve" transform="matrix(.585 0 0 .585 0 27.75)" font-size="14" font-family="Unnamed"><tspan y="857" x="70.125 81.68895 90.00491 97.38287 105.83884 109.60483 118.3828 127.874759 136.33072 145.82268 149.49066 157.75063 161.41861 164.3866 175.76856 185.13452 193.17049 196.83847 210.20842 220.03638 231.12433 235.35231 239.0203 243.62628 251.88625 261.35023 267.03419 275.29414 281.98609 289.57405 293.242 297.86387 306.64186 315.4198 321.10377 330.54817 338.8081 342.5741 346.3401 350.00807 358.268 367.75996 377.2519 380.91987 385.54173 393.78767 402.0476 407.73158 417.13954 422.64527 426.41127 435.8752 445.46519 449.13319 457.01515 466.4231 473.25508 478.67494 487.45289 502.30683 505.9748 518.07077 526.52676 536.0187 539.68667 549.7246 559.6366 563.8646 567.5326 575.79257 585.2005 590.88449 600.3484 608.8043 618.2683 623.9523 627.71829 635.6002 643.86019 649.5441 653.3101 662.0881 671.552 675.22 683.4799 692.94387 702.4358 706.10379 711.5395 719.78549 728.0454 731.8114 737.2994 742.98336 746.7493 761.6033 770.0592 773.7272 783.13516 792.6271 802.119 810.37899 815.7988 824.25479 831.08676 834.7547 842.34268 846.10867 854.3686 858.03659 868.0745 875.2285 884.6365 890.0722 898.66818">Developed a .NET MAUI fantasy football app featuring custom web API authentication and real-time updates via Azure-</tspan></text>
<text xml:space="preserve" transform="matrix(.585 0 0 .585 0 27.75)" font-size="14" font-family="Unnamed"><tspan y="878" x="70.125 77.88284 86.66081 96.12477 105.58873 114.04469 122.01254 127.43239 135.88835 145.38031 149.0483 158.54026 166.80022 172.48419 180.74416 190.18852 198.44849 205.28046 213.73642 216.7044 220.37239 228.63236 236.40607 245.87003 249.63602 257.95198 265.53993 269.3059 278.76988 288.35984 292.02784 301.6178 305.3838 314.16175 323.6061 331.86607 335.63206 339.30003 347.55998 355.3178 363.07566 371.53163 378.3636 385.19557 388.96156 398.45353 402.2195 405.9855 409.7515 415.29548 422.88346 426.55143 435.95939 445.45133 454.22929 463.69325 467.36125 471.12724 479.38719 488.79515 498.2591 506.0328 515.49679">connected database, achieving global accessibility upon launch.</tspan></text>
<path transform="matrix(.585,0,0,.585,0,27.75)" d="M59 894.5C58.999998 894.8315 58.93656 895.1503 58.809694 895.4566 58.682828 895.7628 58.502183 896.0332 58.26776 896.2677 58.033338 896.5021 57.762987 896.6827 57.4567 896.8096 57.150415 896.93649 56.831518 896.99996 56.5 897 56.168474 896.99996 55.849569 896.93649 55.54328 896.8096 55.236997 896.6827 54.966646 896.5021 54.732229 896.2677 54.497804 896.0332 54.317159 895.7628 54.190294 895.4566 54.063428 895.1503 53.999998 894.8315 54 894.5 53.999998 894.1684 54.063428 893.8495 54.190294 893.54318 54.317159 893.2369 54.497804 892.96658 54.732229 892.7322 54.966646 892.49777 55.237 892.3171 55.543287 892.19027 55.849569 892.0634 56.168474 892 56.5 892 56.831518 892 57.150415 892.0634 57.4567 892.19027 57.762987 892.3171 58.033338 892.49777 58.26776 892.7322 58.502183 892.96658 58.682828 893.2369 58.809694 893.54318 58.93656 893.8495 58.999998 894.1684 59 894.5Z"/>
<text xml:space="preserve" transform="matrix(.585 0 0 .585 0 27.75)" font-size="14" font-family="Unnamed"><tspan y="899" x="70.125 81.87096 91.362918 97.04689 100.81288 115.666828 119.432819 126.46266 134.91863 144.41059 148.07857 153.69255 163.10051 172.56447 178.24845 182.01444 196.86838 205.32434 208.99233 218.48429 226.94025 232.55423 237.17609 245.95406 251.45978 266.31373 274.57368 284.03764 291.79548 300.25144 303.91944 313.2014 320.78938 324.45735 333.38929 341.17326 352.7792 356.4472 362.13117 371.59513 377.03083 385.80879 395.21675 404.8067 414.27067 417.93867 426.18464 433.66059 443.15254 451.6085 457.1142 460.8802 475.73414 484.1901 493.65406 499.338 507.59797 513.2819 517.0479 525.82589 535.2898 538.95779 551.26376 555.0297 560.7137 570.1776 573.8456 576.8136 588.19558 597.5615 605.5975 609.26547 616.8973 625.1572 631.9892 640.1773 647.0093 650.67727 658.9372 668.4011 677.89309 681.56106 696.415 705.82296 709.6183 715.30227 719.06826 724.7522 734.2162 739.6519 747.8979 756.15786 765.6498 769.4158 778.87979 788.4697 792.1377 797.55758 806.01358 813.78726 823.2512 832.7152 836.4812 845.97317 855.3811 863.83706 870.669">Optimized runtime performance by 85% through experimentation with .NET Tasks and multithreading techniques.</tspan></text>
<path transform="matrix(.585,0,0,.585,0,27.75)" d="M59 915.5C58.999998 915.8314 58.93656 916.15029 58.809694 916.45657 58.682828 916.7629 58.502183 917.03329 58.26776 917.2677 58.033338 917.50216 57.762987 917.68276 57.4567 917.8096 57.150415 917.93649 56.831518 917.99996 56.5 918 56.168474 917.99996 55.849569 917.9364 55.54328 917.8095 55.236997 917.68276 54.966646 917.50216 54.732229 917.2677 54.497804 917.03329 54.317159 916.7629 54.190294 916.4566 54.063428 916.15029 53.999998 915.8314 54 915.5 53.999998 915.1684 54.063428 914.8495 54.190294 914.5432 54.317159 914.2369 54.497804 913.96658 54.732229 913.7322 54.966646 913.49777 55.237 913.3171 55.543287 913.19027 55.849569 913.0634 56.168474 913 56.5 913 56.831518 913 57.150415 913.0634 57.4567 913.1902 57.762987 913.3171 58.033338 913.49777 58.26776 913.7322 58.502183 913.96658 58.682828 914.2369 58.809694 914.5432 58.93656 914.8495 58.999998 915.1684 59 915.5Z"/>
<text xml:space="preserve" transform="matrix(.585 0 0 .585 0 27.75)" font-size="14" font-family="Unnamed"><tspan y="920" x="70.125 81.68895 90.14491 96.97688 100.742877 110.33284 119.7968 128.25276 137.74472 141.4127 149.67267 159.13663 168.62859 172.29657 176.06256 190.9165 200.40847 204.17446 212.63042 227.48436 235.94033 245.40428 250.82413 259.2801 268.77204 272.44 280.69996 284.36793 293.85987 301.4478 310.91178 319.17176 334.0257 337.7917 345.67366 349.3416 360.72358 369.50154 378.99348 387.44944 390.55744 394.39344 401.2254 405.9154 415.96736 425.3753 434.86726 444.3592 452.81517 458.235 466.69096 475.1469 480.6209 483.72889 487.56489 494.39686 498.06483 506.32478 515.8167 525.30868 528.9766 534.3965 543.17446 546.8424 555.10238 564.5103 569.9302 578.7081 588.17208 596.95 611.80398 620.5819 629.98989 636.82186 640.5878 648.1758 651.84378 659.7257 664.6794 672.93936 680.7131 689.127 692.795 700.56869 710.03268 718.2926 727.75656 737.3465 741.1125 750.5765 760.16647 763.8344 773.2284 778.7164 788.2083 791.9743 801.5643 805.33029 811.0142 814.6822 824.5942 828.82217 840.2041 847.0361 850.70407 859.482">Designed and implemented a dynamic Node.js/Puppeteer.js app to autonomously crack changing 4-digit PINs on</tspan></text>
<text xml:space="preserve" transform="matrix(.585 0 0 .585 0 27.75)" font-size="14" font-family="Unnamed"><tspan y="941" x="70.125">[</tspan></text>
<text fill="#428bca" xml:space="preserve" transform="matrix(.585 0 0 .585 0 27.75)" font-size="14" font-family="Unnamed"><tspan y="941" x="74.578128 84.04208 89.53192 95.2159 104.707859 111.539829 115.139209 118.9178 123.18779 135.42235 147.6569 159.48873 162.24811 171.83808 181.24604 189.702 196.53397 203.36594 209.04991 218.51387 226.96984 236.46179 240.22779 249.69174 252.45113 260.20899 268.98695 283.84089">https://www.guessthepin.com/</tspan></text>
<text xml:space="preserve" transform="matrix(.585 0 0 .585 0 27.75)" font-size="14" font-family="Unnamed"><tspan y="941" x="288.95314 293.4051">].</tspan></text>
<path transform="matrix(.585,0,0,.585,0,27.75)" d="M59 957.5C58.999998 957.8314 58.93656 958.15029 58.809694 958.45657 58.682828 958.7629 58.502183 959.03329 58.26776 959.2677 58.033338 959.5021 57.762987 959.6827 57.4567 959.8096 57.150415 959.93649 56.831518 959.99996 56.5 960 56.168474 959.99996 55.849569 959.93649 55.54328 959.8096 55.236997 959.6827 54.966646 959.5021 54.732229 959.2677 54.497804 959.03329 54.317159 958.7629 54.190294 958.4566 54.063428 958.15029 53.999998 957.8314 54 957.5 53.999998 957.1684 54.063428 956.8495 54.190294 956.5432 54.317159 956.2369 54.497804 955.96658 54.732229 955.7322 54.966646 955.49777 55.237 955.3171 55.543287 955.19027 55.849569 955.0634 56.168474 955 56.5 955 56.831518 955 57.150415 955.0634 57.4567 955.1902 57.762987 955.3171 58.033338 955.49777 58.26776 955.7322 58.502183 955.96658 58.682828 956.2369 58.809694 956.54318 58.93656 956.8495 58.999998 957.1684 59 957.5Z"/>
<text xml:space="preserve" transform="matrix(.585 0 0 .585 0 27.75)" font-size="14" font-family="Unnamed"><tspan y="962" x="70.125 80.19096 85.14461 93.40457 98.15056 103.570407 112.02637 121.518329 125.18631 133.44628 142.91024 146.57822 150.34421 159.80817 165.22801 173.68398 178.63762 186.89759 194.86544 200.54941 204.3154 211.69336 220.14933 223.8173 233.93927 242.18523 250.44519 258.41304 264.237 267.34498 271.18098 278.01295 281.6809 291.17286 299.9508 305.77479 311.45875 316.0806 324.85859 328.62458 332.39057 341.16853 344.8365 351.66847 355.43446 360.8543 369.31028 372.27827 375.94624 380.56809 388.81404 397.07398 402.75794 412.1659 417.67164 421.43763 430.90159 440.49156 444.15956 454.2815 462.52748 470.7874 478.75526 484.4392 488.10719 497.85487 506.6328 521.48678 530.9787 539.75668 549.2206 557.6765 567.1405 572.82449 579.65646 582.6244 586.29238 596.4143 604.6603 612.9202 620.88809 626.572 630.24 638.85 644.53396 652.7939 658.21377 666.6697 673.50167 676.4696 680.1376 691.51956 699.97549 709.3834 724.23739 733.0153 738.52108 748.013 757.4769 761.2429 769.1249 772.79287 784.3568 792.81277 799.6447 803.4107 813.0007 822.4646 829.2966 832.2645 835.9325 846.05447 854.3004 862.56039 870.5282 876.07217 881.4201 885.6481 893.4059 902.18386 911.6478 918.4798">Crafted an interactive React.js portfolio site, featuring React Components, React States, Neumorphic Designs, React-Icons,</tspan></text>
<text xml:space="preserve" transform="matrix(.585 0 0 .585 0 27.75)" font-size="14" font-family="Unnamed"><tspan y="983" x="70.125 81.50696 89.54292 102.91287 111.158847 119.08281 122.0508 125.71878 135.7544 144.36437 152.97434 157.66432 168.22028 176.99825 185.77622 191.46019 198.29216 203.97614 208.92978 217.18975 226.4731 229.44109 233.10907 241.36904 250.833 260.32496 263.99293 273.48487 281.0728 290.53678 298.79676 313.6507 317.4167 325.29866 328.9666 337.22657 346.69053 350.4565 365.31047 373.57044 379.2544 383.0204 391.79835 401.2623 408.09428 411.06227 414.73023">HTML5, CSS/Bootstrap, and dynamic animations. [</tspan></text>
<text fill="#428bca" xml:space="preserve" transform="matrix(.585 0 0 .585 0 27.75)" font-size="14" font-family="Unnamed"><tspan y="983" x="419.1875 428.65147 434.1413 439.82527 449.3172 456.14918 459.74855 463.52714 467.79713 480.03169 492.26625 504.09806 507.06605 516.53 524.98599 534.44998 539.9557 543.7217 551.7539 564.0599 567.82589 576.28189 585.74588 594.2018 599.6758 602.4352 610.193 618.97097 633.8249">https://www.henrikwiener.com/</tspan></text>
<text xml:space="preserve" transform="matrix(.585 0 0 .585 0 27.75)" font-size="14" font-family="Unnamed"><tspan y="983" x="638.9375 643.38949">].</tspan></text>
<path transform="matrix(.585,0,0,.585,0,27.75)" d="M59 999.5C58.999998 999.8315 58.93656 1000.1503 58.809694 1000.45657 58.682828 1000.7629 58.502183 1001.03329 58.26776 1001.2677 58.033338 1001.5021 57.762987 1001.6827 57.4567 1001.8096 57.150415 1001.93649 56.831518 1001.99996 56.5 1002 56.168474 1001.99996 55.849569 1001.93649 55.54328 1001.8096 55.236997 1001.6827 54.966646 1001.5021 54.732229 1001.2677 54.497804 1001.03329 54.317159 1000.7629 54.190294 1000.45657 54.063428 1000.1503 53.999998 999.8315 54 999.5 53.999998 999.16848 54.063428 998.84957 54.190294 998.5432 54.317159 998.23696 54.497804 997.9666 54.732229 997.7322 54.966646 997.49777 55.237 997.3171 55.543287 997.1902 55.849569 997.0634 56.168474 997 56.5 997 56.831518 997 57.150415 997.0634 57.4567 997.1902 57.762987 997.3171 58.033338 997.49777 58.26776 997.7322 58.502183 997.9666 58.682828 998.23696 58.809694 998.54318 58.93656 998.8495 58.999998 999.16848 59 999.5Z"/>
<text xml:space="preserve" transform="matrix(.585 0 0 .585 0 27.75)" font-size="14" font-family="Unnamed"><tspan y="1004" x="70.125 78.73871 87.51668 96.92464 106.388599 115.880558 124.33652 133.82848 137.49646 145.75643 155.22039 164.71234 168.38033 173.81604 182.272 190.15398 195.76796 205.17592 208.94191 214.36176 222.81772 232.30968 235.97766 244.54563 251.92359 260.37956 265.99354 269.6615 277.58546 286.8534 298.45936 302.12733 310.90528 315.65126 319.3192 332.68916 341.29914 349.90913 359.94709 363.61506 378.469 386.92497 401.7789 411.27088 419.72685 425.3105 432.14247 435.81044 441.2303 450.00825 453.6762 461.93617 465.60414 477.1681 480.93409 487.76606 495.5239 504.30189 509.7376 519.22958 522.8975 529.7295 538.1854 544.0094 551.3873 559.84329 565.31729 568.2853 571.95327 576.5751 585.353 592.185 597.60488 606.06088 611.5666 615.3326 624.7966 634.38656 638.0545 646.31448 649.9824 657.7403 666.51828 681.3722 696.22616 705.6341 715.0981 718.8641 724.408 731.996 735.66397 740.2858 749.0638 754.6778 758.34579 767.80978 776.5877 786.0517 789.8177 799.2817 808.87167 812.5396 817.9595 826.41549 834.18917 843.65316 853.1171 856.8831 864.7651 873.025 876.791 880.459 887.29098 895.7049 899.4709 903.2369 907.00289 913.83486 917.5028 921.2688 930.7327 934.4007 943.89266 952.1526 957.83657">Founded and recruited over 50% of MSSA members to a Discord server, fostering a community for honing technical skills in data</tspan></text>
<text xml:space="preserve" transform="matrix(.585 0 0 .585 0 27.75)" font-size="14" font-family="Unnamed"><tspan y="1025" x="70.125 76.95697 82.640949 88.25493 97.66289 105.63074 111.31471 120.72267 126.15839 134.61435 141.44632 145.1143 153.37427 162.83823 172.33019 175.99817 184.25814 188.02413 197.61409 206.39206 211.89778 215.66378 221.34775 230.8117 245.66565 252.49762 255.4656 259.1336 267.39356 276.8575 286.3495 290.01747 297.7753 306.55329 310.31929 314.08528 322.3452 331.83717 340.6151 345.56877 353.82875 359.5127 363.2787 372.74266 382.3326 386.0006 394.77857 404.24253 407.91053 410.8785 422.26048 431.62644 439.6624 443.33039 448.07637 453.03 461.28999 476.14393 484.4599 496.55586 505.3338 510.83955 519.25357 522.9215 532.41348 537.8492 546.62716 550.46316 558.91909 566.88699 572.5709 579.4029">structures and algorithms, and collaborating on .NET framework projects.</tspan></text>
<path transform="matrix(.585,0,0,.585,0,27.75)" d="M59 1041.5C58.999998 1041.8314 58.93656 1042.1503 58.809694 1042.4566 58.682828 1042.7628 58.502183 1043.0332 58.26776 1043.2677 58.033338 1043.5021 57.762987 1043.6828 57.4567 1043.8096 57.150415 1043.9364 56.831518 1043.9999 56.5 1044 56.168474 1043.9999 55.849569 1043.9364 55.54328 1043.8096 55.236997 1043.6828 54.966646 1043.5021 54.732229 1043.2677 54.497804 1043.0332 54.317159 1042.7628 54.190294 1042.4566 54.063428 1042.1503 53.999998 1041.8314 54 1041.5 53.999998 1041.1683 54.063428 1040.8494 54.190294 1040.5431 54.317159 1040.2368 54.497804 1039.9664 54.732229 1039.7322 54.966646 1039.4977 55.237 1039.317 55.543287 1039.1902 55.849569 1039.0634 56.168474 1039 56.5 1039 56.831518 1039 57.150415 1039.0634 57.4567 1039.1902 57.762987 1039.317 58.033338 1039.4977 58.26776 1039.7322 58.502183 1039.9664 58.682828 1040.2368 58.809694 1040.5432 58.93656 1040.8495 58.999998 1041.1683 59 1041.5Z"/>
<text xml:space="preserve" transform="matrix(.585 0 0 .585 0 27.75)" font-size="14" font-family="Unnamed"><tspan y="1046" x="70.125 83.49495 91.95091 101.41487 106.83472 115.612689 121.0484 129.50437 138.99633 142.6643 150.91028 154.57826 164.07022 172.52619 180.98215 186.56578 193.39775 196.36574 200.03372 208.48969 212.25568 220.57164 227.93373 236.1937 241.87767 245.64366 255.10762 264.69758 268.36555 274.0495 283.51347 291.96943 295.7354 301.3494 305.0174 314.50935 322.7693 328.45326 336.7132 340.38117 347.21315 352.8971 358.51109 367.91905 375.8869 381.57087 390.97883 396.41456 404.8705 411.70249 414.67048 418.33845 426.5984 430.36439 439.95436 448.7323 454.23805 458.00404 463.688 473.15196 488.0059 494.83787 497.80586 501.47383 509.73377 519.19778 528.6897 532.35769 539.18966 547.9676 552.71359 558.25759 570.33767 578.59768 584.0334 592.4894 596.15737 604.6133 614.0773 623.66726 627.4332 636.8972 645.35317 653.8091 659.3148 663.0808 672.5448 682.13479 685.80276 695.2947 700.7304 709.50839 714.25436 718.0203 725.79409 729.56008 738.016 747.48 755.25369 762.3675 765.33547 769.0034 777.2494 785.50936 791.0151 800.479 804.245 813.709 823.29898 826.9669 832.6509 842.11489 850.5708 854.2388 869.0927 877.87069 887.3346 891.1006 899.2187 907.6747">Mentored 7 peers, elevating their data structures, algorithms, and software engineering proficiency, earning the moniker</tspan></text>
<text xml:space="preserve" transform="matrix(.585 0 0 .585 0 27.75)" font-size="14" font-family="Unnamed"><tspan y="1067" x="70.125 75.346988 83.59296 91.418918 99.31488 104.998859 114.74655 123.52452 133.01648 141.47245 151.4404 159.40825 165.09223 174.50019 182.76015 186.52614 191.74813 195.4161 200.03797 208.81594 214.42992 218.0979 221.86389 230.10985 238.36981 247.86177 256.31776 261.90138 268.73335 278.1973 281.9633 291.45527 295.12324 303.38319 312.84715 322.3391 326.00709 335.49903 343.955 353.44694 357.21293 365.09489 373.35484 379.0388 382.80479 391.58274 401.0467">"L33tCodeActual" for leadership and dedication.</tspan></text>
<text xml:space="preserve" transform="matrix(.585 0 0 .585 0 27.75)" font-size="17.5" font-family="Unnamed"><tspan y="595" x="49.125 66.718997 76.32349 83.44995 94.447269 98.79663 107.8457 118.125247 128.69532 137.74439 145.04175 150.61304 159.66211 171.05249 180.38355">Work experience</tspan></text>
<text xml:space="preserve" transform="matrix(.585 0 0 .585 0 27.75)" font-size="15.4" font-family="Unnamed"><tspan y="638" x="49.125 54.034608 64.577198 70.30612 74.75401 85.2966 89.74449 96.11612 105.0119 109.25972 118.78642 127.568439 135.49462 141.74903 151.32199 167.52834 175.45452 179.70233 190.01406 200.57656 211.25766 215.70555 226.26805 235.84102 245.41399 251.79759 256.24549 266.80799">Infinity Systems Engineering</tspan></text>
<text xml:space="preserve" transform="matrix(.585 0 0 .585 0 27.75)" font-size="14.7" font-family="Unnamed"><tspan y="637" x="789.6406 798.77279 807.90847 817.98416 824.1529 834.1551 843.07046 849.4597 857.9491 862.00289 870.551 880.41677 888.9649">February 2023</tspan></text>
<text xml:space="preserve" transform="matrix(.585 0 0 .585 0 27.75)" font-size="14.7" font-family="Unnamed"><tspan y="637" x="911.28128 921.7268 927.74526 936.88088 944.44497 953.58059 963.64157">Present</tspan></text>
<text xml:space="preserve" transform="matrix(.585 0 0 .585 0 27.75)" font-size="14" font-family="Unnamed"><tspan y="661" x="49.125 57.93097 66.96094 72.12692 77.9229 90.54541 99.04338 104.78021 113.488178 117.35216 126.73212 136.34018 146.05614 150.10213 159.71019 168.41815 177.12612 182.86609 186.28208 190.14606 200.04088 209.21085 214.67397 224.85193 234.4419 242.93987 246.98586 252.72583 256.1418 260.0058 269.90065 278.9306 293.67256 308.4145 317.94847 327.53843 331.5844 337.38038 345.47236 349.33634 361.12428 370.65824 376.5942 382.33106 390.829 399.3451 407.40596 416.9959 420.8599 431.51387 440.44535 448.9433 454.6801">Software Engineer, Co-Chair, Community Outreach Board</tspan></text>
<text xml:space="preserve" transform="matrix(.585 0 0 .585 0 27.75)" font-size="15.4" font-family="Unnamed"><tspan y="812" x="49.125 63.82306 68.27095 77.212909 83.519519 93.44647 101.37265 111.29961 116.978748 123.50438 127.7522 137.4329 147.35987 153.039 159.41063 173.28685 182.62897 188.93558 198.50855 202.75637 212.09848 222.66098 233.23435 237.48217 247.00887 255.79088 263.71705 269.97145 279.5444 295.75074 303.6769 307.92475 319.37535 328.3173 337.67933 348.2527 357.82566 373.878 382.77378 387.02159 392.36213 407.06019 416.74089 426.4216 437.9492">Microsoft Software and Systems Academy (MSSA)</tspan></text>
<text xml:space="preserve" transform="matrix(.585 0 0 .585 0 27.75)" font-size="14.7" font-family="Unnamed"><tspan y="811" x="746.8281 759.19509 767.83718 773.8058 783.27926 793.35488 802.4905 808.65927 812.713 821.26119 831.1269 839.67507">October 2022</tspan></text>
<text xml:space="preserve" transform="matrix(.585 0 0 .585 0 27.75)" font-size="14.7" font-family="Unnamed"><tspan y="811" x="862 871.13217 880.2678 890.3435 896.51229 906.51449 915.4298 921.8191 930.3085 934.36227 942.9104 952.7761 961.3243">February 2023</tspan></text>
<text xml:space="preserve" transform="matrix(.585 0 0 .585 0 27.75)" font-size="14" font-family="Unnamed"><tspan y="835" x="49.125 59.302965 63.348955 72.37892 81.91289 91.53085 95.39484 105.8808 115.48476 125.088718 129.1347 133.1807 141.31467 149.81264 155.74861 159.7946 168.82457 178.41454 182.27852 193.84247 202.41043 210.29239 219.00035 223.04634 232.07631 241.68027 256.4403 265.14826 274.73823 280.6742 284.53819 293.34416 299.28013 308.8141 318.43208 327.14 336.72999">Cloud Application Development Student</tspan></text>
<path transform="matrix(.585,0,0,.585,0,27.75)" d="M49 1124H970V1126H49Z"/>
<path transform="matrix(.585,0,0,.585,0,27.75)" d="M49 1118H970V1122H49Z"/>
<path transform="matrix(.585,0,0,.585,0,27.75)" d="M59 1146.5C58.999998 1146.8314 58.93656 1147.1503 58.809694 1147.4566 58.682828 1147.7628 58.502183 1148.0332 58.26776 1148.2677 58.033338 1148.5021 57.762987 1148.6828 57.4567 1148.8096 57.150415 1148.9364 56.831518 1148.9999 56.5 1149 56.168474 1148.9999 55.849569 1148.9364 55.54328 1148.8096 55.236997 1148.6828 54.966646 1148.5021 54.732229 1148.2677 54.497804 1148.0332 54.317159 1147.7628 54.190294 1147.4566 54.063428 1147.1503 53.999998 1146.8314 54 1146.5 53.999998 1146.1683 54.063428 1145.8494 54.190294 1145.5431 54.317159 1145.2368 54.497804 1144.9666 54.732229 1144.7322 54.966646 1144.4977 55.237 1144.317 55.543287 1144.1902 55.849569 1144.0634 56.168474 1144 56.5 1144 56.831518 1144 57.150415 1144.0634 57.4567 1144.1902 57.762987 1144.317 58.033338 1144.4977 58.26776 1144.7322 58.502183 1144.9666 58.682828 1145.2368 58.809694 1145.5431 58.93656 1145.8494 58.999998 1146.1683 59 1146.5Z"/>
<text xml:space="preserve" transform="matrix(.585 0 0 .585 0 27.75)" font-size="14" font-family="Unnamed"><tspan y="1151" x="70.125 83.49495 87.26094 95.142917 100.57863 109.3566 116.18857 124.96654 129.71253 135.3965 139.06449 149.10245 156.25643 165.66439 171.1001 179.55606 183.22405 191.83776 201.24571 210.70967 220.20163 228.4616 243.31554 251.7715 261.23548 266.91944 275.17939 278.94538 285.77735 289.4453 294.0513 304.08927 312.99464 318.3426 326.86854 336.13648 345.40443">Microsoft Azure Fundamentals (AZ-900)</tspan></text>
<path transform="matrix(.585,0,0,.585,0,27.75)" d="M59 1167.5C58.999998 1167.8314 58.93656 1168.1503 58.809694 1168.4567 58.682828 1168.763 58.502183 1169.0332 58.26776 1169.2677 58.033338 1169.502 57.762987 1169.6826 57.4567 1169.8095 57.150415 1169.9364 56.831518 1169.9999 56.5 1170 56.168474 1169.9999 55.849569 1169.9364 55.54328 1169.8095 55.236997 1169.6826 54.966646 1169.502 54.732229 1169.2677 54.497804 1169.0332 54.317159 1168.763 54.190294 1168.4567 54.063428 1168.1503 53.999998 1167.8314 54 1167.5 53.999998 1167.1683 54.063428 1166.8494 54.190294 1166.5431 54.317159 1166.2368 54.497804 1165.9666 54.732229 1165.732 54.966646 1165.4977 55.237 1165.317 55.543287 1165.1902 55.849569 1165.0634 56.168474 1165 56.5 1165 56.831518 1165 57.150415 1165.0634 57.4567 1165.1902 57.762987 1165.317 58.033338 1165.4977 58.26776 1165.732 58.502183 1165.9666 58.682828 1166.2368 58.809694 1166.5431 58.93656 1166.8494 58.999998 1167.1683 59 1167.5Z"/>
<text xml:space="preserve" transform="matrix(.585 0 0 .585 0 27.75)" font-size="14" font-family="Unnamed"><tspan y="1172" x="70.125 79.872699 88.650669 103.50461 111.82384 119.8598 124.08778 134.12575 137.79373 146.4037 154.85967 162.6385">CompTIA Sec+</tspan></text>
<path transform="matrix(.585,0,0,.585,0,27.75)" d="M59 1188.5C58.999998 1188.8314 58.93656 1189.1503 58.809694 1189.4566 58.682828 1189.7628 58.502183 1190.0332 58.26776 1190.2677 58.033338 1190.5021 57.762987 1190.6828 57.4567 1190.8096 57.150415 1190.9364 56.831518 1190.9999 56.5 1191 56.168474 1190.9999 55.849569 1190.9364 55.54328 1190.8096 55.236997 1190.6828 54.966646 1190.5021 54.732229 1190.2677 54.497804 1190.0332 54.317159 1189.7628 54.190294 1189.4566 54.063428 1189.1503 53.999998 1188.8314 54 1188.5 53.999998 1188.1685 54.063428 1187.8495 54.190294 1187.5432 54.317159 1187.2368 54.497804 1186.9664 54.732229 1186.7322 54.966646 1186.4977 55.237 1186.3171 55.543287 1186.1903 55.849569 1186.0635 56.168474 1186 56.5 1186 56.831518 1186 57.150415 1186.0635 57.4567 1186.1903 57.762987 1186.3171 58.033338 1186.4977 58.26776 1186.7322 58.502183 1186.9664 58.682828 1187.2368 58.809694 1187.5432 58.93656 1187.8495 58.999998 1188.1685 59 1188.5Z"/>
<text xml:space="preserve" transform="matrix(.585 0 0 .585 0 27.75)" font-size="14" font-family="Unnamed"><tspan y="1193" x="70.125 79.996829 88.24278 96.50275 102.08638 108.91835 117.69632 127.16028 130.82826 140.16436 149.57231 158.02828 161.69626 170.30623 179.0842 183.83019 189.37416 201.45424 209.7142 215.14992 223.60588 227.27387 238.83782 247.15378 254.53174 262.9877 266.7537 275.53169 285.02363 299.87757 308.33354 317.7975 323.48146 327.1494 335.76313 345.17109 354.63505 364.12699 372.38694 387.24089 395.69685 405.1608 410.84477 419.1047 422.8707">Pearson Vue Software Development Fundamentals</tspan></text>
<text xml:space="preserve" transform="matrix(.585 0 0 .585 0 27.75)" font-size="17.5" font-family="Unnamed"><tspan y="1110" x="49.125 60.14795 69.19702 76.76782 83.005619 88.576908 94.77197 100.34326 109.63159 119.30444 125.54224 131.11353 140.71802 152.19385">Certifications</tspan></text>
<path transform="matrix(.585,0,0,.585,0,27.75)" d="M49 1250H970V1252H49Z"/>
<path transform="matrix(.585,0,0,.585,0,27.75)" d="M49 1244H970V1248H49Z"/>
<text xml:space="preserve" transform="matrix(.585 0 0 .585 0 27.75)" font-size="14.7" font-family="Unnamed"><tspan y="1278" x="924.6094 930.2641">- </tspan></text>
<text xml:space="preserve" transform="matrix(.585 0 0 .585 0 27.75)" font-size="14" font-family="Unnamed"><tspan y="1324" x="49.125 59.162965 68.62692 74.3109 78.07689 85.8506 89.61659 99.06096 107.32092 112.74077 121.19673 130.68869 134.35668 143.94664 148.90029 157.16025 166.6522 176.06017 184.32013 190.0041 193.7701 202.54807 212.01203 214.98001 218.648 225.66197 235.06993 244.53389 252.98986 256.65785 264.57948 273.8474 281.79939 289.72334">Anticipated graduation, June 2025.</tspan></text>
<text xml:space="preserve" transform="matrix(.585 0 0 .585 0 27.75)" font-size="17.5" font-family="Unnamed"><tspan y="1236" x="49.125 60.122316 70.53003 81.16846 90.45679 100.12964 106.36743 111.93872 121.54321">Education</tspan></text>
<text xml:space="preserve" transform="matrix(.585 0 0 .585 0 27.75)" font-size="15.4" font-family="Unnamed"><tspan y="1279" x="49.125 65.88489 75.457859 83.38403 89.63844 99.21141 105.59502 116.1376 120.38542 132.267 141.96295 150.62773 160.2007 166.5843 177.1468 187.07376 193.53783 196.92377 204.84995 209.09777 221.24097 231.78356 236.23145 244.89623 254.4692 260.93327 268.85945 273.3073 279.67897">Western Governor's University</tspan></text>
<text xml:space="preserve" transform="matrix(.585 0 0 .585 0 27.75)" font-size="14.7" font-family="Unnamed"><tspan y="1278" x="934.3281 942.8763 952.742 961.29019">2025</tspan></text>
<text xml:space="preserve" transform="matrix(.585 0 0 .585 0 27.75)" font-size="14" font-family="Unnamed"><tspan y="1302" x="49.125 59.77896 68.29503 76.355869 85.96393 94.67189 98.71788 107.74785 113.62782 117.491809 126.521778 131.68776 135.55175 144.35771 152.41855 156.46454 165.1725 174.78057 182.80797 191.51593 194.93192 198.7959 207.60187 216.63184 221.79782 227.5938 240.21631 248.71428 254.45111 263.15907 267.02305 276.403 286.01109 295.72706 299.77305 309.3811 318.08906 326.797 332.60383 336.6498 346.25788">Bachelor of Science: Software Engineering</tspan></text>
</g>
</svg>
