<?xml version="1.0" standalone="no"?><svg xmlns="http://www.w3.org/2000/svg" viewBox="0 0 1440 320"><path fill="#9DB69B" fill-opacity="1" d="M0,128L24,160C48,192,96,256,144,277.3C192,299,240,277,288,272C336,267,384,277,432,245.3C480,213,528,139,576,133.3C624,128,672,192,720,229.3C768,267,816,277,864,256C912,235,960,181,1008,186.7C1056,192,1104,256,1152,261.3C1200,267,1248,213,1296,202.7C1344,192,1392,224,1416,240L1440,256L1440,320L1416,320C1392,320,1344,320,1296,320C1248,320,1200,320,1152,320C1104,320,1056,320,1008,320C960,320,912,320,864,320C816,320,768,320,720,320C672,320,624,320,576,320C528,320,480,320,432,320C384,320,336,320,288,320C240,320,192,320,144,320C96,320,48,320,24,320L0,320Z"></path></svg>