<?xml version="1.0" standalone="no"?><svg xmlns="http://www.w3.org/2000/svg" viewBox="0 0 1440 320"><path fill="#9DB69B" fill-opacity="1" d="M0,192L17.1,192C34.3,192,69,192,103,213.3C137.1,235,171,277,206,293.3C240,309,274,299,309,261.3C342.9,224,377,160,411,149.3C445.7,139,480,181,514,176C548.6,171,583,117,617,101.3C651.4,85,686,107,720,112C754.3,117,789,107,823,106.7C857.1,107,891,117,926,144C960,171,994,213,1029,213.3C1062.9,213,1097,171,1131,165.3C1165.7,160,1200,192,1234,224C1268.6,256,1303,288,1337,288C1371.4,288,1406,256,1423,240L1440,224L1440,0L1422.9,0C1405.7,0,1371,0,1337,0C1302.9,0,1269,0,1234,0C1200,0,1166,0,1131,0C1097.1,0,1063,0,1029,0C994.3,0,960,0,926,0C891.4,0,857,0,823,0C788.6,0,754,0,720,0C685.7,0,651,0,617,0C582.9,0,549,0,514,0C480,0,446,0,411,0C377.1,0,343,0,309,0C274.3,0,240,0,206,0C171.4,0,137,0,103,0C68.6,0,34,0,17,0L0,0Z"></path></svg>