<svg id="visual" viewBox="0 0 900 600" width="900" height="600" xmlns="http://www.w3.org/2000/svg" xmlns:xlink="http://www.w3.org/1999/xlink" version="1.1"><rect x="0" y="0" width="900" height="600" fill="#9b9db6"></rect><path d="M0 78L7.8 74C15.7 70 31.3 62 47.2 69C63 76 79 98 94.8 103.2C110.7 108.3 126.3 96.7 142 95.3C157.7 94 173.3 103 189.2 109.5C205 116 221 120 236.8 121.8C252.7 123.7 268.3 123.3 284.2 110.5C300 97.7 316 72.3 331.8 63.7C347.7 55 363.3 63 379 65.2C394.7 67.3 410.3 63.7 426.2 64.7C442 65.7 458 71.3 473.8 82.7C489.7 94 505.3 111 521 112.2C536.7 113.3 552.3 98.7 568.2 93.8C584 89 600 94 615.8 87.5C631.7 81 647.3 63 663.2 55C679 47 695 49 710.8 53.2C726.7 57.3 742.3 63.7 758 72.2C773.7 80.7 789.3 91.3 805.2 100.8C821 110.3 837 118.7 852.8 117.3C868.7 116 884.3 105 892.2 99.5L900 94L900 0L892.2 0C884.3 0 868.7 0 852.8 0C837 0 821 0 805.2 0C789.3 0 773.7 0 758 0C742.3 0 726.7 0 710.8 0C695 0 679 0 663.2 0C647.3 0 631.7 0 615.8 0C600 0 584 0 568.2 0C552.3 0 536.7 0 521 0C505.3 0 489.7 0 473.8 0C458 0 442 0 426.2 0C410.3 0 394.7 0 379 0C363.3 0 347.7 0 331.8 0C316 0 300 0 284.2 0C268.3 0 252.7 0 236.8 0C221 0 205 0 189.2 0C173.3 0 157.7 0 142 0C126.3 0 110.7 0 94.8 0C79 0 63 0 47.2 0C31.3 0 15.7 0 7.8 0L0 0Z" fill="#e6e6e6" stroke-linecap="round" stroke-linejoin="miter"></path></svg>